{
.appVersion = "3108";
copyright = "Copyright (c) 2015, Impallari Type (www.impallari.com)";
customParameters = (
{
name = fsType;
value = (
);
},
{
name = licenseURL;
value = "http://scripts.sil.org/OFL";
},
{
name = license;
value = "This Font Software is licensed under the SIL Open Font License, Version 1.1. This license is available with a FAQ at: http://scripts.sil.org/OFL";
},
{
name = trademark;
value = "Libre Franklin is a trademark of Impallari Type.";
},
{
name = description;
value = "Libre Franklin is a reinterpretation and expansion of the 1912 Morris Fuller Benton’s classic.";
},
{
name = vendorID;
value = IMPA;
},
{
name = Axes;
value = (
{
Name = Weight;
Tag = wght;
},
{
Name = Italic;
Tag = ital;
}
);
}
);
date = "2016-11-15 03:13:29 +0000";
designer = "Pablo Impallari, Rodrigo Fuenzalida, Nhung Nguyen";
designerURL = "http://www.impallari.com/";
familyName = "Libre Franklin";
featurePrefixes = (
{
automatic = 1;
code = "languagesystem DFLT dflt;\012languagesystem latn dflt;\012languagesystem latn CAT;\012languagesystem latn ROM;\012languagesystem latn MOL;\012languagesystem latn KAZ;\012languagesystem latn TAT;\012languagesystem latn TRK;\012languagesystem latn CRT;\012languagesystem latn AZE;\012";
name = Languagesystems;
}
);
features = (
{
automatic = 1;
code = "feature ccmp;\012feature locl;\012feature subs;\012feature sinf;\012feature sups;\012feature numr;\012feature dnom;\012feature frac;\012feature ordn;\012";
name = aalt;
},
{
automatic = 1;

glyphs = (
{
color = 5;
glyphname = A;
lastChange = "2022-07-20 12:25:59 +0000";
layers = (
{
anchors = (
{
name = bottom;
position = "{400, 0}";
},
{
name = ogonek;
position = "{746, 9}";
},
{
name = top;
position = "{395, 742}";
}
);
background = {
anchors = (
{
name = bottom;
position = "{400, 0}";
},
{
name = ogonek;
position = "{746, 9}";
},
{
name = top;
position = "{395, 742}";
}
);
paths = (
{
closed = 1;
nodes = (
"195 0 LINE SMOOTH",
"209 0 OFFCURVE",
"216 7 OFFCURVE",
"219 15 CURVE SMOOTH",
"260 133 LINE SMOOTH",
"262 140 OFFCURVE",
"267 144 OFFCURVE",
"275 144 CURVE SMOOTH",
"487 144 LINE SMOOTH",
"497 144 OFFCURVE",
"499 139 OFFCURVE",
"502 132 CURVE SMOOTH",
"541 17 LINE SMOOTH",
"545 4 OFFCURVE",
"553 0 OFFCURVE",
"563 0 CURVE SMOOTH",
"759 0 LINE SMOOTH",
"774 0 OFFCURVE",
"778 20 OFFCURVE",
"773 34 CURVE SMOOTH",
"533 715 LINE SMOOTH",
"527 731 OFFCURVE",
"514 742 OFFCURVE",
"497 742 CURVE SMOOTH",
"300 742 LINE SMOOTH",
"282 742 OFFCURVE",
"276 735 OFFCURVE",
"270 719 CURVE SMOOTH",
"28 37 LINE SMOOTH",
"20 15 OFFCURVE",
"28 0 OFFCURVE",
"43 0 CURVE SMOOTH"
);
},
{
closed = 1;
nodes = (
"311 314 OFFCURVE",
"308 322 OFFCURVE",
"313 335 CURVE SMOOTH",
"374 505 LINE SMOOTH",
"376 512 OFFCURVE",
"383 512 OFFCURVE",
"386 505 CURVE SMOOTH",
"446 334 LINE SMOOTH",
"450 321 OFFCURVE",
"448 314 OFFCURVE",
"437 314 CURVE SMOOTH",
"323 314 LINE SMOOTH"
);
}
);
};
layerId = "258ED206-D907-4350-8EBA-CBDDA1C16BF7";
paths = (
{
closed = 1;
nodes = (
"195 0 LINE SMOOTH",
"209 0 OFFCURVE",
"216 7 OFFCURVE",
"219 15 CURVE SMOOTH",
"260 133 LINE SMOOTH",
"262 140 OFFCURVE",
"267 144 OFFCURVE",
"275 144 CURVE SMOOTH",
"487 144 LINE SMOOTH",
"497 144 OFFCURVE",
"499 139 OFFCURVE",
"502 132 CURVE SMOOTH",
"541 17 LINE SMOOTH",
"545 4 OFFCURVE",
"553 0 OFFCURVE",
"563 0 CURVE SMOOTH",
"759 0 LINE SMOOTH",
"774 0 OFFCURVE",
"778 20 OFFCURVE",
"773 34 CURVE SMOOTH",
"533 715 LINE SMOOTH",
"527 731 OFFCURVE",
"514 742 OFFCURVE",
"497 742 CURVE SMOOTH",
"300 742 LINE SMOOTH",
"282 742 OFFCURVE",
"276 735 OFFCURVE",
"270 719 CURVE SMOOTH",
"28 37 LINE SMOOTH",
"20 15 OFFCURVE",
"28 0 OFFCURVE",
"43 0 CURVE SMOOTH"
);
},
{
closed = 1;
nodes = (
"311 314 OFFCURVE",
"308 322 OFFCURVE",
"313 335 CURVE SMOOTH",
"374 505 LINE SMOOTH",
"376 512 OFFCURVE",
"383 512 OFFCURVE",
"386 505 CURVE SMOOTH",
"446 334 LINE SMOOTH",
"450 321 OFFCURVE",
"448 314 OFFCURVE",
"437 314 CURVE SMOOTH",
"323 314 LINE SMOOTH"
);
}
);
width = 799;
},
{
anchors = (
{
name = bottom;
position = "{350, 0}";
},
{
name = ogonek;
position = "{639, 11}";
},
{
name = top;
position = "{350, 742}";
}
);
background = {
anchors = (
{
name = bottom;
position = "{350, 0}";
},
{
name = ogonek;
position = "{639, 11}";
},
{
name = top;
position = "{350, 742}";
}
);
paths = (
{
closed = 1;
nodes = (
"85 0 LINE SMOOTH",
"91 0 OFFCURVE",
"95 2 OFFCURVE",
"96 7 CURVE SMOOTH",
"179 231 LINE SMOOTH",
"181 236 OFFCURVE",
"183 238 OFFCURVE",
"189 238 CURVE SMOOTH",
"511 238 LINE SMOOTH",
"517 238 OFFCURVE",
"519 236 OFFCURVE",
"521 231 CURVE SMOOTH",
"602 8 LINE SMOOTH",
"604 2 OFFCURVE",
"608 0 OFFCURVE",
"615 0 CURVE SMOOTH",
"639 0 LINE SMOOTH",
"646 0 OFFCURVE",
"649 4 OFFCURVE",
"647 10 CURVE SMOOTH",
"385 732 LINE SMOOTH",
"383 739 OFFCURVE",
"377 742 OFFCURVE",
"367 742 CURVE SMOOTH",
"334 742 LINE SMOOTH",
"325 742 OFFCURVE",
"321 739 OFFCURVE",
"318 731 CURVE SMOOTH",
"53 9 LINE SMOOTH",
"51 3 OFFCURVE",
"54 0 OFFCURVE",
"60 0 CURVE SMOOTH"
);
},
{
closed = 1;
nodes = (
"197 278 OFFCURVE",
"195 279 OFFCURVE",
"198 286 CURVE SMOOTH",
"343 677 LINE SMOOTH",
"348 691 OFFCURVE",
"353 691 OFFCURVE",
"358 678 CURVE SMOOTH",
"501 288 LINE SMOOTH",
"503 282 OFFCURVE",
"502 278 OFFCURVE",
"494 278 CURVE SMOOTH",
"203 278 LINE SMOOTH"
);
}
);
};
guideLines = (
{
angle = 69.653;
position = "{271, 482}";
},
{
angle = -69.8637;
position = "{430, 483}";
}
);
layerId = "91AB5BCA-6A50-42DA-B2F7-8181BF189245";
paths = (
{
closed = 1;
nodes = (
"85 0 LINE SMOOTH",
"91 0 OFFCURVE",
"95 2 OFFCURVE",
"96 7 CURVE SMOOTH",
"179 231 LINE SMOOTH",
"181 236 OFFCURVE",
"183 238 OFFCURVE",
"189 238 CURVE SMOOTH",
"511 238 LINE SMOOTH",
"517 238 OFFCURVE",
"519 236 OFFCURVE",
"521 231 CURVE SMOOTH",
"602 8 LINE SMOOTH",
"604 2 OFFCURVE",
"608 0 OFFCURVE",
"615 0 CURVE SMOOTH",
"639 0 LINE SMOOTH",
"646 0 OFFCURVE",
"649 4 OFFCURVE",
"647 10 CURVE SMOOTH",
"385 732 LINE SMOOTH",
"383 739 OFFCURVE",
"377 742 OFFCURVE",
"367 742 CURVE SMOOTH",
"334 742 LINE SMOOTH",
"325 742 OFFCURVE",
"321 739 OFFCURVE",
"318 731 CURVE SMOOTH",
"53 9 LINE SMOOTH",
"51 3 OFFCURVE",
"54 0 OFFCURVE",
"60 0 CURVE SMOOTH"
);
},
{
closed = 1;
nodes = (
"197 278 OFFCURVE",
"195 279 OFFCURVE",
"198 286 CURVE SMOOTH",
"343 677 LINE SMOOTH",
"348 691 OFFCURVE",
"353 691 OFFCURVE",
"358 678 CURVE SMOOTH",
"501 288 LINE SMOOTH",
"503 282 OFFCURVE",
"502 278 OFFCURVE",
"494 278 CURVE SMOOTH",
"203 278 LINE SMOOTH"
);
}
);
width = 700;
},
{
anchors = (
{
name = bottom;
position = "{313, 0}";
},
{
name = ogonek;
position = "{603, 11}";
},
{
name = top;
position = "{417, 742}";
}
);
background = {
anchors = (
{
name = bottom;
position = "{313, 0}";
},
{
name = ogonek;
position = "{603, 11}";
},
{
name = top;
position = "{417, 742}";
}
);
paths = (
{
closed = 1;
nodes = (
"49 0 LINE SMOOTH",
"55 0 OFFCURVE",
"58 1 OFFCURVE",
"60 6 CURVE SMOOTH",
"175 230 LINE SMOOTH",
"177 235 OFFCURVE",
"180 238 OFFCURVE",
"186 238 CURVE SMOOTH",
"508 238 LINE SMOOTH",
"514 238 OFFCURVE",
"515 237 OFFCURVE",
"516 232 CURVE SMOOTH",
"567 9 LINE SMOOTH",
"567 3 OFFCURVE",
"572 0 OFFCURVE",
"579 0 CURVE SMOOTH",
"603 0 LINE SMOOTH",
"610 0 OFFCURVE",
"612 3 OFFCURVE",
"611 9 CURVE SMOOTH",
"449 731 LINE SMOOTH",
"449 738 OFFCURVE",
"443 742 OFFCURVE",
"433 742 CURVE SMOOTH",
"400 742 LINE SMOOTH",
"391 742 OFFCURVE",
"388 740 OFFCURVE",
"384 732 CURVE SMOOTH",
"16 10 LINE SMOOTH",
"14 4 OFFCURVE",
"18 0 OFFCURVE",
"24 0 CURVE SMOOTH"
);
},
{
closed = 1;
nodes = (
"199 278 OFFCURVE",
"199 281 OFFCURVE",
"203 290 CURVE SMOOTH",
"402 676 LINE SMOOTH",
"408 690 OFFCURVE",
"413 692 OFFCURVE",
"416 679 CURVE SMOOTH",
"505 289 LINE SMOOTH",
"506 283 OFFCURVE",
"505 278 OFFCURVE",
"497 278 CURVE SMOOTH",
"204 278 LINE SMOOTH"
);
}
);
};
layerId = "3FD4CC56-10BC-4177-A1EC-581F65825651";
paths = (
{
closed = 1;
nodes = (
"49 0 LINE SMOOTH",
"55 0 OFFCURVE",
"58 1 OFFCURVE",
"60 6 CURVE SMOOTH",
"175 230 LINE SMOOTH",
"177 235 OFFCURVE",
"180 238 OFFCURVE",
"186 238 CURVE SMOOTH",
"508 238 LINE SMOOTH",
"514 238 OFFCURVE",
"515 237 OFFCURVE",
"516 232 CURVE SMOOTH",
"567 9 LINE SMOOTH",
"567 3 OFFCURVE",
"572 0 OFFCURVE",
"579 0 CURVE SMOOTH",
"603 0 LINE SMOOTH",
"610 0 OFFCURVE",
"612 3 OFFCURVE",
"611 9 CURVE SMOOTH",
"449 731 LINE SMOOTH",
"449 738 OFFCURVE",
"443 742 OFFCURVE",
"433 742 CURVE SMOOTH",
"400 742 LINE SMOOTH",
"391 742 OFFCURVE",
"388 740 OFFCURVE",
"384 732 CURVE SMOOTH",
"16 10 LINE SMOOTH",
"14 4 OFFCURVE",
"18 0 OFFCURVE",
"24 0 CURVE SMOOTH"
);
},
{
closed = 1;
nodes = (
"199 278 OFFCURVE",
"199 281 OFFCURVE",
"203 290 CURVE SMOOTH",
"402 676 LINE SMOOTH",
"408 690 OFFCURVE",
"413 692 OFFCURVE",
"416 679 CURVE SMOOTH",
"505 289 LINE SMOOTH",
"506 283 OFFCURVE",
"505 278 OFFCURVE",
"497 278 CURVE SMOOTH",
"204 278 LINE SMOOTH"
);
}
);
width = 700;
},
{
anchors = (
{
name = bottom;
position = "{363, 0}";
},
{
name = ogonek;
position = "{710, 9}";
},
{
name = top;
position = "{462, 742}";
}
);
background = {
anchors = (
{
name = bottom;
position = "{363, 0}";
},
{
name = ogonek;
position = "{710, 9}";
},
{
name = top;
position = "{462, 742}";
}
);
paths = (
{
closed = 1;
nodes = (
"162 0 LINE SMOOTH",
"176 0 OFFCURVE",
"180 2 OFFCURVE",
"184 10 CURVE SMOOTH",
"244 131 LINE SMOOTH",
"249 140 OFFCURVE",
"253 144 OFFCURVE",
"263 144 CURVE SMOOTH",
"473 144 LINE SMOOTH",
"482 144 OFFCURVE",
"485 142 OFFCURVE",
"486 135 CURVE SMOOTH",
"509 22 LINE SMOOTH",
"512 9 OFFCURVE",
"518 0 OFFCURVE",
"528 0 CURVE SMOOTH",
"724 0 LINE SMOOTH",
"739 0 OFFCURVE",
"742 15 OFFCURVE",
"739 29 CURVE SMOOTH",
"594 710 LINE SMOOTH",
"591 726 OFFCURVE",
"586 742 OFFCURVE",
"569 742 CURVE SMOOTH",
"372 742 LINE SMOOTH",
"354 742 OFFCURVE",
"342 740 OFFCURVE",
"334 724 CURVE SMOOTH",
"-5 42 LINE SMOOTH",
"-20 12 OFFCURVE",
"-19 0 OFFCURVE",
"-4 0 CURVE SMOOTH"
);
},
{
closed = 1;
nodes = (
"320 314 OFFCURVE",
"317 317 OFFCURVE",
"323 330 CURVE SMOOTH",
"406 502 LINE SMOOTH",
"412 514 OFFCURVE",
"420 514 OFFCURVE",
"422 501 CURVE SMOOTH",
"458 334 LINE SMOOTH",
"461 321 OFFCURVE",
"457 314 OFFCURVE",
"446 314 CURVE SMOOTH",
"332 314 LINE SMOOTH"
);
}
);
};
layerId = "945F4A85-7B75-430B-91A8-74C2C4AC9571";
paths = (
{
closed = 1;
nodes = (
"162 0 LINE SMOOTH",
"176 0 OFFCURVE",
"180 2 OFFCURVE",
"184 10 CURVE SMOOTH",
"244 131 LINE SMOOTH",
"249 140 OFFCURVE",
"253 144 OFFCURVE",
"263 144 CURVE SMOOTH",
"473 144 LINE SMOOTH",
"482 144 OFFCURVE",
"485 142 OFFCURVE",
"486 135 CURVE SMOOTH",
"509 22 LINE SMOOTH",
"512 9 OFFCURVE",
"518 0 OFFCURVE",
"528 0 CURVE SMOOTH",
"724 0 LINE SMOOTH",
"739 0 OFFCURVE",
"742 15 OFFCURVE",
"739 29 CURVE SMOOTH",
"594 710 LINE SMOOTH",
"591 726 OFFCURVE",
"586 742 OFFCURVE",
"569 742 CURVE SMOOTH",
"372 742 LINE SMOOTH",
"354 742 OFFCURVE",
"342 740 OFFCURVE",
"334 724 CURVE SMOOTH",
"-5 42 LINE SMOOTH",
"-20 12 OFFCURVE",
"-19 0 OFFCURVE",
"-4 0 CURVE SMOOTH"
);
},
{
closed = 1;
nodes = (
"320 314 OFFCURVE",
"317 317 OFFCURVE",
"323 330 CURVE SMOOTH",
"406 502 LINE SMOOTH",
"412 514 OFFCURVE",
"420 514 OFFCURVE",
"422 501 CURVE SMOOTH",
"458 334 LINE SMOOTH",
"461 321 OFFCURVE",
"457 314 OFFCURVE",
"446 314 CURVE SMOOTH",
"332 314 LINE SMOOTH"
);
}
);
width = 799;
}
);
leftKerningGroup = A;
rightKerningGroup = A;
unicode = 0041;
},
{
color = 4;
glyphname = Aringacute;
lastChange = "2022-07-20 12:08:46 +0000";
layers = (
{
background = {
paths = (
{
closed = 1;
nodes = (
"163 0 LINE SMOOTH",
"177 0 OFFCURVE",
"184 7 OFFCURVE",
"187 15 CURVE SMOOTH",
"225 133 LINE SMOOTH",
"227 140 OFFCURVE",
"232 144 OFFCURVE",
"240 144 CURVE SMOOTH",
"441 144 LINE SMOOTH",
"451 144 OFFCURVE",
"453 139 OFFCURVE",
"456 132 CURVE SMOOTH",
"492 17 LINE SMOOTH",
"496 4 OFFCURVE",
"504 0 OFFCURVE",
"514 0 CURVE SMOOTH",
"710 0 LINE SMOOTH",
"725 0 OFFCURVE",
"729 20 OFFCURVE",
"724 34 CURVE SMOOTH",
"492 715 LINE SMOOTH",
"487 731 OFFCURVE",
"474 742 OFFCURVE",
"457 742 CURVE SMOOTH",
"259 742 LINE SMOOTH",
"242 742 OFFCURVE",
"235 735 OFFCURVE",
"230 719 CURVE SMOOTH",
"-4 37 LINE SMOOTH",
"-12 15 OFFCURVE",
"-4 0 OFFCURVE",
"11 0 CURVE SMOOTH"
);
},
{
closed = 1;
nodes = (
"276 314 OFFCURVE",
"273 322 OFFCURVE",
"278 335 CURVE SMOOTH",
"334 505 LINE SMOOTH",
"336 512 OFFCURVE",
"342 512 OFFCURVE",
"345 505 CURVE SMOOTH",
"400 334 LINE SMOOTH",
"404 321 OFFCURVE",
"402 314 OFFCURVE",
"391 314 CURVE SMOOTH",
"288 314 LINE SMOOTH"
);
},
{
closed = 1;
nodes = (
"422 693 OFFCURVE",
"471 734 OFFCURVE",
"471 796 CURVE SMOOTH",
"471 856 OFFCURVE",
"422 899 OFFCURVE",
"361 899 CURVE SMOOTH",
"301 899 OFFCURVE",
"251 857 OFFCURVE",
"251 798 CURVE SMOOTH",
"251 735 OFFCURVE",
"300 693 OFFCURVE",
"361 693 CURVE SMOOTH"
);
},
{
closed = 1;
nodes = (
"334 746 OFFCURVE",
"311 769 OFFCURVE",
"311 795 CURVE SMOOTH",
"311 822 OFFCURVE",
"334 842 OFFCURVE",
"360 842 CURVE SMOOTH",
"387 842 OFFCURVE",
"408 822 OFFCURVE",
"408 795 CURVE SMOOTH",
"408 769 OFFCURVE",
"387 746 OFFCURVE",
"360 746 CURVE SMOOTH"
);
},
{
closed = 1;
nodes = (
"404 875 LINE",
"429 935 LINE SMOOTH",
"435 949 OFFCURVE",
"431 964 OFFCURVE",
"415 964 CURVE SMOOTH",
"370 964 LINE SMOOTH",
"351 964 OFFCURVE",
"338 958 OFFCURVE",
"332 933 CURVE SMOOTH",
"318 875 LINE"
);
}
);
};
layerId = "258ED206-D907-4350-8EBA-CBDDA1C16BF7";
paths = (
{
closed = 1;
nodes = (
"163 0 LINE SMOOTH",
"177 0 OFFCURVE",
"184 7 OFFCURVE",
"187 15 CURVE SMOOTH",
"225 133 LINE SMOOTH",
"227 140 OFFCURVE",
"232 144 OFFCURVE",
"240 144 CURVE SMOOTH",
"441 144 LINE SMOOTH",
"451 144 OFFCURVE",
"453 139 OFFCURVE",
"456 132 CURVE SMOOTH",
"492 17 LINE SMOOTH",
"496 4 OFFCURVE",
"504 0 OFFCURVE",
"514 0 CURVE SMOOTH",
"710 0 LINE SMOOTH",
"725 0 OFFCURVE",
"729 20 OFFCURVE",
"724 34 CURVE SMOOTH",
"492 715 LINE SMOOTH",
"487 731 OFFCURVE",
"474 742 OFFCURVE",
"457 742 CURVE SMOOTH",
"259 742 LINE SMOOTH",
"242 742 OFFCURVE",
"235 735 OFFCURVE",
"230 719 CURVE SMOOTH",
"-4 37 LINE SMOOTH",
"-12 15 OFFCURVE",
"-4 0 OFFCURVE",
"11 0 CURVE SMOOTH"
);
},
{
closed = 1;
nodes = (
"276 314 OFFCURVE",
"273 322 OFFCURVE",
"278 335 CURVE SMOOTH",
"334 505 LINE SMOOTH",
"336 512 OFFCURVE",
"342 512 OFFCURVE",
"345 505 CURVE SMOOTH",
"400 334 LINE SMOOTH",
"404 321 OFFCURVE",
"402 314 OFFCURVE",
"391 314 CURVE SMOOTH",
"288 314 LINE SMOOTH"
);
},
{
closed = 1;
nodes = (
"422 693 OFFCURVE",
"471 734 OFFCURVE",
"471 796 CURVE SMOOTH",
"471 856 OFFCURVE",
"422 899 OFFCURVE",
"361 899 CURVE SMOOTH",
"301 899 OFFCURVE",
"251 857 OFFCURVE",
"251 798 CURVE SMOOTH",
"251 735 OFFCURVE",
"300 693 OFFCURVE",
"361 693 CURVE SMOOTH"
);
},
{
closed = 1;
nodes = (
"334 746 OFFCURVE",
"311 769 OFFCURVE",
"311 795 CURVE SMOOTH",
"311 822 OFFCURVE",
"334 842 OFFCURVE",
"360 842 CURVE SMOOTH",
"387 842 OFFCURVE",
"408 822 OFFCURVE",
"408 795 CURVE SMOOTH",
"408 769 OFFCURVE",
"387 746 OFFCURVE",
"360 746 CURVE SMOOTH"
);
},
{
closed = 1;
nodes = (
"404 875 LINE",
"429 935 LINE SMOOTH",
"435 949 OFFCURVE",
"431 964 OFFCURVE",
"415 964 CURVE SMOOTH",
"370 964 LINE SMOOTH",
"351 964 OFFCURVE",
"338 958 OFFCURVE",
"332 933 CURVE SMOOTH",
"318 875 LINE"
);
}
);
width = 710;
},
{
background = {
paths = (
{
closed = 1;
nodes = (
"69 0 LINE SMOOTH",
"75 0 OFFCURVE",
"78 2 OFFCURVE",
"80 7 CURVE",
"157 231 LINE SMOOTH",
"159 236 OFFCURVE",
"161 238 OFFCURVE",
"167 238 CURVE SMOOTH",
"463 238 LINE SMOOTH",
"469 238 OFFCURVE",
"471 236 OFFCURVE",
"473 231 CURVE SMOOTH",
"549 8 LINE SMOOTH",
"551 2 OFFCURVE",
"554 0 OFFCURVE",
"561 0 CURVE SMOOTH",
"588 0 LINE SMOOTH",
"595 0 OFFCURVE",
"598 4 OFFCURVE",
"596 10 CURVE SMOOTH",
"353 732 LINE",
"351 739 OFFCURVE",
"345 742 OFFCURVE",
"335 742 CURVE SMOOTH",
"303 742 LINE SMOOTH",
"294 742 OFFCURVE",
"290 739 OFFCURVE",
"287 731 CURVE SMOOTH",
"40 9 LINE",
"38 4 OFFCURVE",
"41 0 OFFCURVE",
"47 0 CURVE SMOOTH"
);
},
{
closed = 1;
nodes = (
"173 278 OFFCURVE",
"172 279 OFFCURVE",
"175 286 CURVE SMOOTH",
"308 677 LINE SMOOTH",
"313 691 OFFCURVE",
"319 691 OFFCURVE",
"323 678 CURVE SMOOTH",
"455 288 LINE SMOOTH",
"457 282 OFFCURVE",
"456 278 OFFCURVE",
"448 278 CURVE SMOOTH",
"179 278 LINE SMOOTH"
);
},
{
closed = 1;
nodes = (
"374 702 OFFCURVE",
"418 745 OFFCURVE",
"418 802 CURVE SMOOTH",
"418 857 OFFCURVE",
"374 900 OFFCURVE",
"318 900 CURVE SMOOTH",
"263 900 OFFCURVE",
"218 857 OFFCURVE",
"218 804 CURVE SMOOTH",
"218 746 OFFCURVE",
"262 702 OFFCURVE",
"318 702 CURVE SMOOTH"
);
},
{
closed = 1;
nodes = (
"286 742 OFFCURVE",
"258 770 OFFCURVE",
"258 801 CURVE SMOOTH",
"258 836 OFFCURVE",
"286 860 OFFCURVE",
"317 860 CURVE SMOOTH",
"350 860 OFFCURVE",
"375 836 OFFCURVE",
"375 801 CURVE SMOOTH",
"375 770 OFFCURVE",
"350 742 OFFCURVE",
"317 742 CURVE SMOOTH"
);
},
{
closed = 1;
nodes = (
"341 875 LINE",
"372 948 LINE SMOOTH",
"376 958 OFFCURVE",
"373 964 OFFCURVE",
"362 964 CURVE SMOOTH",
"339 964 LINE SMOOTH",
"328 964 OFFCURVE",
"323 960 OFFCURVE",
"321 951 CURVE SMOOTH",
"303 875 LINE"
);
}
);
};
layerId = "91AB5BCA-6A50-42DA-B2F7-8181BF189245";
paths = (
{
closed = 1;
nodes = (
"69 0 LINE SMOOTH",
"75 0 OFFCURVE",
"78 2 OFFCURVE",
"80 7 CURVE",
"157 231 LINE SMOOTH",
"159 236 OFFCURVE",
"161 238 OFFCURVE",
"167 238 CURVE SMOOTH",
"463 238 LINE SMOOTH",
"469 238 OFFCURVE",
"471 236 OFFCURVE",
"473 231 CURVE SMOOTH",
"549 8 LINE SMOOTH",
"551 2 OFFCURVE",
"554 0 OFFCURVE",
"561 0 CURVE SMOOTH",
"588 0 LINE SMOOTH",
"595 0 OFFCURVE",
"598 4 OFFCURVE",
"596 10 CURVE SMOOTH",
"353 732 LINE",
"351 739 OFFCURVE",
"345 742 OFFCURVE",
"335 742 CURVE SMOOTH",
"303 742 LINE SMOOTH",
"294 742 OFFCURVE",
"290 739 OFFCURVE",
"287 731 CURVE SMOOTH",
"40 9 LINE",
"38 4 OFFCURVE",
"41 0 OFFCURVE",
"47 0 CURVE SMOOTH"
);
},
{
closed = 1;
nodes = (
"173 278 OFFCURVE",
"172 279 OFFCURVE",
"175 286 CURVE SMOOTH",
"308 677 LINE SMOOTH",
"313 691 OFFCURVE",
"319 691 OFFCURVE",
"323 678 CURVE SMOOTH",
"455 288 LINE SMOOTH",
"457 282 OFFCURVE",
"456 278 OFFCURVE",
"448 278 CURVE SMOOTH",
"179 278 LINE SMOOTH"
);
},
{
closed = 1;
nodes = (
"374 702 OFFCURVE",
"418 745 OFFCURVE",
"418 802 CURVE SMOOTH",
"418 857 OFFCURVE",
"374 900 OFFCURVE",
"318 900 CURVE SMOOTH",
"263 900 OFFCURVE",
"218 857 OFFCURVE",
"218 804 CURVE SMOOTH",
"218 746 OFFCURVE",
"262 702 OFFCURVE",
"318 702 CURVE SMOOTH"
);
},
{
closed = 1;
nodes = (
"286 742 OFFCURVE",
"258 770 OFFCURVE",
"258 801 CURVE SMOOTH",
"258 836 OFFCURVE",
"286 860 OFFCURVE",
"317 860 CURVE SMOOTH",
"350 860 OFFCURVE",
"375 836 OFFCURVE",
"375 801 CURVE SMOOTH",
"375 770 OFFCURVE",
"350 742 OFFCURVE",
"317 742 CURVE SMOOTH"
);
},
{
closed = 1;
nodes = (
"341 875 LINE",
"372 948 LINE SMOOTH",
"376 958 OFFCURVE",
"373 964 OFFCURVE",
"362 964 CURVE SMOOTH",
"339 964 LINE SMOOTH",
"328 964 OFFCURVE",
"323 960 OFFCURVE",
"321 951 CURVE SMOOTH",
"303 875 LINE"
);
}
);
width = 637;
},
{
background = {
paths = (
{
closed = 1;
nodes = (
"33 0 LINE SMOOTH",
"39 0 OFFCURVE",
"41 1 OFFCURVE",
"44 6 CURVE",
"153 230 LINE SMOOTH",
"155 235 OFFCURVE",
"158 238 OFFCURVE",
"164 238 CURVE SMOOTH",
"460 238 LINE SMOOTH",
"466 238 OFFCURVE",
"467 237 OFFCURVE",
"468 232 CURVE SMOOTH",
"514 9 LINE SMOOTH",
"514 3 OFFCURVE",
"518 0 OFFCURVE",
"525 0 CURVE SMOOTH",
"552 0 LINE SMOOTH",
"559 0 OFFCURVE",
"561 3 OFFCURVE",
"560 9 CURVE SMOOTH",
"417 731 LINE",
"417 738 OFFCURVE",
"411 742 OFFCURVE",
"401 742 CURVE SMOOTH",
"369 742 LINE SMOOTH",
"360 742 OFFCURVE",
"357 740 OFFCURVE",
"353 732 CURVE SMOOTH",
"3 10 LINE",
"1 5 OFFCURVE",
"5 0 OFFCURVE",
"11 0 CURVE SMOOTH"
);
},
{
closed = 1;
nodes = (
"174 278 OFFCURVE",
"174 278 OFFCURVE",
"178 285 CURVE SMOOTH",
"367 676 LINE SMOOTH",
"373 690 OFFCURVE",
"379 692 OFFCURVE",
"381 679 CURVE SMOOTH",
"459 289 LINE SMOOTH",
"460 283 OFFCURVE",
"457 278 OFFCURVE",
"449 278 CURVE SMOOTH",
"180 278 LINE SMOOTH"
);
},
{
closed = 1;
nodes = (
"436 702 OFFCURVE",
"485 744 OFFCURVE",
"493 800 CURVE SMOOTH",
"501 856 OFFCURVE",
"462 900 OFFCURVE",
"405 900 CURVE SMOOTH",
"351 900 OFFCURVE",
"301 858 OFFCURVE",
"294 806 CURVE SMOOTH",
"286 747 OFFCURVE",
"324 702 OFFCURVE",
"381 702 CURVE SMOOTH"
);
},
{
closed = 1;
nodes = (
"352 742 OFFCURVE",
"329 769 OFFCURVE",
"333 799 CURVE SMOOTH",
"338 835 OFFCURVE",
"371 860 OFFCURVE",
"403 860 CURVE SMOOTH",
"435 860 OFFCURVE",
"455 837 OFFCURVE",
"451 803 CURVE SMOOTH",
"446 771 OFFCURVE",
"416 742 OFFCURVE",
"382 742 CURVE SMOOTH"
);
},
{
closed = 1;
nodes = (
"427 875 LINE",
"469 947 LINE SMOOTH",
"473 957 OFFCURVE",
"470 964 OFFCURVE",
"459 964 CURVE SMOOTH",
"436 964 LINE SMOOTH",
"425 964 OFFCURVE",
"421 961 OFFCURVE",
"418 952 CURVE SMOOTH",
"389 875 LINE"
);
}
);
};
layerId = "3FD4CC56-10BC-4177-A1EC-581F65825651";
paths = (
{
closed = 1;
nodes = (
"33 0 LINE SMOOTH",
"39 0 OFFCURVE",
"41 1 OFFCURVE",
"44 6 CURVE",
"153 230 LINE SMOOTH",
"155 235 OFFCURVE",
"158 238 OFFCURVE",
"164 238 CURVE SMOOTH",
"460 238 LINE SMOOTH",
"466 238 OFFCURVE",
"467 237 OFFCURVE",
"468 232 CURVE SMOOTH",
"514 9 LINE SMOOTH",
"514 3 OFFCURVE",
"518 0 OFFCURVE",
"525 0 CURVE SMOOTH",
"552 0 LINE SMOOTH",
"559 0 OFFCURVE",
"561 3 OFFCURVE",
"560 9 CURVE SMOOTH",
"417 731 LINE",
"417 738 OFFCURVE",
"411 742 OFFCURVE",
"401 742 CURVE SMOOTH",
"369 742 LINE SMOOTH",
"360 742 OFFCURVE",
"357 740 OFFCURVE",
"353 732 CURVE SMOOTH",
"3 10 LINE",
"1 5 OFFCURVE",
"5 0 OFFCURVE",
"11 0 CURVE SMOOTH"
);
},
{
closed = 1;
nodes = (
"174 278 OFFCURVE",
"174 278 OFFCURVE",
"178 285 CURVE SMOOTH",
"367 676 LINE SMOOTH",
"373 690 OFFCURVE",
"379 692 OFFCURVE",
"381 679 CURVE SMOOTH",
"459 289 LINE SMOOTH",
"460 283 OFFCURVE",
"457 278 OFFCURVE",
"449 278 CURVE SMOOTH",
"180 278 LINE SMOOTH"
);
},
{
closed = 1;
nodes = (
"436 702 OFFCURVE",
"485 744 OFFCURVE",
"493 800 CURVE SMOOTH",
"501 856 OFFCURVE",
"462 900 OFFCURVE",
"405 900 CURVE SMOOTH",
"351 900 OFFCURVE",
"301 858 OFFCURVE",
"294 806 CURVE SMOOTH",
"286 747 OFFCURVE",
"324 702 OFFCURVE",
"381 702 CURVE SMOOTH"
);
},
{
closed = 1;
nodes = (
"352 742 OFFCURVE",
"329 769 OFFCURVE",
"333 799 CURVE SMOOTH",
"338 835 OFFCURVE",
"371 860 OFFCURVE",
"403 860 CURVE SMOOTH",
"435 860 OFFCURVE",
"455 837 OFFCURVE",
"451 803 CURVE SMOOTH",
"446 771 OFFCURVE",
"416 742 OFFCURVE",
"382 742 CURVE SMOOTH"
);
},
{
closed = 1;
nodes = (
"427 875 LINE",
"469 947 LINE SMOOTH",
"473 957 OFFCURVE",
"470 964 OFFCURVE",
"459 964 CURVE SMOOTH",
"436 964 LINE SMOOTH",
"425 964 OFFCURVE",
"421 961 OFFCURVE",
"418 952 CURVE SMOOTH",
"389 875 LINE"
);
}
);
width = 637;
},
{
background = {
paths = (
{
closed = 1;
nodes = (
"130 0 LINE SMOOTH",
"144 0 OFFCURVE",
"148 2 OFFCURVE",
"152 10 CURVE SMOOTH",
"208 127 LINE SMOOTH",
"210 134 OFFCURVE",
"219 144 OFFCURVE",
"227 144 CURVE SMOOTH",
"428 144 LINE SMOOTH",
"438 144 OFFCURVE",
"438 144 OFFCURVE",
"440 137 CURVE SMOOTH",
"460 22 LINE SMOOTH",
"461 9 OFFCURVE",
"471 0 OFFCURVE",
"481 0 CURVE SMOOTH",
"677 0 LINE SMOOTH",
"692 0 OFFCURVE",
"693 15 OFFCURVE",
"690 29 CURVE SMOOTH",
"553 710 LINE SMOOTH",
"551 726 OFFCURVE",
"537 742 OFFCURVE",
"520 742 CURVE SMOOTH",
"322 742 LINE SMOOTH",
"305 742 OFFCURVE",
"301 740 OFFCURVE",
"294 724 CURVE SMOOTH",
"-37 42 LINE SMOOTH",
"-47 20 OFFCURVE",
"-37 0 OFFCURVE",
"-22 0 CURVE SMOOTH"
);
},
{
closed = 1;
nodes = (
"279 314 OFFCURVE",
"281 317 OFFCURVE",
"288 330 CURVE SMOOTH",
"369 499 LINE SMOOTH",
"371 506 OFFCURVE",
"379 517 OFFCURVE",
"381 510 CURVE SMOOTH",
"412 339 LINE SMOOTH",
"414 326 OFFCURVE",
"405 314 OFFCURVE",
"394 314 CURVE SMOOTH",
"291 314 LINE SMOOTH"
);
},
{
closed = 1;
nodes = (
"486 693 OFFCURVE",
"536 728 OFFCURVE",
"544 785 CURVE SMOOTH",
"553 850 OFFCURVE",
"507 899 OFFCURVE",
"442 899 CURVE SMOOTH",
"386 899 OFFCURVE",
"335 863 OFFCURVE",
"327 809 CURVE SMOOTH",
"318 741 OFFCURVE",
"364 693 OFFCURVE",
"429 693 CURVE SMOOTH"
);
},
{
closed = 1;
nodes = (
"398 746 OFFCURVE",
"381 763 OFFCURVE",
"384 784 CURVE SMOOTH",
"388 816 OFFCURVE",
"419 842 OFFCURVE",
"449 842 CURVE SMOOTH",
"472 842 OFFCURVE",
"487 828 OFFCURVE",
"484 806 CURVE SMOOTH",
"480 775 OFFCURVE",
"451 746 OFFCURVE",
"420 746 CURVE SMOOTH"
);
},
{
closed = 1;
nodes = (
"491 875 LINE",
"525 930 LINE SMOOTH",
"531 944 OFFCURVE",
"525 964 OFFCURVE",
"509 964 CURVE SMOOTH",
"464 964 LINE SMOOTH",
"445 964 OFFCURVE",
"435 963 OFFCURVE",
"426 938 CURVE SMOOTH",
"403 875 LINE"
);
}
);
};
layerId = "945F4A85-7B75-430B-91A8-74C2C4AC9571";
paths = (
{
closed = 1;
nodes = (
"130 0 LINE SMOOTH",
"144 0 OFFCURVE",
"148 2 OFFCURVE",
"152 10 CURVE SMOOTH",
"208 127 LINE SMOOTH",
"210 134 OFFCURVE",
"219 144 OFFCURVE",
"227 144 CURVE SMOOTH",
"428 144 LINE SMOOTH",
"438 144 OFFCURVE",
"438 144 OFFCURVE",
"440 137 CURVE SMOOTH",
"460 22 LINE SMOOTH",
"461 9 OFFCURVE",
"471 0 OFFCURVE",
"481 0 CURVE SMOOTH",
"677 0 LINE SMOOTH",
"692 0 OFFCURVE",
"693 15 OFFCURVE",
"690 29 CURVE SMOOTH",
"553 710 LINE SMOOTH",
"551 726 OFFCURVE",
"537 742 OFFCURVE",
"520 742 CURVE SMOOTH",
"322 742 LINE SMOOTH",
"305 742 OFFCURVE",
"301 740 OFFCURVE",
"294 724 CURVE SMOOTH",
"-37 42 LINE SMOOTH",
"-47 20 OFFCURVE",
"-37 0 OFFCURVE",
"-22 0 CURVE SMOOTH"
);
},
{
closed = 1;
nodes = (
"279 314 OFFCURVE",
"281 317 OFFCURVE",
"288 330 CURVE SMOOTH",
"369 499 LINE SMOOTH",
"371 506 OFFCURVE",
"379 517 OFFCURVE",
"381 510 CURVE SMOOTH",
"412 339 LINE SMOOTH",
"414 326 OFFCURVE",
"405 314 OFFCURVE",
"394 314 CURVE SMOOTH",
"291 314 LINE SMOOTH"
);
},
{
closed = 1;
nodes = (
"486 693 OFFCURVE",
"536 728 OFFCURVE",
"544 785 CURVE SMOOTH",
"553 850 OFFCURVE",
"507 899 OFFCURVE",
"442 899 CURVE SMOOTH",
"386 899 OFFCURVE",
"335 863 OFFCURVE",
"327 809 CURVE SMOOTH",
"318 741 OFFCURVE",
"364 693 OFFCURVE",
"429 693 CURVE SMOOTH"
);
},
{
closed = 1;
nodes = (
"398 746 OFFCURVE",
"381 763 OFFCURVE",
"384 784 CURVE SMOOTH",
"388 816 OFFCURVE",
"419 842 OFFCURVE",
"449 842 CURVE SMOOTH",
"472 842 OFFCURVE",
"487 828 OFFCURVE",
"484 806 CURVE SMOOTH",
"480 775 OFFCURVE",
"451 746 OFFCURVE",
"420 746 CURVE SMOOTH"
);
},
{
closed = 1;
nodes = (
"491 875 LINE",
"525 930 LINE SMOOTH",
"531 944 OFFCURVE",
"525 964 OFFCURVE",
"509 964 CURVE SMOOTH",
"464 964 LINE SMOOTH",
"445 964 OFFCURVE",
"435 963 OFFCURVE",
"426 938 CURVE SMOOTH",
"403 875 LINE"
);
}
);
width = 710;
}
);
leftKerningGroup = A;
rightKerningGroup = A;
unicode = 01FA;
},
{
color = 4;
glyphname = AE;
lastChange = "2022-07-20 12:08:46 +0000";
layers = (
{
anchors = (
{
name = top;
position = "{721, 742}";
}
);
background = {
anchors = (
{
name = top;
position = "{721, 742}";
}
);
paths = (
{
closed = 1;
nodes = (
"192 0 LINE SMOOTH",
"206 0 OFFCURVE",
"214 7 OFFCURVE",
"218 15 CURVE SMOOTH",
"277 133 LINE",
"280 140 OFFCURVE",
"286 144 OFFCURVE",
"294 144 CURVE SMOOTH",
"495 144 LINE SMOOTH",
"505 144 OFFCURVE",
"508 139 OFFCURVE",
"508 130 CURVE SMOOTH",
"508 25 LINE SMOOTH",
"508 8 OFFCURVE",
"515 0 OFFCURVE",
"535 0 CURVE SMOOTH",
"1070 0 LINE SMOOTH",
"1087 0 OFFCURVE",
"1094 10 OFFCURVE",
"1094 22 CURVE SMOOTH",
"1094 145 LINE SMOOTH",
"1094 159 OFFCURVE",
"1086 164 OFFCURVE",
"1072 164 CURVE SMOOTH",
"747 164 LINE SMOOTH",
"738 164 OFFCURVE",
"735 167 OFFCURVE",
"735 178 CURVE SMOOTH",
"735 278 LINE SMOOTH",
"735 286 OFFCURVE",
"741 292 OFFCURVE",
"751 292 CURVE SMOOTH",
"936 292 LINE SMOOTH",
"949 292 OFFCURVE",
"954 300 OFFCURVE",
"954 309 CURVE SMOOTH",
"954 433 LINE SMOOTH",
"954 446 OFFCURVE",
"947 453 OFFCURVE",
"933 453 CURVE SMOOTH",
"753 453 LINE SMOOTH",
"743 453 OFFCURVE",
"735 460 OFFCURVE",
"735 474 CURVE SMOOTH",
"735 559 LINE SMOOTH",
"735 572 OFFCURVE",
"743 578 OFFCURVE",
"758 578 CURVE SMOOTH",
"1058 578 LINE SMOOTH",
"1076 578 OFFCURVE",
"1084 589 OFFCURVE",
"1084 605 CURVE SMOOTH",
"1085 721 LINE SMOOTH",
"1085 734 OFFCURVE",
"1079 742 OFFCURVE",
"1067 742 CURVE SMOOTH",
"418 742 LINE SMOOTH",
"401 742 OFFCURVE",
"393 735 OFFCURVE",
"385 719 CURVE SMOOTH",
"31 37 LINE SMOOTH",
"19 15 OFFCURVE",
"25 0 OFFCURVE",
"40 0 CURVE SMOOTH"
);
},
{
closed = 1;
nodes = (
"360 314 OFFCURVE",
"358 322 OFFCURVE",
"366 335 CURVE",
"468 537 LINE SMOOTH",
"484 567 OFFCURVE",
"508 565 OFFCURVE",
"508 535 CURVE SMOOTH",
"508 334 LINE SMOOTH",
"508 321 OFFCURVE",
"501 314 OFFCURVE",
"489 314 CURVE SMOOTH",
"372 314 LINE SMOOTH"
);
}
);
};
layerId = "258ED206-D907-4350-8EBA-CBDDA1C16BF7";
paths = (
{
closed = 1;
nodes = (
"192 0 LINE SMOOTH",
"206 0 OFFCURVE",
"214 7 OFFCURVE",
"218 15 CURVE SMOOTH",
"277 133 LINE",
"280 140 OFFCURVE",
"286 144 OFFCURVE",
"294 144 CURVE SMOOTH",
"495 144 LINE SMOOTH",
"505 144 OFFCURVE",
"508 139 OFFCURVE",
"508 130 CURVE SMOOTH",
"508 25 LINE SMOOTH",
"508 8 OFFCURVE",
"515 0 OFFCURVE",
"535 0 CURVE SMOOTH",
"1070 0 LINE SMOOTH",
"1087 0 OFFCURVE",
"1094 10 OFFCURVE",
"1094 22 CURVE SMOOTH",
"1094 145 LINE SMOOTH",
"1094 159 OFFCURVE",
"1086 164 OFFCURVE",
"1072 164 CURVE SMOOTH",
"747 164 LINE SMOOTH",
"738 164 OFFCURVE",
"735 167 OFFCURVE",
"735 178 CURVE SMOOTH",
"735 278 LINE SMOOTH",
"735 286 OFFCURVE",
"741 292 OFFCURVE",
"751 292 CURVE SMOOTH",
"936 292 LINE SMOOTH",
"949 292 OFFCURVE",
"954 300 OFFCURVE",
"954 309 CURVE SMOOTH",
"954 433 LINE SMOOTH",
"954 446 OFFCURVE",
"947 453 OFFCURVE",
"933 453 CURVE SMOOTH",
"753 453 LINE SMOOTH",
"743 453 OFFCURVE",
"735 460 OFFCURVE",
"735 474 CURVE SMOOTH",
"735 559 LINE SMOOTH",
"735 572 OFFCURVE",
"743 578 OFFCURVE",
"758 578 CURVE SMOOTH",
"1058 578 LINE SMOOTH",
"1076 578 OFFCURVE",
"1084 589 OFFCURVE",
"1084 605 CURVE SMOOTH",
"1085 721 LINE SMOOTH",
"1085 734 OFFCURVE",
"1079 742 OFFCURVE",
"1067 742 CURVE SMOOTH",
"418 742 LINE SMOOTH",
"401 742 OFFCURVE",
"393 735 OFFCURVE",
"385 719 CURVE SMOOTH",
"31 37 LINE SMOOTH",
"19 15 OFFCURVE",
"25 0 OFFCURVE",
"40 0 CURVE SMOOTH"
);
},
{
closed = 1;
nodes = (
"360 314 OFFCURVE",
"358 322 OFFCURVE",
"366 335 CURVE",
"468 537 LINE SMOOTH",
"484 567 OFFCURVE",
"508 565 OFFCURVE",
"508 535 CURVE SMOOTH",
"508 334 LINE SMOOTH",
"508 321 OFFCURVE",
"501 314 OFFCURVE",
"489 314 CURVE SMOOTH",
"372 314 LINE SMOOTH"
);
}
);
width = 1127;
},
{
anchors = (
{
name = top;
position = "{681, 742}";
}
);
background = {
anchors = (
{
name = top;
position = "{681, 742}";
}
);
paths = (
{
closed = 1;
nodes = (
"83 0 LINE SMOOTH",
"89 0 OFFCURVE",
"92 2 OFFCURVE",
"95 7 CURVE SMOOTH",
"224 231 LINE SMOOTH",
"227 236 OFFCURVE",
"230 238 OFFCURVE",
"236 238 CURVE SMOOTH",
"490 238 LINE SMOOTH",
"493 238 OFFCURVE",
"495 236 OFFCURVE",
"495 233 CURVE SMOOTH",
"495 10 LINE SMOOTH",
"495 2 OFFCURVE",
"497 0 OFFCURVE",
"504 0 CURVE SMOOTH",
"904 0 LINE SMOOTH",
"909 0 OFFCURVE",
"911 2 OFFCURVE",
"911 7 CURVE SMOOTH",
"911 33 LINE SMOOTH",
"911 39 OFFCURVE",
"909 40 OFFCURVE",
"903 40 CURVE SMOOTH",
"550 40 LINE SMOOTH",
"543 40 OFFCURVE",
"541 41 OFFCURVE",
"541 49 CURVE SMOOTH",
"541 346 LINE SMOOTH",
"541 354 OFFCURVE",
"543 355 OFFCURVE",
"550 355 CURVE SMOOTH",
"818 355 LINE SMOOTH",
"824 355 OFFCURVE",
"826 356 OFFCURVE",
"826 362 CURVE SMOOTH",
"826 388 LINE SMOOTH",
"826 393 OFFCURVE",
"824 395 OFFCURVE",
"819 395 CURVE SMOOTH",
"550 395 LINE SMOOTH",
"543 395 OFFCURVE",
"541 396 OFFCURVE",
"541 402 CURVE SMOOTH",
"541 693 LINE SMOOTH",
"541 701 OFFCURVE",
"543 702 OFFCURVE",
"550 702 CURVE SMOOTH",
"888 702 LINE SMOOTH",
"894 702 OFFCURVE",
"896 703 OFFCURVE",
"896 709 CURVE SMOOTH",
"896 735 LINE SMOOTH",
"896 740 OFFCURVE",
"894 742 OFFCURVE",
"889 742 CURVE SMOOTH",
"484 742 LINE SMOOTH",
"475 742 OFFCURVE",
"470 739 OFFCURVE",
"466 731 CURVE",
"53 9 LINE SMOOTH",
"50 4 OFFCURVE",
"52 0 OFFCURVE",
"58 0 CURVE SMOOTH"
);
},
{
closed = 1;
nodes = (
"249 278 OFFCURVE",
"248 279 OFFCURVE",
"252 286 CURVE SMOOTH",
"480 677 LINE SMOOTH",
"488 691 OFFCURVE",
"494 691 OFFCURVE",
"495 678 CURVE",
"495 287 LINE SMOOTH",
"495 282 OFFCURVE",
"493 278 OFFCURVE",
"487 278 CURVE SMOOTH",
"255 278 LINE SMOOTH"
);
}
);
};
layerId = "91AB5BCA-6A50-42DA-B2F7-8181BF189245";
paths = (
{
closed = 1;
nodes = (
"83 0 LINE SMOOTH",
"89 0 OFFCURVE",
"92 2 OFFCURVE",
"95 7 CURVE SMOOTH",
"224 231 LINE SMOOTH",
"227 236 OFFCURVE",
"230 238 OFFCURVE",
"236 238 CURVE SMOOTH",
"490 238 LINE SMOOTH",
"493 238 OFFCURVE",
"495 236 OFFCURVE",
"495 233 CURVE SMOOTH",
"495 10 LINE SMOOTH",
"495 2 OFFCURVE",
"497 0 OFFCURVE",
"504 0 CURVE SMOOTH",
"904 0 LINE SMOOTH",
"909 0 OFFCURVE",
"911 2 OFFCURVE",
"911 7 CURVE SMOOTH",
"911 33 LINE SMOOTH",
"911 39 OFFCURVE",
"909 40 OFFCURVE",
"903 40 CURVE SMOOTH",
"550 40 LINE SMOOTH",
"543 40 OFFCURVE",
"541 41 OFFCURVE",
"541 49 CURVE SMOOTH",
"541 346 LINE SMOOTH",
"541 354 OFFCURVE",
"543 355 OFFCURVE",
"550 355 CURVE SMOOTH",
"818 355 LINE SMOOTH",
"824 355 OFFCURVE",
"826 356 OFFCURVE",
"826 362 CURVE SMOOTH",
"826 388 LINE SMOOTH",
"826 393 OFFCURVE",
"824 395 OFFCURVE",
"819 395 CURVE SMOOTH",
"550 395 LINE SMOOTH",
"543 395 OFFCURVE",
"541 396 OFFCURVE",
"541 402 CURVE SMOOTH",
"541 693 LINE SMOOTH",
"541 701 OFFCURVE",
"543 702 OFFCURVE",
"550 702 CURVE SMOOTH",
"888 702 LINE SMOOTH",
"894 702 OFFCURVE",
"896 703 OFFCURVE",
"896 709 CURVE SMOOTH",
"896 735 LINE SMOOTH",
"896 740 OFFCURVE",
"894 742 OFFCURVE",
"889 742 CURVE SMOOTH",
"484 742 LINE SMOOTH",
"475 742 OFFCURVE",
"470 739 OFFCURVE",
"466 731 CURVE",
"53 9 LINE SMOOTH",
"50 4 OFFCURVE",
"52 0 OFFCURVE",
"58 0 CURVE SMOOTH"
);
},
{
closed = 1;
nodes = (
"249 278 OFFCURVE",
"248 279 OFFCURVE",
"252 286 CURVE SMOOTH",
"480 677 LINE SMOOTH",
"488 691 OFFCURVE",
"494 691 OFFCURVE",
"495 678 CURVE",
"495 287 LINE SMOOTH",
"495 282 OFFCURVE",
"493 278 OFFCURVE",
"487 278 CURVE SMOOTH",
"255 278 LINE SMOOTH"
);
}
);
width = 963;
},
{
anchors = (
{
name = top;
position = "{749, 742}";
}
);
background = {
anchors = (
{
name = top;
position = "{749, 742}";
}
);
paths = (
{
closed = 1;
nodes = (
"48 0 LINE SMOOTH",
"54 0 OFFCURVE",
"57 1 OFFCURVE",
"61 6 CURVE SMOOTH",
"221 230 LINE SMOOTH",
"225 235 OFFCURVE",
"228 238 OFFCURVE",
"234 238 CURVE SMOOTH",
"488 238 LINE SMOOTH",
"491 238 OFFCURVE",
"492 237 OFFCURVE",
"492 234 CURVE SMOOTH",
"460 11 LINE SMOOTH",
"459 3 OFFCURVE",
"462 0 OFFCURVE",
"469 0 CURVE SMOOTH",
"869 0 LINE SMOOTH",
"874 0 OFFCURVE",
"875 1 OFFCURVE",
"876 6 CURVE SMOOTH",
"879 32 LINE SMOOTH",
"880 38 OFFCURVE",
"877 40 OFFCURVE",
"871 40 CURVE SMOOTH",
"518 40 LINE SMOOTH",
"511 40 OFFCURVE",
"510 40 OFFCURVE",
"512 48 CURVE SMOOTH",
"553 345 LINE SMOOTH",
"554 353 OFFCURVE",
"558 355 OFFCURVE",
"565 355 CURVE SMOOTH",
"833 355 LINE SMOOTH",
"839 355 OFFCURVE",
"840 355 OFFCURVE",
"840 361 CURVE SMOOTH",
"844 387 LINE SMOOTH",
"845 392 OFFCURVE",
"842 395 OFFCURVE",
"837 395 CURVE SMOOTH",
"568 395 LINE SMOOTH",
"561 395 OFFCURVE",
"560 395 OFFCURVE",
"561 401 CURVE SMOOTH",
"602 692 LINE SMOOTH",
"603 700 OFFCURVE",
"606 702 OFFCURVE",
"613 702 CURVE SMOOTH",
"951 702 LINE SMOOTH",
"957 702 OFFCURVE",
"958 702 OFFCURVE",
"959 708 CURVE SMOOTH",
"963 734 LINE SMOOTH",
"964 739 OFFCURVE",
"961 742 OFFCURVE",
"956 742 CURVE SMOOTH",
"551 742 LINE SMOOTH",
"542 742 OFFCURVE",
"538 740 OFFCURVE",
"533 732 CURVE",
"17 10 LINE SMOOTH",
"13 5 OFFCURVE",
"17 0 OFFCURVE",
"23 0 CURVE SMOOTH"
);
},
{
closed = 1;
nodes = (
"251 278 OFFCURVE",
"252 278 OFFCURVE",
"257 285 CURVE SMOOTH",
"540 676 LINE SMOOTH",
"550 690 OFFCURVE",
"555 692 OFFCURVE",
"554 679 CURVE",
"499 288 LINE SMOOTH",
"499 283 OFFCURVE",
"495 278 OFFCURVE",
"489 278 CURVE SMOOTH",
"257 278 LINE SMOOTH"
);
}
);
};
layerId = "3FD4CC56-10BC-4177-A1EC-581F65825651";
paths = (
{
closed = 1;
nodes = (
"48 0 LINE SMOOTH",
"54 0 OFFCURVE",
"57 1 OFFCURVE",
"61 6 CURVE SMOOTH",
"221 230 LINE SMOOTH",
"225 235 OFFCURVE",
"228 238 OFFCURVE",
"234 238 CURVE SMOOTH",
"488 238 LINE SMOOTH",
"491 238 OFFCURVE",
"492 237 OFFCURVE",
"492 234 CURVE SMOOTH",
"460 11 LINE SMOOTH",
"459 3 OFFCURVE",
"462 0 OFFCURVE",
"469 0 CURVE SMOOTH",
"869 0 LINE SMOOTH",
"874 0 OFFCURVE",
"875 1 OFFCURVE",
"876 6 CURVE SMOOTH",
"879 32 LINE SMOOTH",
"880 38 OFFCURVE",
"877 40 OFFCURVE",
"871 40 CURVE SMOOTH",
"518 40 LINE SMOOTH",
"511 40 OFFCURVE",
"510 40 OFFCURVE",
"512 48 CURVE SMOOTH",
"553 345 LINE SMOOTH",
"554 353 OFFCURVE",
"558 355 OFFCURVE",
"565 355 CURVE SMOOTH",
"833 355 LINE SMOOTH",
"839 355 OFFCURVE",
"840 355 OFFCURVE",
"840 361 CURVE SMOOTH",
"844 387 LINE SMOOTH",
"845 392 OFFCURVE",
"842 395 OFFCURVE",
"837 395 CURVE SMOOTH",
"568 395 LINE SMOOTH",
"561 395 OFFCURVE",
"560 395 OFFCURVE",
"561 401 CURVE SMOOTH",
"602 692 LINE SMOOTH",
"603 700 OFFCURVE",
"606 702 OFFCURVE",
"613 702 CURVE SMOOTH",
"951 702 LINE SMOOTH",
"957 702 OFFCURVE",
"958 702 OFFCURVE",
"959 708 CURVE SMOOTH",
"963 734 LINE SMOOTH",
"964 739 OFFCURVE",
"961 742 OFFCURVE",
"956 742 CURVE SMOOTH",
"551 742 LINE SMOOTH",
"542 742 OFFCURVE",
"538 740 OFFCURVE",
"533 732 CURVE",
"17 10 LINE SMOOTH",
"13 5 OFFCURVE",
"17 0 OFFCURVE",
"23 0 CURVE SMOOTH"
);
},
{
closed = 1;
nodes = (
"251 278 OFFCURVE",
"252 278 OFFCURVE",
"257 285 CURVE SMOOTH",
"540 676 LINE SMOOTH",
"550 690 OFFCURVE",
"555 692 OFFCURVE",
"554 679 CURVE",
"499 288 LINE SMOOTH",
"499 283 OFFCURVE",
"495 278 OFFCURVE",
"489 278 CURVE SMOOTH",
"257 278 LINE SMOOTH"
);
}
);
width = 964;
},
{
anchors = (
{
name = top;
position = "{784, 742}";
}
);
background = {
anchors = (
{
name = top;
position = "{784, 742}";
}
);
paths = (
{
closed = 1;
nodes = (
"155 0 LINE SMOOTH",
"169 0 OFFCURVE",
"175 2 OFFCURVE",
"180 10 CURVE SMOOTH",
"256 128 LINE",
"259 135 OFFCURVE",
"269 144 OFFCURVE",
"277 144 CURVE SMOOTH",
"478 144 LINE SMOOTH",
"488 144 OFFCURVE",
"487 145 OFFCURVE",
"486 136 CURVE SMOOTH",
"471 31 LINE SMOOTH",
"469 14 OFFCURVE",
"478 0 OFFCURVE",
"498 0 CURVE SMOOTH",
"1033 0 LINE SMOOTH",
"1050 0 OFFCURVE",
"1053 4 OFFCURVE",
"1055 16 CURVE SMOOTH",
"1072 139 LINE SMOOTH",
"1074 153 OFFCURVE",
"1064 164 OFFCURVE",
"1050 164 CURVE SMOOTH",
"725 164 LINE SMOOTH",
"716 164 OFFCURVE",
"716 161 OFFCURVE",
"718 172 CURVE SMOOTH",
"732 272 LINE SMOOTH",
"733 280 OFFCURVE",
"745 292 OFFCURVE",
"755 292 CURVE SMOOTH",
"940 292 LINE SMOOTH",
"953 292 OFFCURVE",
"954 294 OFFCURVE",
"955 303 CURVE SMOOTH",
"973 427 LINE SMOOTH",
"975 440 OFFCURVE",
"965 453 OFFCURVE",
"951 453 CURVE SMOOTH",
"771 453 LINE SMOOTH",
"761 453 OFFCURVE",
"758 454 OFFCURVE",
"760 468 CURVE SMOOTH",
"771 553 LINE SMOOTH",
"773 566 OFFCURVE",
"787 578 OFFCURVE",
"802 578 CURVE SMOOTH",
"1102 578 LINE SMOOTH",
"1120 578 OFFCURVE",
"1125 583 OFFCURVE",
"1127 599 CURVE SMOOTH",
"1144 715 LINE SMOOTH",
"1146 728 OFFCURVE",
"1138 742 OFFCURVE",
"1126 742 CURVE SMOOTH",
"477 742 LINE SMOOTH",
"460 742 OFFCURVE",
"454 740 OFFCURVE",
"444 724 CURVE SMOOTH",
"-7 42 LINE SMOOTH",
"-21 20 OFFCURVE",
"-12 0 OFFCURVE",
"3 0 CURVE SMOOTH"
);
},
{
closed = 1;
nodes = (
"359 314 OFFCURVE",
"363 317 OFFCURVE",
"373 330 CURVE",
"505 532 LINE SMOOTH",
"524 562 OFFCURVE",
"547 571 OFFCURVE",
"543 541 CURVE SMOOTH",
"515 340 LINE SMOOTH",
"513 327 OFFCURVE",
"500 314 OFFCURVE",
"488 314 CURVE SMOOTH",
"371 314 LINE SMOOTH"
);
}
);
};
layerId = "945F4A85-7B75-430B-91A8-74C2C4AC9571";
paths = (
{
closed = 1;
nodes = (
"155 0 LINE SMOOTH",
"169 0 OFFCURVE",
"175 2 OFFCURVE",
"180 10 CURVE SMOOTH",
"256 128 LINE",
"259 135 OFFCURVE",
"269 144 OFFCURVE",
"277 144 CURVE SMOOTH",
"478 144 LINE SMOOTH",
"488 144 OFFCURVE",
"487 145 OFFCURVE",
"486 136 CURVE SMOOTH",
"471 31 LINE SMOOTH",
"469 14 OFFCURVE",
"478 0 OFFCURVE",
"498 0 CURVE SMOOTH",
"1033 0 LINE SMOOTH",
"1050 0 OFFCURVE",
"1053 4 OFFCURVE",
"1055 16 CURVE SMOOTH",
"1072 139 LINE SMOOTH",
"1074 153 OFFCURVE",
"1064 164 OFFCURVE",
"1050 164 CURVE SMOOTH",
"725 164 LINE SMOOTH",
"716 164 OFFCURVE",
"716 161 OFFCURVE",
"718 172 CURVE SMOOTH",
"732 272 LINE SMOOTH",
"733 280 OFFCURVE",
"745 292 OFFCURVE",
"755 292 CURVE SMOOTH",
"940 292 LINE SMOOTH",
"953 292 OFFCURVE",
"954 294 OFFCURVE",
"955 303 CURVE SMOOTH",
"973 427 LINE SMOOTH",
"975 440 OFFCURVE",
"965 453 OFFCURVE",
"951 453 CURVE SMOOTH",
"771 453 LINE SMOOTH",
"761 453 OFFCURVE",
"758 454 OFFCURVE",
"760 468 CURVE SMOOTH",
"771 553 LINE SMOOTH",
"773 566 OFFCURVE",
"787 578 OFFCURVE",
"802 578 CURVE SMOOTH",
"1102 578 LINE SMOOTH",
"1120 578 OFFCURVE",
"1125 583 OFFCURVE",
"1127 599 CURVE SMOOTH",
"1144 715 LINE SMOOTH",
"1146 728 OFFCURVE",
"1138 742 OFFCURVE",
"1126 742 CURVE SMOOTH",
"477 742 LINE SMOOTH",
"460 742 OFFCURVE",
"454 740 OFFCURVE",
"444 724 CURVE SMOOTH",
"-7 42 LINE SMOOTH",
"-21 20 OFFCURVE",
"-12 0 OFFCURVE",
"3 0 CURVE SMOOTH"
);
},
{
closed = 1;
nodes = (
"359 314 OFFCURVE",
"363 317 OFFCURVE",
"373 330 CURVE",
"505 532 LINE SMOOTH",
"524 562 OFFCURVE",
"547 571 OFFCURVE",
"543 541 CURVE SMOOTH",
"515 340 LINE SMOOTH",
"513 327 OFFCURVE",
"500 314 OFFCURVE",
"488 314 CURVE SMOOTH",
"371 314 LINE SMOOTH"
);
}
);
width = 1123;
}
);
leftKerningGroup = AE;
leftMetricsKey = A;
rightKerningGroup = E;
rightMetricsKey = E;
unicode = 00C6;
},
{
color = 5;
glyphname = B;
lastChange = "2022-07-20 12:08:12 +0000";
layers = (
{
background = {
paths = (
{
closed = 1;
nodes = (
"391 0 LINE SMOOTH",
"607 0 OFFCURVE",
"710 65 OFFCURVE",
"710 202 CURVE SMOOTH",
"710 287 OFFCURVE",
"671 338 OFFCURVE",
"561 379 CURVE SMOOTH",
"558 380 OFFCURVE",
"558 385 OFFCURVE",
"561 386 CURVE SMOOTH",
"661 432 OFFCURVE",
"692 477 OFFCURVE",
"692 546 CURVE SMOOTH",
"692 675 OFFCURVE",
"582 742 OFFCURVE",
"375 742 CURVE SMOOTH",
"77 742 LINE SMOOTH",
"62 742 OFFCURVE",
"52 731 OFFCURVE",
"52 716 CURVE SMOOTH",
"52 22 LINE SMOOTH",
"52 10 OFFCURVE",
"61 0 OFFCURVE",
"75 0 CURVE SMOOTH"
);
},
{
closed = 1;
nodes = (
"283 150 OFFCURVE",
"279 157 OFFCURVE",
"279 172 CURVE SMOOTH",
"279 277 LINE SMOOTH",
"279 292 OFFCURVE",
"285 298 OFFCURVE",
"302 298 CURVE SMOOTH",
"391 298 LINE SMOOTH",
"441 298 OFFCURVE",
"474 268 OFFCURVE",
"474 227 CURVE SMOOTH",
"474 188 OFFCURVE",
"444 150 OFFCURVE",
"386 150 CURVE SMOOTH",
"296 150 LINE SMOOTH"
);
},
{
closed = 1;
nodes = (
"283 452 OFFCURVE",
"279 459 OFFCURVE",
"279 474 CURVE SMOOTH",
"279 572 LINE SMOOTH",
"279 587 OFFCURVE",
"285 592 OFFCURVE",
"302 592 CURVE SMOOTH",
"384 592 LINE SMOOTH",
"431 592 OFFCURVE",
"468 564 OFFCURVE",
"468 520 CURVE SMOOTH",
"468 481 OFFCURVE",
"438 452 OFFCURVE",
"391 452 CURVE SMOOTH",
"296 452 LINE SMOOTH"
);
}
);
};
layerId = "258ED206-D907-4350-8EBA-CBDDA1C16BF7";
paths = (
{
closed = 1;
nodes = (
"391 0 LINE SMOOTH",
"607 0 OFFCURVE",
"710 65 OFFCURVE",
"710 202 CURVE SMOOTH",
"710 287 OFFCURVE",
"671 338 OFFCURVE",
"561 379 CURVE SMOOTH",
"558 380 OFFCURVE",
"558 385 OFFCURVE",
"561 386 CURVE SMOOTH",
"661 432 OFFCURVE",
"692 477 OFFCURVE",
"692 546 CURVE SMOOTH",
"692 675 OFFCURVE",
"582 742 OFFCURVE",
"375 742 CURVE SMOOTH",
"77 742 LINE SMOOTH",
"62 742 OFFCURVE",
"52 731 OFFCURVE",
"52 716 CURVE SMOOTH",
"52 22 LINE SMOOTH",
"52 10 OFFCURVE",
"61 0 OFFCURVE",
"75 0 CURVE SMOOTH"
);
},
{
closed = 1;
nodes = (
"283 150 OFFCURVE",
"279 157 OFFCURVE",
"279 172 CURVE SMOOTH",
"279 277 LINE SMOOTH",
"279 292 OFFCURVE",
"285 298 OFFCURVE",
"302 298 CURVE SMOOTH",
"391 298 LINE SMOOTH",
"441 298 OFFCURVE",
"474 268 OFFCURVE",
"474 227 CURVE SMOOTH",
"474 188 OFFCURVE",
"444 150 OFFCURVE",
"386 150 CURVE SMOOTH",
"296 150 LINE SMOOTH"
);
},
{
closed = 1;
nodes = (
"283 452 OFFCURVE",
"279 459 OFFCURVE",
"279 474 CURVE SMOOTH",
"279 572 LINE SMOOTH",
"279 587 OFFCURVE",
"285 592 OFFCURVE",
"302 592 CURVE SMOOTH",
"384 592 LINE SMOOTH",
"431 592 OFFCURVE",
"468 564 OFFCURVE",
"468 520 CURVE SMOOTH",
"468 481 OFFCURVE",
"438 452 OFFCURVE",
"391 452 CURVE SMOOTH",
"296 452 LINE SMOOTH"
);
}
);
width = 739;
},
{
background = {
paths = (
{
closed = 1;
nodes = (
"331 0 LINE SMOOTH",
"506 0 OFFCURVE",
"609 65 OFFCURVE",
"609 197 CURVE SMOOTH",
"609 297 OFFCURVE",
"550 356 OFFCURVE",
"460 373 CURVE SMOOTH",
"454 374 OFFCURVE",
"454 380 OFFCURVE",
"460 382 CURVE SMOOTH",
"548 409 OFFCURVE",
"591 467 OFFCURVE",
"591 551 CURVE SMOOTH",
"591 675 OFFCURVE",
"494 742 OFFCURVE",
"328 742 CURVE SMOOTH",
"123 742 LINE SMOOTH",
"116 742 OFFCURVE",
"114 740 OFFCURVE",
"114 732 CURVE SMOOTH",
"114 8 LINE SMOOTH",
"114 3 OFFCURVE",
"117 0 OFFCURVE",
"122 0 CURVE SMOOTH"
);
},
{
closed = 1;
nodes = (
"162 40 OFFCURVE",
"160 43 OFFCURVE",
"160 50 CURVE SMOOTH",
"160 346 LINE SMOOTH",
"160 353 OFFCURVE",
"163 355 OFFCURVE",
"171 355 CURVE SMOOTH",
"340 355 LINE SMOOTH",
"465 355 OFFCURVE",
"561 311 OFFCURVE",
"561 191 CURVE SMOOTH",
"561 82 OFFCURVE",
"484 40 OFFCURVE",
"326 40 CURVE SMOOTH",
"167 40 LINE SMOOTH"
);
},
{
closed = 1;
nodes = (
"162 395 OFFCURVE",
"160 398 OFFCURVE",
"160 405 CURVE SMOOTH",
"160 694 LINE SMOOTH",
"160 700 OFFCURVE",
"163 702 OFFCURVE",
"169 702 CURVE SMOOTH",
"324 702 LINE SMOOTH",
"459 702 OFFCURVE",
"543 654 OFFCURVE",
"543 546 CURVE SMOOTH",
"543 424 OFFCURVE",
"433 395 OFFCURVE",
"340 395 CURVE SMOOTH",
"167 395 LINE SMOOTH"
);
}
);
};
layerId = "91AB5BCA-6A50-42DA-B2F7-8181BF189245";
paths = (
{
closed = 1;
nodes = (
"331 0 LINE SMOOTH",
"506 0 OFFCURVE",
"609 65 OFFCURVE",
"609 197 CURVE SMOOTH",
"609 297 OFFCURVE",
"550 356 OFFCURVE",
"460 373 CURVE SMOOTH",
"454 374 OFFCURVE",
"454 380 OFFCURVE",
"460 382 CURVE SMOOTH",
"548 409 OFFCURVE",
"591 467 OFFCURVE",
"591 551 CURVE SMOOTH",
"591 675 OFFCURVE",
"494 742 OFFCURVE",
"328 742 CURVE SMOOTH",
"123 742 LINE SMOOTH",
"116 742 OFFCURVE",
"114 740 OFFCURVE",
"114 732 CURVE SMOOTH",
"114 8 LINE SMOOTH",
"114 3 OFFCURVE",
"117 0 OFFCURVE",
"122 0 CURVE SMOOTH"
);
},
{
closed = 1;
nodes = (
"162 40 OFFCURVE",
"160 43 OFFCURVE",
"160 50 CURVE SMOOTH",
"160 346 LINE SMOOTH",
"160 353 OFFCURVE",
"163 355 OFFCURVE",
"171 355 CURVE SMOOTH",
"340 355 LINE SMOOTH",
"465 355 OFFCURVE",
"561 311 OFFCURVE",
"561 191 CURVE SMOOTH",
"561 82 OFFCURVE",
"484 40 OFFCURVE",
"326 40 CURVE SMOOTH",
"167 40 LINE SMOOTH"
);
},
{
closed = 1;
nodes = (
"162 395 OFFCURVE",
"160 398 OFFCURVE",
"160 405 CURVE SMOOTH",
"160 694 LINE SMOOTH",
"160 700 OFFCURVE",
"163 702 OFFCURVE",
"169 702 CURVE SMOOTH",
"324 702 LINE SMOOTH",
"459 702 OFFCURVE",
"543 654 OFFCURVE",
"543 546 CURVE SMOOTH",
"543 424 OFFCURVE",
"433 395 OFFCURVE",
"340 395 CURVE SMOOTH",
"167 395 LINE SMOOTH"
);
}
);
width = 684;
},
{
background = {
paths = (
{
closed = 1;
nodes = (
"302 0 LINE SMOOTH",
"458 0 OFFCURVE",
"601 59 OFFCURVE",
"601 227 CURVE SMOOTH",
"601 309 OFFCURVE",
"552 358 OFFCURVE",
"477 372 CURVE SMOOTH",
"470 374 OFFCURVE",
"470 379 OFFCURVE",
"478 381 CURVE SMOOTH",
"576 411 OFFCURVE",
"633 479 OFFCURVE",
"633 579 CURVE SMOOTH",
"633 685 OFFCURVE",
"546 742 OFFCURVE",
"394 742 CURVE SMOOTH",
"191 742 LINE SMOOTH",
"184 742 OFFCURVE",
"181 739 OFFCURVE",
"180 731 CURVE SMOOTH",
"78 9 LINE SMOOTH",
"77 4 OFFCURVE",
"81 0 OFFCURVE",
"86 0 CURVE SMOOTH"
);
},
{
closed = 1;
nodes = (
"133 40 OFFCURVE",
"129 42 OFFCURVE",
"130 49 CURVE SMOOTH",
"171 345 LINE SMOOTH",
"172 352 OFFCURVE",
"177 355 OFFCURVE",
"185 355 CURVE SMOOTH",
"354 355 LINE SMOOTH",
"469 355 OFFCURVE",
"553 319 OFFCURVE",
"553 221 CURVE SMOOTH",
"553 67 OFFCURVE",
"418 40 OFFCURVE",
"293 40 CURVE SMOOTH",
"138 40 LINE SMOOTH"
);
},
{
closed = 1;
nodes = (
"182 395 OFFCURVE",
"179 398 OFFCURVE",
"180 405 CURVE SMOOTH",
"220 693 LINE SMOOTH",
"221 699 OFFCURVE",
"225 702 OFFCURVE",
"231 702 CURVE SMOOTH",
"386 702 LINE SMOOTH",
"510 702 OFFCURVE",
"585 662 OFFCURVE",
"585 573 CURVE SMOOTH",
"585 452 OFFCURVE",
"485 395 OFFCURVE",
"357 395 CURVE SMOOTH",
"187 395 LINE SMOOTH"
);
}
);
};
layerId = "3FD4CC56-10BC-4177-A1EC-581F65825651";
paths = (
{
closed = 1;
nodes = (
"302 0 LINE SMOOTH",
"458 0 OFFCURVE",
"601 59 OFFCURVE",
"601 227 CURVE SMOOTH",
"601 309 OFFCURVE",
"552 358 OFFCURVE",
"477 372 CURVE SMOOTH",
"470 374 OFFCURVE",
"470 379 OFFCURVE",
"478 381 CURVE SMOOTH",
"576 411 OFFCURVE",
"633 479 OFFCURVE",
"633 579 CURVE SMOOTH",
"633 685 OFFCURVE",
"546 742 OFFCURVE",
"394 742 CURVE SMOOTH",
"191 742 LINE SMOOTH",
"184 742 OFFCURVE",
"181 739 OFFCURVE",
"180 731 CURVE SMOOTH",
"78 9 LINE SMOOTH",
"77 4 OFFCURVE",
"81 0 OFFCURVE",
"86 0 CURVE SMOOTH"
);
},
{
closed = 1;
nodes = (
"133 40 OFFCURVE",
"129 42 OFFCURVE",
"130 49 CURVE SMOOTH",
"171 345 LINE SMOOTH",
"172 352 OFFCURVE",
"177 355 OFFCURVE",
"185 355 CURVE SMOOTH",
"354 355 LINE SMOOTH",
"469 355 OFFCURVE",
"553 319 OFFCURVE",
"553 221 CURVE SMOOTH",
"553 67 OFFCURVE",
"418 40 OFFCURVE",
"293 40 CURVE SMOOTH",
"138 40 LINE SMOOTH"
);
},
{
closed = 1;
nodes = (
"182 395 OFFCURVE",
"179 398 OFFCURVE",
"180 405 CURVE SMOOTH",
"220 693 LINE SMOOTH",
"221 699 OFFCURVE",
"225 702 OFFCURVE",
"231 702 CURVE SMOOTH",
"386 702 LINE SMOOTH",
"510 702 OFFCURVE",
"585 662 OFFCURVE",
"585 573 CURVE SMOOTH",
"585 452 OFFCURVE",
"485 395 OFFCURVE",
"357 395 CURVE SMOOTH",
"187 395 LINE SMOOTH"
);
}
);
width = 684;
},
{
background = {
paths = (
{
closed = 1;
nodes = (
"361 0 LINE SMOOTH",
"529 0 OFFCURVE",
"702 38 OFFCURVE",
"702 223 CURVE SMOOTH",
"702 294 OFFCURVE",
"665 341 OFFCURVE",
"574 372 CURVE SMOOTH",
"567 374 OFFCURVE",
"567 380 OFFCURVE",
"577 383 CURVE SMOOTH",
"666 413 OFFCURVE",
"732 466 OFFCURVE",
"732 565 CURVE SMOOTH",
"732 680 OFFCURVE",
"629 742 OFFCURVE",
"438 742 CURVE SMOOTH",
"140 742 LINE SMOOTH",
"125 742 OFFCURVE",
"118 737 OFFCURVE",
"116 722 CURVE SMOOTH",
"19 28 LINE SMOOTH",
"16 7 OFFCURVE",
"18 0 OFFCURVE",
"32 0 CURVE SMOOTH"
);
},
{
closed = 1;
nodes = (
"266 150 OFFCURVE",
"263 152 OFFCURVE",
"265 166 CURVE SMOOTH",
"281 278 LINE SMOOTH",
"283 293 OFFCURVE",
"287 298 OFFCURVE",
"301 298 CURVE SMOOTH",
"400 298 LINE SMOOTH",
"446 298 OFFCURVE",
"471 278 OFFCURVE",
"471 247 CURVE SMOOTH",
"471 191 OFFCURVE",
"417 150 OFFCURVE",
"366 150 CURVE SMOOTH",
"276 150 LINE SMOOTH"
);
},
{
closed = 1;
nodes = (
"308 452 OFFCURVE",
"306 454 OFFCURVE",
"308 468 CURVE SMOOTH",
"321 571 LINE SMOOTH",
"323 586 OFFCURVE",
"329 592 OFFCURVE",
"347 592 CURVE SMOOTH",
"434 592 LINE SMOOTH",
"477 592 OFFCURVE",
"506 574 OFFCURVE",
"506 541 CURVE SMOOTH",
"506 490 OFFCURVE",
"458 452 OFFCURVE",
"413 452 CURVE SMOOTH",
"318 452 LINE SMOOTH"
);
}
);
};
layerId = "945F4A85-7B75-430B-91A8-74C2C4AC9571";
paths = (
{
closed = 1;
nodes = (
"361 0 LINE SMOOTH",
"529 0 OFFCURVE",
"702 38 OFFCURVE",
"702 223 CURVE SMOOTH",
"702 294 OFFCURVE",
"665 341 OFFCURVE",
"574 372 CURVE SMOOTH",
"567 374 OFFCURVE",
"567 380 OFFCURVE",
"577 383 CURVE SMOOTH",
"666 413 OFFCURVE",
"732 466 OFFCURVE",
"732 565 CURVE SMOOTH",
"732 680 OFFCURVE",
"629 742 OFFCURVE",
"438 742 CURVE SMOOTH",
"140 742 LINE SMOOTH",
"125 742 OFFCURVE",
"118 737 OFFCURVE",
"116 722 CURVE SMOOTH",
"19 28 LINE SMOOTH",
"16 7 OFFCURVE",
"18 0 OFFCURVE",
"32 0 CURVE SMOOTH"
);
},
{
closed = 1;
nodes = (
"266 150 OFFCURVE",
"263 152 OFFCURVE",
"265 166 CURVE SMOOTH",
"281 278 LINE SMOOTH",
"283 293 OFFCURVE",
"287 298 OFFCURVE",
"301 298 CURVE SMOOTH",
"400 298 LINE SMOOTH",
"446 298 OFFCURVE",
"471 278 OFFCURVE",
"471 247 CURVE SMOOTH",
"471 191 OFFCURVE",
"417 150 OFFCURVE",
"366 150 CURVE SMOOTH",
"276 150 LINE SMOOTH"
);
},
{
closed = 1;
nodes = (
"308 452 OFFCURVE",
"306 454 OFFCURVE",
"308 468 CURVE SMOOTH",
"321 571 LINE SMOOTH",
"323 586 OFFCURVE",
"329 592 OFFCURVE",
"347 592 CURVE SMOOTH",
"434 592 LINE SMOOTH",
"477 592 OFFCURVE",
"506 574 OFFCURVE",
"506 541 CURVE SMOOTH",
"506 490 OFFCURVE",
"458 452 OFFCURVE",
"413 452 CURVE SMOOTH",
"318 452 LINE SMOOTH"
);
}
);
width = 739;
}
);
rightKerningGroup = B;
unicode = 0042;
},
{
color = 5;
glyphname = C;
lastChange = "2022-07-20 12:08:12 +0000";
layers = (
{
anchors = (
{
name = bottom;
position = "{383, 0}";
},
{
name = top;
position = "{385, 742}";
}
);
background = {
anchors = (
{
name = bottom;
position = "{383, 0}";
},
{
name = top;
position = "{385, 742}";
}
);
paths = (
{
closed = 1;
nodes = (
"614 -10 OFFCURVE",
"700 167 OFFCURVE",
"710 221 CURVE SMOOTH",
"714 247 OFFCURVE",
"703 252 OFFCURVE",
"696 254 CURVE SMOOTH",
"571 279 LINE SMOOTH",
"555 282 OFFCURVE",
"546 279 OFFCURVE",
"543 271 CURVE SMOOTH",
"508 183 OFFCURVE",
"457 154 OFFCURVE",
"390 154 CURVE SMOOTH",
"309 154 OFFCURVE",
"268 212 OFFCURVE",
"268 377 CURVE SMOOTH",
"268 540 OFFCURVE",
"316 598 OFFCURVE",
"391 598 CURVE SMOOTH",
"457 598 OFFCURVE",
"483 553 OFFCURVE",
"494 495 CURVE SMOOTH",
"497 481 OFFCURVE",
"498 476 OFFCURVE",
"513 476 CURVE",
"688 487 LINE",
"703 489 OFFCURVE",
"707 494 OFFCURVE",
"701 522 CURVE SMOOTH",
"675 655 OFFCURVE",
"554 752 OFFCURVE",
"385 752 CURVE SMOOTH",
"168 752 OFFCURVE",
"30 606 OFFCURVE",
"30 381 CURVE SMOOTH",
"30 155 OFFCURVE",
"168 -10 OFFCURVE",
"383 -10 CURVE SMOOTH"
);
}
);
};
layerId = "258ED206-D907-4350-8EBA-CBDDA1C16BF7";
paths = (
{
closed = 1;
nodes = (
"614 -10 OFFCURVE",
"700 167 OFFCURVE",
"710 221 CURVE SMOOTH",
"714 247 OFFCURVE",
"703 252 OFFCURVE",
"696 254 CURVE SMOOTH",
"571 279 LINE SMOOTH",
"555 282 OFFCURVE",
"546 279 OFFCURVE",
"543 271 CURVE SMOOTH",
"508 183 OFFCURVE",
"457 154 OFFCURVE",
"390 154 CURVE SMOOTH",
"309 154 OFFCURVE",
"268 212 OFFCURVE",
"268 377 CURVE SMOOTH",
"268 540 OFFCURVE",
"316 598 OFFCURVE",
"391 598 CURVE SMOOTH",
"457 598 OFFCURVE",
"483 553 OFFCURVE",
"494 495 CURVE SMOOTH",
"497 481 OFFCURVE",
"498 476 OFFCURVE",
"513 476 CURVE",
"688 487 LINE",
"703 489 OFFCURVE",
"707 494 OFFCURVE",
"701 522 CURVE SMOOTH",
"675 655 OFFCURVE",
"554 752 OFFCURVE",
"385 752 CURVE SMOOTH",
"168 752 OFFCURVE",
"30 606 OFFCURVE",
"30 381 CURVE SMOOTH",
"30 155 OFFCURVE",
"168 -10 OFFCURVE",
"383 -10 CURVE SMOOTH"
);
}
);
width = 737;
},
{
anchors = (
{
name = bottom;
position = "{381, 0}";
},
{
name = top;
position = "{375, 742}";
}
);
background = {
anchors = (
{
name = bottom;
position = "{381, 0}";
},
{
name = top;
position = "{375, 742}";
}
);
paths = (
{
closed = 1;
nodes = (
"502 -10 OFFCURVE",
"602 61 OFFCURVE",
"637 171 CURVE SMOOTH",
"638 175 OFFCURVE",
"637 177 OFFCURVE",
"635 178 CURVE SMOOTH",
"601 188 LINE SMOOTH",
"598 189 OFFCURVE",
"596 188 OFFCURVE",
"595 186 CURVE SMOOTH",
"555 81 OFFCURVE",
"489 32 OFFCURVE",
"385 32 CURVE SMOOTH",
"212 32 OFFCURVE",
"126 153 OFFCURVE",
"126 368 CURVE SMOOTH",
"126 591 OFFCURVE",
"214 710 OFFCURVE",
"377 710 CURVE SMOOTH",
"478 710 OFFCURVE",
"558 647 OFFCURVE",
"581 552 CURVE SMOOTH",
"582 546 OFFCURVE",
"584 544 OFFCURVE",
"588 545 CURVE SMOOTH",
"624 549 LINE SMOOTH",
"629 549 OFFCURVE",
"630 551 OFFCURVE",
"629 556 CURVE SMOOTH",
"617 659 OFFCURVE",
"497 752 OFFCURVE",
"375 752 CURVE SMOOTH",
"188 752 OFFCURVE",
"78 610 OFFCURVE",
"78 368 CURVE SMOOTH",
"78 127 OFFCURVE",
"188 -10 OFFCURVE",
"381 -10 CURVE SMOOTH"
);
}
);
};
guideLines = (
{
angle = 90;
position = "{636, 369}";
}
);
layerId = "91AB5BCA-6A50-42DA-B2F7-8181BF189245";
paths = (
{
closed = 1;
nodes = (
"502 -10 OFFCURVE",
"602 61 OFFCURVE",
"637 171 CURVE SMOOTH",
"638 175 OFFCURVE",
"637 177 OFFCURVE",
"635 178 CURVE SMOOTH",
"601 188 LINE SMOOTH",
"598 189 OFFCURVE",
"596 188 OFFCURVE",
"595 186 CURVE SMOOTH",
"555 81 OFFCURVE",
"489 32 OFFCURVE",
"385 32 CURVE SMOOTH",
"212 32 OFFCURVE",
"126 153 OFFCURVE",
"126 368 CURVE SMOOTH",
"126 591 OFFCURVE",
"214 710 OFFCURVE",
"377 710 CURVE SMOOTH",
"478 710 OFFCURVE",
"558 647 OFFCURVE",
"581 552 CURVE SMOOTH",
"582 546 OFFCURVE",
"584 544 OFFCURVE",
"588 545 CURVE SMOOTH",
"624 549 LINE SMOOTH",
"629 549 OFFCURVE",
"630 551 OFFCURVE",
"629 556 CURVE SMOOTH",
"617 659 OFFCURVE",
"497 752 OFFCURVE",
"375 752 CURVE SMOOTH",
"188 752 OFFCURVE",
"78 610 OFFCURVE",
"78 368 CURVE SMOOTH",
"78 127 OFFCURVE",
"188 -10 OFFCURVE",
"381 -10 CURVE SMOOTH"
);
}
);
width = 695;
},
{
anchors = (
{
name = bottom;
position = "{344, 0}";
},
{
name = top;
position = "{442, 742}";
}
);
background = {
anchors = (
{
name = bottom;
position = "{344, 0}";
},
{
name = top;
position = "{442, 742}";
}
);
paths = (
{
closed = 1;
nodes = (
"464 -10 OFFCURVE",
"573 59 OFFCURVE",
"625 169 CURVE SMOOTH",
"627 174 OFFCURVE",
"625 177 OFFCURVE",
"622 178 CURVE SMOOTH",
"592 189 LINE SMOOTH",
"587 191 OFFCURVE",
"584 190 OFFCURVE",
"583 188 CURVE SMOOTH",
"529 81 OFFCURVE",
"453 32 OFFCURVE",
"348 32 CURVE SMOOTH",
"202 32 OFFCURVE",
"133 118 OFFCURVE",
"133 275 CURVE SMOOTH",
"133 472 OFFCURVE",
"216 710 OFFCURVE",
"440 710 CURVE SMOOTH",
"540 710 OFFCURVE",
"612 647 OFFCURVE",
"622 554 CURVE SMOOTH",
"623 547 OFFCURVE",
"625 544 OFFCURVE",
"629 544 CURVE SMOOTH",
"663 547 LINE SMOOTH",
"668 547 OFFCURVE",
"670 550 OFFCURVE",
"670 554 CURVE SMOOTH",
"672 658 OFFCURVE",
"567 752 OFFCURVE",
"444 752 CURVE SMOOTH",
"184 753 OFFCURVE",
"86 491 OFFCURVE",
"86 276 CURVE SMOOTH",
"86 93 OFFCURVE",
"177 -10 OFFCURVE",
"344 -10 CURVE SMOOTH"
);
}
);
};
guideLines = (
{
angle = 90;
position = "{636, 369}";
}
);
layerId = "3FD4CC56-10BC-4177-A1EC-581F65825651";
paths = (
{
closed = 1;
nodes = (
"464 -10 OFFCURVE",
"573 59 OFFCURVE",
"625 169 CURVE SMOOTH",
"627 174 OFFCURVE",
"625 177 OFFCURVE",
"622 178 CURVE SMOOTH",
"592 189 LINE SMOOTH",
"587 191 OFFCURVE",
"584 190 OFFCURVE",
"583 188 CURVE SMOOTH",
"529 81 OFFCURVE",
"453 32 OFFCURVE",
"348 32 CURVE SMOOTH",
"202 32 OFFCURVE",
"133 118 OFFCURVE",
"133 275 CURVE SMOOTH",
"133 472 OFFCURVE",
"216 710 OFFCURVE",
"440 710 CURVE SMOOTH",
"540 710 OFFCURVE",
"612 647 OFFCURVE",
"622 554 CURVE SMOOTH",
"623 547 OFFCURVE",
"625 544 OFFCURVE",
"629 544 CURVE SMOOTH",
"663 547 LINE SMOOTH",
"668 547 OFFCURVE",
"670 550 OFFCURVE",
"670 554 CURVE SMOOTH",
"672 658 OFFCURVE",
"567 752 OFFCURVE",
"444 752 CURVE SMOOTH",
"184 753 OFFCURVE",
"86 491 OFFCURVE",
"86 276 CURVE SMOOTH",
"86 93 OFFCURVE",
"177 -10 OFFCURVE",
"344 -10 CURVE SMOOTH"
);
}
);
width = 695;
},
{
anchors = (
{
name = bottom;
position = "{346, 0}";
},
{
name = top;
position = "{452, 742}";
}
);
background = {
anchors = (
{
name = bottom;
position = "{346, 0}";
},
{
name = top;
position = "{452, 742}";
}
);
paths = (
{
closed = 1;
nodes = (
"579 -10 OFFCURVE",
"687 162 OFFCURVE",
"703 210 CURVE SMOOTH",
"712 236 OFFCURVE",
"712 247 OFFCURVE",
"704 249 CURVE SMOOTH",
"569 281 LINE SMOOTH",
"553 285 OFFCURVE",
"544 283 OFFCURVE",
"538 270 CURVE SMOOTH",
"497 187 OFFCURVE",
"437 154 OFFCURVE",
"366 154 CURVE SMOOTH",
"306 154 OFFCURVE",
"275 185 OFFCURVE",
"275 276 CURVE SMOOTH",
"275 391 OFFCURVE",
"306 598 OFFCURVE",
"446 598 CURVE SMOOTH",
"508 598 OFFCURVE",
"525 559 OFFCURVE",
"529 506 CURVE SMOOTH",
"530 487 OFFCURVE",
"535 475 OFFCURVE",
"547 476 CURVE SMOOTH",
"716 486 LINE SMOOTH",
"731 487 OFFCURVE",
"735 495 OFFCURVE",
"734 511 CURVE SMOOTH",
"728 650 OFFCURVE",
"618 752 OFFCURVE",
"445 752 CURVE SMOOTH",
"184 752 OFFCURVE",
"43 550 OFFCURVE",
"43 317 CURVE SMOOTH",
"43 125 OFFCURVE",
"157 -10 OFFCURVE",
"352 -10 CURVE SMOOTH"
);
}
);
};
layerId = "945F4A85-7B75-430B-91A8-74C2C4AC9571";
paths = (
{
closed = 1;
nodes = (
"579 -10 OFFCURVE",
"687 162 OFFCURVE",
"703 210 CURVE SMOOTH",
"712 236 OFFCURVE",
"712 247 OFFCURVE",
"704 249 CURVE SMOOTH",
"569 281 LINE SMOOTH",
"553 285 OFFCURVE",
"544 283 OFFCURVE",
"538 270 CURVE SMOOTH",
"497 187 OFFCURVE",
"437 154 OFFCURVE",
"366 154 CURVE SMOOTH",
"306 154 OFFCURVE",
"275 185 OFFCURVE",
"275 276 CURVE SMOOTH",
"275 391 OFFCURVE",
"306 598 OFFCURVE",
"446 598 CURVE SMOOTH",
"508 598 OFFCURVE",
"525 559 OFFCURVE",
"529 506 CURVE SMOOTH",
"530 487 OFFCURVE",
"535 475 OFFCURVE",
"547 476 CURVE SMOOTH",
"716 486 LINE SMOOTH",
"731 487 OFFCURVE",
"735 495 OFFCURVE",
"734 511 CURVE SMOOTH",
"728 650 OFFCURVE",
"618 752 OFFCURVE",
"445 752 CURVE SMOOTH",
"184 752 OFFCURVE",
"43 550 OFFCURVE",
"43 317 CURVE SMOOTH",
"43 125 OFFCURVE",
"157 -10 OFFCURVE",
"352 -10 CURVE SMOOTH"
);
}
);
width = 737;
}
);
leftKerningGroup = O;
rightKerningGroup = C;
unicode = 0043;
},
{
color = 5;
glyphname = D;
lastChange = "2022-07-20 12:08:12 +0000";
layers = (
{
anchors = (
{
name = center;
position = "{390, 371}";
},
{
name = top;
position = "{390, 742}";
}
);
background = {
anchors = (
{
name = center;
position = "{390, 371}";
},
{
name = top;
position = "{390, 742}";
}
);
paths = (
{
closed = 1;
nodes = (
"344 0 LINE SMOOTH",
"607 0 OFFCURVE",
"740 157 OFFCURVE",
"740 372 CURVE SMOOTH",
"740 583 OFFCURVE",
"612 732 OFFCURVE",
"345 741 CURVE SMOOTH",
"287 743 OFFCURVE",
"146 742 OFFCURVE",
"79 742 CURVE SMOOTH",
"59 742 OFFCURVE",
"52 736 OFFCURVE",
"52 717 CURVE SMOOTH",
"52 30 LINE SMOOTH",
"52 8 OFFCURVE",
"61 0 OFFCURVE",
"81 0 CURVE SMOOTH"
);
},
{
closed = 1;
nodes = (
"282 157 OFFCURVE",
"279 160 OFFCURVE",
"279 172 CURVE SMOOTH",
"279 571 LINE SMOOTH",
"279 582 OFFCURVE",
"282 585 OFFCURVE",
"289 585 CURVE",
"313 585 LINE SMOOTH",
"443 585 OFFCURVE",
"502 513 OFFCURVE",
"502 374 CURVE SMOOTH",
"502 215 OFFCURVE",
"425 157 OFFCURVE",
"300 157 CURVE SMOOTH",
"293 157 LINE SMOOTH"
);
}
);
};
layerId = "258ED206-D907-4350-8EBA-CBDDA1C16BF7";
paths = (
{
closed = 1;
nodes = (
"344 0 LINE SMOOTH",
"607 0 OFFCURVE",
"740 157 OFFCURVE",
"740 372 CURVE SMOOTH",
"740 583 OFFCURVE",
"612 742 OFFCURVE",
"322 742 CURVE SMOOTH",
"79 742 LINE",
"59 742 OFFCURVE",
"52 736 OFFCURVE",
"52 717 CURVE SMOOTH",
"52 30 LINE SMOOTH",
"52 8 OFFCURVE",
"61 0 OFFCURVE",
"81 0 CURVE SMOOTH"
);
},
{
closed = 1;
nodes = (
"282 157 OFFCURVE",
"279 160 OFFCURVE",
"279 172 CURVE SMOOTH",
"279 571 LINE SMOOTH",
"279 582 OFFCURVE",
"282 585 OFFCURVE",
"289 585 CURVE",
"313 585 LINE SMOOTH",
"443 585 OFFCURVE",
"502 513 OFFCURVE",
"502 374 CURVE SMOOTH",
"502 215 OFFCURVE",
"425 157 OFFCURVE",
"300 157 CURVE SMOOTH",
"293 157 LINE SMOOTH"
);
}
);
width = 771;
},
{
anchors = (
{
name = center;
position = "{342, 371}";
},
{
name = top;
position = "{336, 742}";
}
);
background = {
anchors = (
{
name = center;
position = "{342, 371}";
},
{
name = top;
position = "{336, 742}";
}
);
paths = (
{
closed = 1;
nodes = (
"225 0 LINE SMOOTH",
"499 0 OFFCURVE",
"626 115 OFFCURVE",
"626 379 CURVE SMOOTH",
"626 622 OFFCURVE",
"518 739 OFFCURVE",
"239 741 CURVE SMOOTH",
"229 741 OFFCURVE",
"127 742 OFFCURVE",
"124 742 CURVE SMOOTH",
"117 742 OFFCURVE",
"114 738 OFFCURVE",
"114 732 CURVE SMOOTH",
"114 10 LINE SMOOTH",
"114 3 OFFCURVE",
"117 0 OFFCURVE",
"123 0 CURVE SMOOTH"
);
},
{
closed = 1;
nodes = (
"163 40 OFFCURVE",
"160 43 OFFCURVE",
"160 49 CURVE SMOOTH",
"160 687 LINE SMOOTH",
"160 695 OFFCURVE",
"162 701 OFFCURVE",
"170 701 CURVE",
"223 701 LINE SMOOTH",
"465 701 OFFCURVE",
"578 633 OFFCURVE",
"578 371 CURVE SMOOTH",
"578 130 OFFCURVE",
"478 40 OFFCURVE",
"221 40 CURVE SMOOTH",
"171 40 LINE SMOOTH"
);
}
);
};
layerId = "91AB5BCA-6A50-42DA-B2F7-8181BF189245";
paths = (
{
closed = 1;
nodes = (
"225 0 LINE SMOOTH",
"499 0 OFFCURVE",
"626 115 OFFCURVE",
"626 379 CURVE SMOOTH",
"626 622 OFFCURVE",
"518 742 OFFCURVE",
"239 742 CURVE",
"124 742 LINE",
"117 742 OFFCURVE",
"114 738 OFFCURVE",
"114 732 CURVE SMOOTH",
"114 10 LINE SMOOTH",
"114 3 OFFCURVE",
"117 0 OFFCURVE",
"123 0 CURVE SMOOTH"
);
},
{
closed = 1;
nodes = (
"163 40 OFFCURVE",
"160 43 OFFCURVE",
"160 49 CURVE SMOOTH",
"160 687 LINE SMOOTH",
"160 695 OFFCURVE",
"162 701 OFFCURVE",
"170 701 CURVE",
"223 701 LINE SMOOTH",
"465 701 OFFCURVE",
"578 633 OFFCURVE",
"578 371 CURVE SMOOTH",
"578 130 OFFCURVE",
"478 40 OFFCURVE",
"221 40 CURVE SMOOTH",
"171 40 LINE SMOOTH"
);
}
);
width = 703;
},
{
anchors = (
{
name = center;
position = "{390, 371}";
},
{
name = top;
position = "{390, 742}";
}
);
associatedMasterId = "258ED206-D907-4350-8EBA-CBDDA1C16BF7";
background = {
anchors = (
{
name = center;
position = "{390, 371}";
},
{
name = top;
position = "{390, 742}";
}
);
paths = (
{
closed = 1;
nodes = (
"59 742 OFFCURVE",
"52 736 OFFCURVE",
"52 717 CURVE SMOOTH",
"52 30 LINE SMOOTH",
"52 8 OFFCURVE",
"61 0 OFFCURVE",
"81 0 CURVE SMOOTH",
"344 0 LINE SMOOTH",
"607 0 OFFCURVE",
"740 157 OFFCURVE",
"740 373 CURVE SMOOTH",
"740 584 OFFCURVE",
"613 731 OFFCURVE",
"345 741 CURVE SMOOTH",
"287 743 OFFCURVE",
"98 742 OFFCURVE",
"79 742 CURVE SMOOTH"
);
},
{
closed = 1;
nodes = (
"295 585 OFFCURVE",
"325 583 OFFCURVE",
"349 581 CURVE SMOOTH",
"446 572 OFFCURVE",
"502 513 OFFCURVE",
"502 376 CURVE SMOOTH",
"502 215 OFFCURVE",
"426 157 OFFCURVE",
"300 157 CURVE SMOOTH",
"293 157 LINE SMOOTH",
"282 157 OFFCURVE",
"279 160 OFFCURVE",
"279 172 CURVE SMOOTH",
"279 571 LINE SMOOTH",
"279 582 OFFCURVE",
"282 585 OFFCURVE",
"289 585 CURVE SMOOTH"
);
}
);
};
layerId = "239923BD-A432-4356-AD83-8DF13932B20C";
name = "Sep 3 16, 18:20";
paths = (
{
closed = 1;
nodes = (
"59 742 OFFCURVE",
"52 736 OFFCURVE",
"52 717 CURVE SMOOTH",
"52 30 LINE SMOOTH",
"52 8 OFFCURVE",
"61 0 OFFCURVE",
"81 0 CURVE SMOOTH",
"344 0 LINE SMOOTH",
"607 0 OFFCURVE",
"740 157 OFFCURVE",
"740 373 CURVE SMOOTH",
"740 584 OFFCURVE",
"613 731 OFFCURVE",
"345 741 CURVE SMOOTH",
"287 743 OFFCURVE",
"98 742 OFFCURVE",
"79 742 CURVE SMOOTH"
);
},
{
closed = 1;
nodes = (
"295 585 OFFCURVE",
"325 583 OFFCURVE",
"349 581 CURVE SMOOTH",
"446 572 OFFCURVE",
"502 513 OFFCURVE",
"502 376 CURVE SMOOTH",
"502 215 OFFCURVE",
"426 157 OFFCURVE",
"300 157 CURVE SMOOTH",
"293 157 LINE SMOOTH",
"282 157 OFFCURVE",
"279 160 OFFCURVE",
"279 172 CURVE SMOOTH",
"279 571 LINE SMOOTH",
"279 582 OFFCURVE",
"282 585 OFFCURVE",
"289 585 CURVE SMOOTH"
);
}
);
width = 771;
},
{
anchors = (
{
name = center;
position = "{357, 371}";
},
{
name = top;
position = "{403, 742}";
}
);
background = {
anchors = (
{
name = center;
position = "{357, 371}";
},
{
name = top;
position = "{403, 742}";
}
);
paths = (
{
closed = 1;
nodes = (
"196 0 LINE SMOOTH",
"506 0 OFFCURVE",
"648 165 OFFCURVE",
"648 465 CURVE SMOOTH",
"648 652 OFFCURVE",
"544 742 OFFCURVE",
"304 742 CURVE SMOOTH",
"191 742 LINE SMOOTH",
"186 742 OFFCURVE",
"181 740 OFFCURVE",
"180 735 CURVE SMOOTH",
"78 11 LINE SMOOTH",
"77 4 OFFCURVE",
"81 0 OFFCURVE",
"87 0 CURVE SMOOTH"
);
},
{
closed = 1;
nodes = (
"133 40 OFFCURVE",
"129 42 OFFCURVE",
"131 53 CURVE SMOOTH",
"219 690 LINE SMOOTH",
"220 698 OFFCURVE",
"223 701 OFFCURVE",
"230 701 CURVE SMOOTH",
"293 701 LINE SMOOTH",
"500 701 OFFCURVE",
"600 644 OFFCURVE",
"600 465 CURVE SMOOTH",
"600 186 OFFCURVE",
"485 40 OFFCURVE",
"194 40 CURVE SMOOTH",
"141 40 LINE SMOOTH"
);
}
);
};
layerId = "3FD4CC56-10BC-4177-A1EC-581F65825651";
paths = (
{
closed = 1;
nodes = (
"196 0 LINE SMOOTH",
"506 0 OFFCURVE",
"648 165 OFFCURVE",
"648 465 CURVE SMOOTH",
"648 652 OFFCURVE",
"544 742 OFFCURVE",
"304 742 CURVE SMOOTH",
"191 742 LINE SMOOTH",
"186 742 OFFCURVE",
"181 740 OFFCURVE",
"180 735 CURVE SMOOTH",
"78 11 LINE SMOOTH",
"77 4 OFFCURVE",
"81 0 OFFCURVE",
"87 0 CURVE SMOOTH"
);
},
{
closed = 1;
nodes = (
"133 40 OFFCURVE",
"129 42 OFFCURVE",
"131 53 CURVE SMOOTH",
"219 690 LINE SMOOTH",
"220 698 OFFCURVE",
"223 701 OFFCURVE",
"230 701 CURVE SMOOTH",
"293 701 LINE SMOOTH",
"500 701 OFFCURVE",
"600 644 OFFCURVE",
"600 465 CURVE SMOOTH",
"600 186 OFFCURVE",
"485 40 OFFCURVE",
"194 40 CURVE SMOOTH",
"141 40 LINE SMOOTH"
);
}
);
width = 703;
},
{
anchors = (
{
name = center;
position = "{405, 371}";
},
{
name = top;
position = "{457, 742}";
}
);
background = {
anchors = (
{
name = center;
position = "{405, 371}";
},
{
name = top;
position = "{457, 742}";
}
);
paths = (
{
closed = 1;
nodes = (
"311 0 LINE SMOOTH",
"580 0 OFFCURVE",
"759 172 OFFCURVE",
"759 429 CURVE SMOOTH",
"759 609 OFFCURVE",
"632 742 OFFCURVE",
"391 742 CURVE SMOOTH",
"141 742 LINE SMOOTH",
"122 742 OFFCURVE",
"118 739 OFFCURVE",
"116 723 CURVE SMOOTH",
"20 36 LINE SMOOTH",
"17 14 OFFCURVE",
"28 0 OFFCURVE",
"48 0 CURVE SMOOTH"
);
},
{
closed = 1;
nodes = (
"270 157 OFFCURVE",
"266 164 OFFCURVE",
"268 176 CURVE SMOOTH",
"321 565 LINE SMOOTH",
"323 578 OFFCURVE",
"329 585 OFFCURVE",
"342 585 CURVE SMOOTH",
"401 585 LINE SMOOTH",
"476 585 OFFCURVE",
"523 536 OFFCURVE",
"523 442 CURVE SMOOTH",
"523 286 OFFCURVE",
"466 157 OFFCURVE",
"338 157 CURVE SMOOTH",
"281 157 LINE SMOOTH"
);
}
);
};
layerId = "945F4A85-7B75-430B-91A8-74C2C4AC9571";
paths = (
{
closed = 1;
nodes = (
"311 0 LINE SMOOTH",
"580 0 OFFCURVE",
"759 172 OFFCURVE",
"759 429 CURVE SMOOTH",
"759 609 OFFCURVE",
"632 742 OFFCURVE",
"391 742 CURVE SMOOTH",
"141 742 LINE SMOOTH",
"122 742 OFFCURVE",
"118 739 OFFCURVE",
"116 723 CURVE SMOOTH",
"20 36 LINE SMOOTH",
"17 14 OFFCURVE",
"28 0 OFFCURVE",
"48 0 CURVE SMOOTH"
);
},
{
closed = 1;
nodes = (
"270 157 OFFCURVE",
"266 164 OFFCURVE",
"268 176 CURVE SMOOTH",
"321 565 LINE SMOOTH",
"323 578 OFFCURVE",
"329 585 OFFCURVE",
"342 585 CURVE SMOOTH",
"401 585 LINE SMOOTH",
"476 585 OFFCURVE",
"523 536 OFFCURVE",
"523 442 CURVE SMOOTH",
"523 286 OFFCURVE",
"466 157 OFFCURVE",
"338 157 CURVE SMOOTH",
"281 157 LINE SMOOTH"
);
}
);
width = 771;
}
);
rightKerningGroup = O;
unicode = 0044;
},
{
color = 4;
glyphname = Eth;
lastChange = "2022-07-20 12:20:45 +0000";
layers = (
{
background = {
components = (
{
name = D;
transform = "{1, 0, 0, 1, 20, 0}";
}
);
paths = (
{
closed = 1;
nodes = (
"399 293 LINE SMOOTH",
"422 293 OFFCURVE",
"432 301 OFFCURVE",
"432 321 CURVE SMOOTH",
"432 414 LINE SMOOTH",
"432 426 OFFCURVE",
"425 434 OFFCURVE",
"414 434 CURVE SMOOTH",
"43 434 LINE SMOOTH",
"31 434 OFFCURVE",
"24 426 OFFCURVE",
"24 411 CURVE SMOOTH",
"24 318 LINE SMOOTH",
"24 301 OFFCURVE",
"30 293 OFFCURVE",
"50 293 CURVE SMOOTH"
);
}
);
};
components = (
{
name = D;
transform = "{1, 0, 0, 1, 20, 0}";
}
);
layerId = "258ED206-D907-4350-8EBA-CBDDA1C16BF7";
paths = (
{
closed = 1;
nodes = (
"399 293 LINE SMOOTH",
"422 293 OFFCURVE",
"432 301 OFFCURVE",
"432 321 CURVE SMOOTH",
"432 414 LINE SMOOTH",
"432 426 OFFCURVE",
"425 434 OFFCURVE",
"414 434 CURVE SMOOTH",
"43 434 LINE SMOOTH",
"31 434 OFFCURVE",
"24 426 OFFCURVE",
"24 411 CURVE SMOOTH",
"24 318 LINE SMOOTH",
"24 301 OFFCURVE",
"30 293 OFFCURVE",
"50 293 CURVE SMOOTH"
);
}
);
width = 791;
},
{
background = {
components = (
{
name = D;
}
);
paths = (
{
closed = 1;
nodes = (
"329 353 LINE SMOOTH",
"338 353 OFFCURVE",
"342 356 OFFCURVE",
"342 364 CURVE SMOOTH",
"342 387 LINE SMOOTH",
"342 392 OFFCURVE",
"340 395 OFFCURVE",
"335 395 CURVE SMOOTH",
"42 395 LINE SMOOTH",
"37 395 OFFCURVE",
"35 392 OFFCURVE",
"35 386 CURVE SMOOTH",
"35 363 LINE SMOOTH",
"35 356 OFFCURVE",
"37 353 OFFCURVE",
"45 353 CURVE SMOOTH"
);
}
);
};
components = (
{
name = D;
}
);
layerId = "91AB5BCA-6A50-42DA-B2F7-8181BF189245";
paths = (
{
closed = 1;
nodes = (
"329 353 LINE SMOOTH",
"338 353 OFFCURVE",
"342 356 OFFCURVE",
"342 364 CURVE SMOOTH",
"342 387 LINE SMOOTH",
"342 392 OFFCURVE",
"340 395 OFFCURVE",
"335 395 CURVE SMOOTH",
"42 395 LINE SMOOTH",
"37 395 OFFCURVE",
"35 392 OFFCURVE",
"35 386 CURVE SMOOTH",
"35 363 LINE SMOOTH",
"35 356 OFFCURVE",
"37 353 OFFCURVE",
"45 353 CURVE SMOOTH"
);
}
);
width = 703;
},
{
background = {
components = (
{
name = D;
transform = "{1, 0, 0, 1, -37, 0}";
}
);
paths = (
{
closed = 1;
nodes = (
"322 353 LINE SMOOTH",
"331 353 OFFCURVE",
"335 355 OFFCURVE",
"336 363 CURVE SMOOTH",
"339 386 LINE SMOOTH",
"340 391 OFFCURVE",
"337 395 OFFCURVE",
"332 395 CURVE SMOOTH",
"39 395 LINE SMOOTH",
"34 395 OFFCURVE",
"33 393 OFFCURVE",
"32 387 CURVE SMOOTH",
"29 364 LINE SMOOTH",
"28 357 OFFCURVE",
"30 353 OFFCURVE",
"38 353 CURVE SMOOTH"
);
}
);
};
components = (
{
name = D;
transform = "{1, 0, 0, 1, -37, 0}";
}
);
layerId = "3FD4CC56-10BC-4177-A1EC-581F65825651";
paths = (
{
closed = 1;
nodes = (
"322 353 LINE SMOOTH",
"331 353 OFFCURVE",
"335 355 OFFCURVE",
"336 363 CURVE SMOOTH",
"339 386 LINE SMOOTH",
"340 391 OFFCURVE",
"337 395 OFFCURVE",
"332 395 CURVE SMOOTH",
"39 395 LINE SMOOTH",
"34 395 OFFCURVE",
"33 393 OFFCURVE",
"32 387 CURVE SMOOTH",
"29 364 LINE SMOOTH",
"28 357 OFFCURVE",
"30 353 OFFCURVE",
"38 353 CURVE SMOOTH"
);
}
);
width = 666;
},
{
background = {
components = (
{
name = D;
transform = "{1, 0, 0, 1, -17, 0}";
}
);
paths = (
{
closed = 1;
nodes = (
"387 293 LINE SMOOTH",
"410 293 OFFCURVE",
"416 295 OFFCURVE",
"419 315 CURVE SMOOTH",
"432 408 LINE SMOOTH",
"434 420 OFFCURVE",
"425 434 OFFCURVE",
"414 434 CURVE SMOOTH",
"43 434 LINE SMOOTH",
"31 434 OFFCURVE",
"27 432 OFFCURVE",
"25 417 CURVE SMOOTH",
"12 324 LINE SMOOTH",
"10 307 OFFCURVE",
"18 293 OFFCURVE",
"38 293 CURVE SMOOTH"
);
}
);
};
components = (
{
name = D;
transform = "{1, 0, 0, 1, -17, 0}";
}
);
layerId = "945F4A85-7B75-430B-91A8-74C2C4AC9571";
paths = (
{
closed = 1;
nodes = (
"387 293 LINE SMOOTH",
"410 293 OFFCURVE",
"416 295 OFFCURVE",
"419 315 CURVE SMOOTH",
"432 408 LINE SMOOTH",
"434 420 OFFCURVE",
"425 434 OFFCURVE",
"414 434 CURVE SMOOTH",
"43 434 LINE SMOOTH",
"31 434 OFFCURVE",
"27 432 OFFCURVE",
"25 417 CURVE SMOOTH",
"12 324 LINE SMOOTH",
"10 307 OFFCURVE",
"18 293 OFFCURVE",
"38 293 CURVE SMOOTH"
);
}
);
width = 754;
}
);
rightKerningGroup = O;
rightMetricsKey = D;
unicode = 00D0;
},
{
color = 5;
glyphname = E;
lastChange = "2022-07-20 12:08:12 +0000";
layers = (
{
anchors = (
{
name = bottom;
position = "{336, 0}";
},
{
name = ogonek;
position = "{610, 10}";
},
{
name = top;
position = "{336, 742}";
}
);
background = {
anchors = (
{
name = bottom;
position = "{336, 0}";
},
{
name = ogonek;
position = "{610, 10}";
},
{
name = top;
position = "{336, 742}";
}
);
paths = (
{
closed = 1;
nodes = (
"614 0 LINE SMOOTH",
"631 0 OFFCURVE",
"638 10 OFFCURVE",
"638 22 CURVE SMOOTH",
"638 145 LINE SMOOTH",
"638 159 OFFCURVE",
"630 164 OFFCURVE",
"616 164 CURVE SMOOTH",
"291 164 LINE SMOOTH",
"282 164 OFFCURVE",
"279 167 OFFCURVE",
"279 178 CURVE SMOOTH",
"279 278 LINE SMOOTH",
"279 286 OFFCURVE",
"285 292 OFFCURVE",
"295 292 CURVE SMOOTH",
"480 292 LINE SMOOTH",
"493 292 OFFCURVE",
"498 300 OFFCURVE",
"498 309 CURVE SMOOTH",
"498 433 LINE SMOOTH",
"498 446 OFFCURVE",
"491 453 OFFCURVE",
"477 453 CURVE SMOOTH",
"297 453 LINE SMOOTH",
"287 453 OFFCURVE",
"279 460 OFFCURVE",
"279 474 CURVE SMOOTH",
"279 559 LINE SMOOTH",
"279 572 OFFCURVE",
"287 578 OFFCURVE",
"302 578 CURVE SMOOTH",
"602 578 LINE SMOOTH",
"620 578 OFFCURVE",
"628 589 OFFCURVE",
"628 605 CURVE SMOOTH",
"629 721 LINE SMOOTH",
"629 734 OFFCURVE",
"623 742 OFFCURVE",
"611 742 CURVE SMOOTH",
"71 742 LINE SMOOTH",
"59 742 OFFCURVE",
"52 734 OFFCURVE",
"52 719 CURVE SMOOTH",
"52 25 LINE SMOOTH",
"52 8 OFFCURVE",
"59 0 OFFCURVE",
"79 0 CURVE SMOOTH"
);
}
);
};
layerId = "258ED206-D907-4350-8EBA-CBDDA1C16BF7";
paths = (
{
closed = 1;
nodes = (
"614 0 LINE SMOOTH",
"631 0 OFFCURVE",
"638 10 OFFCURVE",
"638 22 CURVE SMOOTH",
"638 145 LINE SMOOTH",
"638 159 OFFCURVE",
"630 164 OFFCURVE",
"616 164 CURVE SMOOTH",
"291 164 LINE SMOOTH",
"282 164 OFFCURVE",
"279 167 OFFCURVE",
"279 178 CURVE SMOOTH",
"279 278 LINE SMOOTH",
"279 286 OFFCURVE",
"285 292 OFFCURVE",
"295 292 CURVE SMOOTH",
"480 292 LINE SMOOTH",
"493 292 OFFCURVE",
"498 300 OFFCURVE",
"498 309 CURVE SMOOTH",
"498 433 LINE SMOOTH",
"498 446 OFFCURVE",
"491 453 OFFCURVE",
"477 453 CURVE SMOOTH",
"297 453 LINE SMOOTH",
"287 453 OFFCURVE",
"279 460 OFFCURVE",
"279 474 CURVE SMOOTH",
"279 559 LINE SMOOTH",
"279 572 OFFCURVE",
"287 578 OFFCURVE",
"302 578 CURVE SMOOTH",
"602 578 LINE SMOOTH",
"620 578 OFFCURVE",
"628 589 OFFCURVE",
"628 605 CURVE SMOOTH",
"629 721 LINE SMOOTH",
"629 734 OFFCURVE",
"623 742 OFFCURVE",
"611 742 CURVE SMOOTH",
"71 742 LINE SMOOTH",
"59 742 OFFCURVE",
"52 734 OFFCURVE",
"52 719 CURVE SMOOTH",
"52 25 LINE SMOOTH",
"52 8 OFFCURVE",
"59 0 OFFCURVE",
"79 0 CURVE SMOOTH"
);
}
);
width = 671;
},
{
anchors = (
{
name = bottom;
position = "{364, 0}";
},
{
name = ogonek;
position = "{549, 10}";
},
{
name = top;
position = "{345, 742}";
}
);
background = {
anchors = (
{
name = bottom;
position = "{364, 0}";
},
{
name = ogonek;
position = "{549, 10}";
},
{
name = top;
position = "{345, 742}";
}
);
paths = (
{
closed = 1;
nodes = (
"553 0 LINE SMOOTH",
"558 0 OFFCURVE",
"560 2 OFFCURVE",
"560 7 CURVE SMOOTH",
"560 33 LINE SMOOTH",
"560 39 OFFCURVE",
"558 40 OFFCURVE",
"552 40 CURVE SMOOTH",
"169 40 LINE SMOOTH",
"162 40 OFFCURVE",
"160 41 OFFCURVE",
"160 49 CURVE SMOOTH",
"160 346 LINE SMOOTH",
"160 354 OFFCURVE",
"162 355 OFFCURVE",
"169 355 CURVE SMOOTH",
"457 355 LINE SMOOTH",
"463 355 OFFCURVE",
"465 356 OFFCURVE",
"465 362 CURVE SMOOTH",
"465 388 LINE SMOOTH",
"465 393 OFFCURVE",
"463 395 OFFCURVE",
"458 395 CURVE SMOOTH",
"169 395 LINE SMOOTH",
"162 395 OFFCURVE",
"160 396 OFFCURVE",
"160 402 CURVE SMOOTH",
"160 693 LINE SMOOTH",
"160 701 OFFCURVE",
"162 702 OFFCURVE",
"169 702 CURVE SMOOTH",
"537 702 LINE SMOOTH",
"543 702 OFFCURVE",
"545 703 OFFCURVE",
"545 709 CURVE SMOOTH",
"545 735 LINE SMOOTH",
"545 740 OFFCURVE",
"543 742 OFFCURVE",
"538 742 CURVE SMOOTH",
"123 742 LINE SMOOTH",
"116 742 OFFCURVE",
"114 740 OFFCURVE",
"114 732 CURVE SMOOTH",
"114 10 LINE SMOOTH",
"114 2 OFFCURVE",
"116 0 OFFCURVE",
"123 0 CURVE SMOOTH"
);
}
);
};
layerId = "91AB5BCA-6A50-42DA-B2F7-8181BF189245";
paths = (
{
closed = 1;
nodes = (
"553 0 LINE SMOOTH",
"558 0 OFFCURVE",
"560 2 OFFCURVE",
"560 7 CURVE SMOOTH",
"560 33 LINE SMOOTH",
"560 39 OFFCURVE",
"558 40 OFFCURVE",
"552 40 CURVE SMOOTH",
"169 40 LINE SMOOTH",
"162 40 OFFCURVE",
"160 41 OFFCURVE",
"160 49 CURVE SMOOTH",
"160 346 LINE SMOOTH",
"160 354 OFFCURVE",
"162 355 OFFCURVE",
"169 355 CURVE SMOOTH",
"457 355 LINE SMOOTH",
"463 355 OFFCURVE",
"465 356 OFFCURVE",
"465 362 CURVE SMOOTH",
"465 388 LINE SMOOTH",
"465 393 OFFCURVE",
"463 395 OFFCURVE",
"458 395 CURVE SMOOTH",
"169 395 LINE SMOOTH",
"162 395 OFFCURVE",
"160 396 OFFCURVE",
"160 402 CURVE SMOOTH",
"160 693 LINE SMOOTH",
"160 701 OFFCURVE",
"162 702 OFFCURVE",
"169 702 CURVE SMOOTH",
"537 702 LINE SMOOTH",
"543 702 OFFCURVE",
"545 703 OFFCURVE",
"545 709 CURVE SMOOTH",
"545 735 LINE SMOOTH",
"545 740 OFFCURVE",
"543 742 OFFCURVE",
"538 742 CURVE SMOOTH",
"123 742 LINE SMOOTH",
"116 742 OFFCURVE",
"114 740 OFFCURVE",
"114 732 CURVE SMOOTH",
"114 10 LINE SMOOTH",
"114 2 OFFCURVE",
"116 0 OFFCURVE",
"123 0 CURVE SMOOTH"
);
}
);
width = 612;
},
{
anchors = (
{
name = bottom;
position = "{327, 0}";
},
{
name = ogonek;
position = "{513, 10}";
},
{
name = top;
position = "{412, 742}";
}
);
background = {
anchors = (
{
name = bottom;
position = "{327, 0}";
},
{
name = ogonek;
position = "{513, 10}";
},
{
name = top;
position = "{412, 742}";
}
);
paths = (
{
closed = 1;
nodes = (
"517 0 LINE SMOOTH",
"522 0 OFFCURVE",
"523 1 OFFCURVE",
"524 6 CURVE SMOOTH",
"527 32 LINE SMOOTH",
"528 38 OFFCURVE",
"525 40 OFFCURVE",
"519 40 CURVE SMOOTH",
"136 40 LINE SMOOTH",
"130 40 OFFCURVE",
"129 42 OFFCURVE",
"130 48 CURVE SMOOTH",
"171 345 LINE SMOOTH",
"172 353 OFFCURVE",
"174 355 OFFCURVE",
"181 355 CURVE SMOOTH",
"469 355 LINE SMOOTH",
"475 355 OFFCURVE",
"477 356 OFFCURVE",
"478 362 CURVE SMOOTH",
"482 387 LINE SMOOTH",
"483 392 OFFCURVE",
"482 395 OFFCURVE",
"477 395 CURVE SMOOTH",
"185 395 LINE SMOOTH",
"179 395 OFFCURVE",
"178 397 OFFCURVE",
"179 401 CURVE SMOOTH",
"220 694 LINE SMOOTH",
"221 700 OFFCURVE",
"223 702 OFFCURVE",
"230 702 CURVE SMOOTH",
"598 702 LINE SMOOTH",
"604 702 OFFCURVE",
"607 704 OFFCURVE",
"608 710 CURVE SMOOTH",
"611 734 LINE SMOOTH",
"612 739 OFFCURVE",
"611 742 OFFCURVE",
"606 742 CURVE SMOOTH",
"189 742 LINE SMOOTH",
"182 742 OFFCURVE",
"181 741 OFFCURVE",
"180 733 CURVE SMOOTH",
"78 11 LINE SMOOTH",
"77 3 OFFCURVE",
"80 0 OFFCURVE",
"87 0 CURVE SMOOTH"
);
}
);
};
layerId = "3FD4CC56-10BC-4177-A1EC-581F65825651";
paths = (
{
closed = 1;
nodes = (
"517 0 LINE SMOOTH",
"522 0 OFFCURVE",
"523 1 OFFCURVE",
"524 6 CURVE SMOOTH",
"527 32 LINE SMOOTH",
"528 38 OFFCURVE",
"525 40 OFFCURVE",
"519 40 CURVE SMOOTH",
"136 40 LINE SMOOTH",
"130 40 OFFCURVE",
"129 42 OFFCURVE",
"130 48 CURVE SMOOTH",
"171 345 LINE SMOOTH",
"172 353 OFFCURVE",
"174 355 OFFCURVE",
"181 355 CURVE SMOOTH",
"469 355 LINE SMOOTH",
"475 355 OFFCURVE",
"477 356 OFFCURVE",
"478 362 CURVE SMOOTH",
"482 387 LINE SMOOTH",
"483 392 OFFCURVE",
"482 395 OFFCURVE",
"477 395 CURVE SMOOTH",
"185 395 LINE SMOOTH",
"179 395 OFFCURVE",
"178 397 OFFCURVE",
"179 401 CURVE SMOOTH",
"220 694 LINE SMOOTH",
"221 700 OFFCURVE",
"223 702 OFFCURVE",
"230 702 CURVE SMOOTH",
"598 702 LINE SMOOTH",
"604 702 OFFCURVE",
"607 704 OFFCURVE",
"608 710 CURVE SMOOTH",
"611 734 LINE SMOOTH",
"612 739 OFFCURVE",
"611 742 OFFCURVE",
"606 742 CURVE SMOOTH",
"189 742 LINE SMOOTH",
"182 742 OFFCURVE",
"181 741 OFFCURVE",
"180 733 CURVE SMOOTH",
"78 11 LINE SMOOTH",
"77 3 OFFCURVE",
"80 0 OFFCURVE",
"87 0 CURVE SMOOTH"
);
}
);
width = 612;
},
{
anchors = (
{
name = bottom;
position = "{299, 0}";
},
{
name = ogonek;
position = "{574, 10}";
},
{
name = top;
position = "{403, 742}";
}
);
background = {
anchors = (
{
name = bottom;
position = "{299, 0}";
},
{
name = ogonek;
position = "{574, 10}";
},
{
name = top;
position = "{403, 742}";
}
);
paths = (
{
closed = 1;
nodes = (
"581 0 LINE SMOOTH",
"598 0 OFFCURVE",
"601 4 OFFCURVE",
"603 16 CURVE SMOOTH",
"620 145 LINE SMOOTH",
"622 159 OFFCURVE",
"620 164 OFFCURVE",
"606 164 CURVE SMOOTH",
"273 164 LINE SMOOTH",
"266 164 OFFCURVE",
"265 168 OFFCURVE",
"266 177 CURVE SMOOTH",
"280 276 LINE SMOOTH",
"282 288 OFFCURVE",
"285 292 OFFCURVE",
"295 292 CURVE SMOOTH",
"488 292 LINE SMOOTH",
"500 292 OFFCURVE",
"503 295 OFFCURVE",
"504 305 CURVE SMOOTH",
"522 436 LINE SMOOTH",
"524 448 OFFCURVE",
"522 453 OFFCURVE",
"508 453 CURVE SMOOTH",
"319 453 LINE SMOOTH",
"309 453 OFFCURVE",
"306 454 OFFCURVE",
"308 468 CURVE SMOOTH",
"321 560 LINE SMOOTH",
"323 575 OFFCURVE",
"328 578 OFFCURVE",
"340 578 CURVE SMOOTH",
"650 578 LINE SMOOTH",
"668 578 OFFCURVE",
"673 583 OFFCURVE",
"675 599 CURVE SMOOTH",
"692 715 LINE SMOOTH",
"695 733 OFFCURVE",
"690 742 OFFCURVE",
"678 742 CURVE SMOOTH",
"134 742 LINE SMOOTH",
"122 742 OFFCURVE",
"119 740 OFFCURVE",
"117 725 CURVE SMOOTH",
"19 31 LINE SMOOTH",
"16 10 OFFCURVE",
"22 0 OFFCURVE",
"43 0 CURVE SMOOTH"
);
}
);
};
layerId = "945F4A85-7B75-430B-91A8-74C2C4AC9571";
paths = (
{
closed = 1;
nodes = (
"581 0 LINE SMOOTH",
"598 0 OFFCURVE",
"601 4 OFFCURVE",
"603 16 CURVE SMOOTH",
"620 145 LINE SMOOTH",
"622 159 OFFCURVE",
"620 164 OFFCURVE",
"606 164 CURVE SMOOTH",
"273 164 LINE SMOOTH",
"266 164 OFFCURVE",
"265 168 OFFCURVE",
"266 177 CURVE SMOOTH",
"280 276 LINE SMOOTH",
"282 288 OFFCURVE",
"285 292 OFFCURVE",
"295 292 CURVE SMOOTH",
"488 292 LINE SMOOTH",
"500 292 OFFCURVE",
"503 295 OFFCURVE",
"504 305 CURVE SMOOTH",
"522 436 LINE SMOOTH",
"524 448 OFFCURVE",
"522 453 OFFCURVE",
"508 453 CURVE SMOOTH",
"319 453 LINE SMOOTH",
"309 453 OFFCURVE",
"306 454 OFFCURVE",
"308 468 CURVE SMOOTH",
"321 560 LINE SMOOTH",
"323 575 OFFCURVE",
"328 578 OFFCURVE",
"340 578 CURVE SMOOTH",
"650 578 LINE SMOOTH",
"668 578 OFFCURVE",
"673 583 OFFCURVE",
"675 599 CURVE SMOOTH",
"692 715 LINE SMOOTH",
"695 733 OFFCURVE",
"690 742 OFFCURVE",
"678 742 CURVE SMOOTH",
"134 742 LINE SMOOTH",
"122 742 OFFCURVE",
"119 740 OFFCURVE",
"117 725 CURVE SMOOTH",
"19 31 LINE SMOOTH",
"16 10 OFFCURVE",
"22 0 OFFCURVE",
"43 0 CURVE SMOOTH"
);
}
);
width = 671;
}
);
rightKerningGroup = E;
unicode = 0045;
},
{
color = 5;
glyphname = Schwa;
lastChange = "2022-07-20 14:06:59 +0000";
layers = (
{
background = {
paths = (
{
closed = 1;
nodes = (
"577 -10 OFFCURVE",
"746 158 OFFCURVE",
"746 380 CURVE SMOOTH",
"746 599 OFFCURVE",
"609 752 OFFCURVE",
"387 752 CURVE SMOOTH",
"241 752 OFFCURVE",
"135 689 OFFCURVE",
"73 567 CURVE SMOOTH",
"65 551 OFFCURVE",
"66 542 OFFCURVE",
"78 536 CURVE SMOOTH",
"216 468 LINE SMOOTH",
"233 459 OFFCURVE",
"239 462 OFFCURVE",
"243 469 CURVE SMOOTH",
"289 544 OFFCURVE",
"327 578 OFFCURVE",
"389 578 CURVE SMOOTH",
"487 578 OFFCURVE",
"506 506 OFFCURVE",
"506 447 CURVE SMOOTH",
"506 431 OFFCURVE",
"499 425 OFFCURVE",
"486 425 CURVE SMOOTH",
"53 425 LINE SMOOTH",
"31 425 OFFCURVE",
"30 414 OFFCURVE",
"30 392 CURVE SMOOTH",
"30 136 OFFCURVE",
"151 -10 OFFCURVE",
"384 -10 CURVE SMOOTH"
);
},
{
closed = 1;
nodes = (
"314 146 OFFCURVE",
"273 201 OFFCURVE",
"273 267 CURVE SMOOTH",
"273 282 OFFCURVE",
"278 285 OFFCURVE",
"295 285 CURVE SMOOTH",
"504 284 LINE",
"492 192 OFFCURVE",
"463 146 OFFCURVE",
"382 146 CURVE SMOOTH"
);
}
);
};
layerId = "258ED206-D907-4350-8EBA-CBDDA1C16BF7";
paths = (
{
closed = 1;
nodes = (
"577 -10 OFFCURVE",
"746 158 OFFCURVE",
"746 380 CURVE SMOOTH",
"746 599 OFFCURVE",
"609 752 OFFCURVE",
"387 752 CURVE SMOOTH",
"241 752 OFFCURVE",
"135 689 OFFCURVE",
"73 567 CURVE SMOOTH",
"65 551 OFFCURVE",
"66 542 OFFCURVE",
"78 536 CURVE SMOOTH",
"216 468 LINE SMOOTH",
"233 459 OFFCURVE",
"239 462 OFFCURVE",
"243 469 CURVE SMOOTH",
"289 544 OFFCURVE",
"327 578 OFFCURVE",
"389 578 CURVE SMOOTH",
"487 578 OFFCURVE",
"506 506 OFFCURVE",
"506 447 CURVE SMOOTH",
"506 431 OFFCURVE",
"499 425 OFFCURVE",
"486 425 CURVE SMOOTH",
"53 425 LINE SMOOTH",
"31 425 OFFCURVE",
"30 414 OFFCURVE",
"30 392 CURVE SMOOTH",
"30 136 OFFCURVE",
"151 -10 OFFCURVE",
"384 -10 CURVE SMOOTH"
);
},
{
closed = 1;
nodes = (
"314 146 OFFCURVE",
"273 201 OFFCURVE",
"273 267 CURVE SMOOTH",
"273 282 OFFCURVE",
"278 285 OFFCURVE",
"295 285 CURVE SMOOTH",
"504 284 LINE",
"492 192 OFFCURVE",
"463 146 OFFCURVE",
"382 146 CURVE SMOOTH"
);
}
);
width = 776;
},
{
background = {
paths = (
{
closed = 1;
nodes = (
"599 -10 OFFCURVE",
"670 180 OFFCURVE",
"670 366 CURVE SMOOTH",
"670 531 OFFCURVE",
"620 752 OFFCURVE",
"370 752 CURVE SMOOTH",
"142 752 OFFCURVE",
"98 560 OFFCURVE",
"83 522 CURVE SMOOTH",
"81 517 OFFCURVE",
"80 514 OFFCURVE",
"84 513 CURVE SMOOTH",
"122 500 LINE SMOOTH",
"126 499 OFFCURVE",
"128 498 OFFCURVE",
"129 500 CURVE SMOOTH",
"143 531 OFFCURVE",
"161 709 OFFCURVE",
"370 709 CURVE SMOOTH",
"588 709 OFFCURVE",
"618 504 OFFCURVE",
"618 386 CURVE SMOOTH",
"618 381 OFFCURVE",
"617 380 OFFCURVE",
"612 380 CURVE SMOOTH",
"77 380 LINE SMOOTH",
"69 380 OFFCURVE",
"69 375 OFFCURVE",
"69 369 CURVE SMOOTH",
"69 174 OFFCURVE",
"135 -10 OFFCURVE",
"370 -10 CURVE SMOOTH"
);
},
{
closed = 1;
nodes = (
"173 33 OFFCURVE",
"121 192 OFFCURVE",
"121 332 CURVE SMOOTH",
"121 336 OFFCURVE",
"123 338 OFFCURVE",
"129 338 CURVE SMOOTH",
"618 338 LINE",
"615 191 OFFCURVE",
"566 33 OFFCURVE",
"370 33 CURVE SMOOTH"
);
}
);
};
layerId = "91AB5BCA-6A50-42DA-B2F7-8181BF189245";
paths = (
{
closed = 1;
nodes = (
"599 -10 OFFCURVE",
"670 180 OFFCURVE",
"670 366 CURVE SMOOTH",
"670 531 OFFCURVE",
"620 752 OFFCURVE",
"370 752 CURVE SMOOTH",
"142 752 OFFCURVE",
"98 560 OFFCURVE",
"83 522 CURVE SMOOTH",
"81 517 OFFCURVE",
"80 514 OFFCURVE",
"84 513 CURVE SMOOTH",
"122 500 LINE SMOOTH",
"126 499 OFFCURVE",
"128 498 OFFCURVE",
"129 500 CURVE SMOOTH",
"143 531 OFFCURVE",
"161 709 OFFCURVE",
"370 709 CURVE SMOOTH",
"588 709 OFFCURVE",
"618 504 OFFCURVE",
"618 386 CURVE SMOOTH",
"618 381 OFFCURVE",
"617 380 OFFCURVE",
"612 380 CURVE SMOOTH",
"77 380 LINE SMOOTH",
"69 380 OFFCURVE",
"69 375 OFFCURVE",
"69 369 CURVE SMOOTH",
"69 174 OFFCURVE",
"135 -10 OFFCURVE",
"370 -10 CURVE SMOOTH"
);
},
{
closed = 1;
nodes = (
"173 33 OFFCURVE",
"121 192 OFFCURVE",
"121 332 CURVE SMOOTH",
"121 336 OFFCURVE",
"123 338 OFFCURVE",
"129 338 CURVE SMOOTH",
"618 338 LINE",
"615 191 OFFCURVE",
"566 33 OFFCURVE",
"370 33 CURVE SMOOTH"
);
}
);
width = 739;
},
{
background = {
paths = (
{
closed = 1;
nodes = (
"562 -10 OFFCURVE",
"659 179 OFFCURVE",
"685 364 CURVE SMOOTH",
"708 530 OFFCURVE",
"688 752 OFFCURVE",
"437 752 CURVE SMOOTH",
"210 752 OFFCURVE",
"141 561 OFFCURVE",
"119 524 CURVE SMOOTH",
"118 518 OFFCURVE",
"117 514 OFFCURVE",
"121 513 CURVE SMOOTH",
"157 500 LINE SMOOTH",
"161 499 OFFCURVE",
"162 497 OFFCURVE",
"164 498 CURVE SMOOTH",
"181 530 OFFCURVE",
"225 709 OFFCURVE",
"435 709 CURVE SMOOTH",
"652 709 OFFCURVE",
"653 505 OFFCURVE",
"636 388 CURVE SMOOTH",
"635 382 OFFCURVE",
"633 380 OFFCURVE",
"628 380 CURVE SMOOTH",
"93 380 LINE SMOOTH",
"85 380 OFFCURVE",
"86 376 OFFCURVE",
"85 371 CURVE SMOOTH",
"57 175 OFFCURVE",
"98 -10 OFFCURVE",
"334 -10 CURVE SMOOTH"
);
},
{
closed = 1;
nodes = (
"140 33 OFFCURVE",
"112 191 OFFCURVE",
"131 330 CURVE SMOOTH",
"132 335 OFFCURVE",
"135 338 OFFCURVE",
"141 338 CURVE SMOOTH",
"629 339 LINE",
"606 192 OFFCURVE",
"533 33 OFFCURVE",
"336 33 CURVE SMOOTH"
);
}
);
};
layerId = "3FD4CC56-10BC-4177-A1EC-581F65825651";
paths = (
{
closed = 1;
nodes = (
"562 -10 OFFCURVE",
"659 179 OFFCURVE",
"685 364 CURVE SMOOTH",
"708 530 OFFCURVE",
"688 752 OFFCURVE",
"437 752 CURVE SMOOTH",
"210 752 OFFCURVE",
"141 561 OFFCURVE",
"119 524 CURVE SMOOTH",
"118 518 OFFCURVE",
"117 514 OFFCURVE",
"121 513 CURVE SMOOTH",
"157 500 LINE SMOOTH",
"161 499 OFFCURVE",
"162 497 OFFCURVE",
"164 498 CURVE SMOOTH",
"181 530 OFFCURVE",
"225 709 OFFCURVE",
"435 709 CURVE SMOOTH",
"652 709 OFFCURVE",
"653 505 OFFCURVE",
"636 388 CURVE SMOOTH",
"635 382 OFFCURVE",
"633 380 OFFCURVE",
"628 380 CURVE SMOOTH",
"93 380 LINE SMOOTH",
"85 380 OFFCURVE",
"86 376 OFFCURVE",
"85 371 CURVE SMOOTH",
"57 175 OFFCURVE",
"98 -10 OFFCURVE",
"334 -10 CURVE SMOOTH"
);
},
{
closed = 1;
nodes = (
"140 33 OFFCURVE",
"112 191 OFFCURVE",
"131 330 CURVE SMOOTH",
"132 335 OFFCURVE",
"135 338 OFFCURVE",
"141 338 CURVE SMOOTH",
"629 339 LINE",
"606 192 OFFCURVE",
"533 33 OFFCURVE",
"336 33 CURVE SMOOTH"
);
}
);
width = 741;
},
{
background = {
paths = (
{
closed = 1;
nodes = (
"550 -10 OFFCURVE",
"738 152 OFFCURVE",
"769 369 CURVE SMOOTH",
"800 593 OFFCURVE",
"681 752 OFFCURVE",
"455 752 CURVE SMOOTH",
"313 752 OFFCURVE",
"201 694 OFFCURVE",
"122 577 CURVE SMOOTH",
"113 556 OFFCURVE",
"116 544 OFFCURVE",
"127 538 CURVE SMOOTH",
"257 471 LINE SMOOTH",
"272 462 OFFCURVE",
"276 457 OFFCURVE",
"282 459 CURVE SMOOTH",
"338 539 OFFCURVE",
"383 578 OFFCURVE",
"449 578 CURVE SMOOTH",
"543 578 OFFCURVE",
"549 512 OFFCURVE",
"541 458 CURVE SMOOTH",
"538 437 OFFCURVE",
"525 425 OFFCURVE",
"512 425 CURVE SMOOTH",
"79 425 LINE SMOOTH",
"57 425 OFFCURVE",
"60 420 OFFCURVE",
"57 403 CURVE SMOOTH",
"21 142 OFFCURVE",
"124 -10 OFFCURVE",
"361 -10 CURVE SMOOTH"
);
},
{
closed = 1;
nodes = (
"301 146 OFFCURVE",
"271 195 OFFCURVE",
"280 256 CURVE SMOOTH",
"283 276 OFFCURVE",
"293 285 OFFCURVE",
"310 285 CURVE SMOOTH",
"515 290 LINE",
"490 198 OFFCURVE",
"450 146 OFFCURVE",
"365 146 CURVE SMOOTH"
);
}
);
};
layerId = "945F4A85-7B75-430B-91A8-74C2C4AC9571";
paths = (
{
closed = 1;
nodes = (
"550 -10 OFFCURVE",
"738 152 OFFCURVE",
"769 369 CURVE SMOOTH",
"800 593 OFFCURVE",
"681 752 OFFCURVE",
"455 752 CURVE SMOOTH",
"313 752 OFFCURVE",
"201 694 OFFCURVE",
"122 577 CURVE SMOOTH",
"113 556 OFFCURVE",
"116 544 OFFCURVE",
"127 538 CURVE SMOOTH",
"257 471 LINE SMOOTH",
"272 462 OFFCURVE",
"276 457 OFFCURVE",
"282 459 CURVE SMOOTH",
"338 539 OFFCURVE",
"383 578 OFFCURVE",
"449 578 CURVE SMOOTH",
"543 578 OFFCURVE",
"549 512 OFFCURVE",
"541 458 CURVE SMOOTH",
"538 437 OFFCURVE",
"525 425 OFFCURVE",
"512 425 CURVE SMOOTH",
"79 425 LINE SMOOTH",
"57 425 OFFCURVE",
"60 420 OFFCURVE",
"57 403 CURVE SMOOTH",
"21 142 OFFCURVE",
"124 -10 OFFCURVE",
"361 -10 CURVE SMOOTH"
);
},
{
closed = 1;
nodes = (
"301 146 OFFCURVE",
"271 195 OFFCURVE",
"280 256 CURVE SMOOTH",
"283 276 OFFCURVE",
"293 285 OFFCURVE",
"310 285 CURVE SMOOTH",
"515 290 LINE",
"490 198 OFFCURVE",
"450 146 OFFCURVE",
"365 146 CURVE SMOOTH"
);
}
);
width = 791;
}
);
leftMetricsKey = O;
rightMetricsKey = O;
unicode = 018F;
},
{
color = 5;
glyphname = F;
lastChange = "2022-07-20 12:08:12 +0000";
layers = (
{
background = {
paths = (
{
closed = 1;
nodes = (
"246 0 LINE SMOOTH",
"269 0 OFFCURVE",
"279 8 OFFCURVE",
"279 29 CURVE SMOOTH",
"279 271 LINE SMOOTH",
"279 280 OFFCURVE",
"285 286 OFFCURVE",
"295 286 CURVE SMOOTH",
"482 286 LINE SMOOTH",
"496 286 OFFCURVE",
"500 293 OFFCURVE",
"500 303 CURVE SMOOTH",
"500 425 LINE SMOOTH",
"500 438 OFFCURVE",
"494 445 OFFCURVE",
"480 445 CURVE SMOOTH",
"297 445 LINE SMOOTH",
"286 445 OFFCURVE",
"279 451 OFFCURVE",
"279 465 CURVE SMOOTH",
"279 559 LINE SMOOTH",
"279 572 OFFCURVE",
"286 578 OFFCURVE",
"302 578 CURVE SMOOTH",
"596 578 LINE SMOOTH",
"614 578 OFFCURVE",
"621 589 OFFCURVE",
"621 605 CURVE SMOOTH",
"622 721 LINE SMOOTH",
"622 734 OFFCURVE",
"616 742 OFFCURVE",
"604 742 CURVE SMOOTH",
"71 742 LINE SMOOTH",
"60 742 OFFCURVE",
"52 734 OFFCURVE",
"52 719 CURVE SMOOTH",
"52 25 LINE SMOOTH",
"52 8 OFFCURVE",
"58 0 OFFCURVE",
"79 0 CURVE"
);
}
);
};
layerId = "258ED206-D907-4350-8EBA-CBDDA1C16BF7";
paths = (
{
closed = 1;
nodes = (
"246 0 LINE SMOOTH",
"269 0 OFFCURVE",
"279 8 OFFCURVE",
"279 29 CURVE SMOOTH",
"279 271 LINE SMOOTH",
"279 280 OFFCURVE",
"285 286 OFFCURVE",
"295 286 CURVE SMOOTH",
"482 286 LINE SMOOTH",
"496 286 OFFCURVE",
"500 293 OFFCURVE",
"500 303 CURVE SMOOTH",
"500 425 LINE SMOOTH",
"500 438 OFFCURVE",
"494 445 OFFCURVE",
"480 445 CURVE SMOOTH",
"297 445 LINE SMOOTH",
"286 445 OFFCURVE",
"279 451 OFFCURVE",
"279 465 CURVE SMOOTH",
"279 559 LINE SMOOTH",
"279 572 OFFCURVE",
"286 578 OFFCURVE",
"302 578 CURVE SMOOTH",
"596 578 LINE SMOOTH",
"614 578 OFFCURVE",
"621 589 OFFCURVE",
"621 605 CURVE SMOOTH",
"622 721 LINE SMOOTH",
"622 734 OFFCURVE",
"616 742 OFFCURVE",
"604 742 CURVE SMOOTH",
"71 742 LINE SMOOTH",
"60 742 OFFCURVE",
"52 734 OFFCURVE",
"52 719 CURVE SMOOTH",
"52 25 LINE SMOOTH",
"52 8 OFFCURVE",
"58 0 OFFCURVE",
"79 0 CURVE"
);
}
);
width = 650;
},
{
background = {
paths = (
{
closed = 1;
nodes = (
"153 0 LINE SMOOTH",
"158 0 OFFCURVE",
"160 2 OFFCURVE",
"160 7 CURVE SMOOTH",
"160 333 LINE SMOOTH",
"160 341 OFFCURVE",
"162 342 OFFCURVE",
"169 342 CURVE SMOOTH",
"467 342 LINE SMOOTH",
"473 342 OFFCURVE",
"475 343 OFFCURVE",
"475 349 CURVE SMOOTH",
"475 375 LINE SMOOTH",
"475 380 OFFCURVE",
"473 382 OFFCURVE",
"468 382 CURVE SMOOTH",
"169 382 LINE SMOOTH",
"162 382 OFFCURVE",
"160 383 OFFCURVE",
"160 389 CURVE SMOOTH",
"160 693 LINE SMOOTH",
"160 701 OFFCURVE",
"162 702 OFFCURVE",
"169 702 CURVE SMOOTH",
"527 702 LINE SMOOTH",
"533 702 OFFCURVE",
"535 703 OFFCURVE",
"535 709 CURVE SMOOTH",
"535 735 LINE SMOOTH",
"535 740 OFFCURVE",
"533 742 OFFCURVE",
"528 742 CURVE SMOOTH",
"123 742 LINE SMOOTH",
"116 742 OFFCURVE",
"114 740 OFFCURVE",
"114 732 CURVE SMOOTH",
"114 10 LINE SMOOTH",
"114 2 OFFCURVE",
"116 0 OFFCURVE",
"123 0 CURVE SMOOTH"
);
}
);
};
layerId = "91AB5BCA-6A50-42DA-B2F7-8181BF189245";
paths = (
{
closed = 1;
nodes = (
"153 0 LINE SMOOTH",
"158 0 OFFCURVE",
"160 2 OFFCURVE",
"160 7 CURVE SMOOTH",
"160 333 LINE SMOOTH",
"160 341 OFFCURVE",
"162 342 OFFCURVE",
"169 342 CURVE SMOOTH",
"467 342 LINE SMOOTH",
"473 342 OFFCURVE",
"475 343 OFFCURVE",
"475 349 CURVE SMOOTH",
"475 375 LINE SMOOTH",
"475 380 OFFCURVE",
"473 382 OFFCURVE",
"468 382 CURVE SMOOTH",
"169 382 LINE SMOOTH",
"162 382 OFFCURVE",
"160 383 OFFCURVE",
"160 389 CURVE SMOOTH",
"160 693 LINE SMOOTH",
"160 701 OFFCURVE",
"162 702 OFFCURVE",
"169 702 CURVE SMOOTH",
"527 702 LINE SMOOTH",
"533 702 OFFCURVE",
"535 703 OFFCURVE",
"535 709 CURVE SMOOTH",
"535 735 LINE SMOOTH",
"535 740 OFFCURVE",
"533 742 OFFCURVE",
"528 742 CURVE SMOOTH",
"123 742 LINE SMOOTH",
"116 742 OFFCURVE",
"114 740 OFFCURVE",
"114 732 CURVE SMOOTH",
"114 10 LINE SMOOTH",
"114 2 OFFCURVE",
"116 0 OFFCURVE",
"123 0 CURVE SMOOTH"
);
}
);
width = 583;
},
{
background = {
paths = (
{
closed = 1;
nodes = (
"114 0 LINE SMOOTH",
"119 0 OFFCURVE",
"123 1 OFFCURVE",
"124 6 CURVE SMOOTH",
"169 332 LINE SMOOTH",
"171 340 OFFCURVE",
"172 342 OFFCURVE",
"179 342 CURVE SMOOTH",
"479 342 LINE SMOOTH",
"485 342 OFFCURVE",
"488 345 OFFCURVE",
"488 351 CURVE SMOOTH",
"490 375 LINE SMOOTH",
"490 380 OFFCURVE",
"488 382 OFFCURVE",
"483 382 CURVE SMOOTH",
"185 382 LINE SMOOTH",
"178 382 OFFCURVE",
"177 385 OFFCURVE",
"178 391 CURVE SMOOTH",
"220 692 LINE SMOOTH",
"221 700 OFFCURVE",
"224 702 OFFCURVE",
"231 702 CURVE SMOOTH",
"589 702 LINE SMOOTH",
"595 702 OFFCURVE",
"597 704 OFFCURVE",
"598 710 CURVE SMOOTH",
"601 734 LINE SMOOTH",
"602 739 OFFCURVE",
"599 742 OFFCURVE",
"594 742 CURVE SMOOTH",
"190 742 LINE SMOOTH",
"183 742 OFFCURVE",
"181 741 OFFCURVE",
"180 732 CURVE SMOOTH",
"78 11 LINE SMOOTH",
"77 3 OFFCURVE",
"77 0 OFFCURVE",
"84 0 CURVE SMOOTH"
);
}
);
};
layerId = "3FD4CC56-10BC-4177-A1EC-581F65825651";
paths = (
{
closed = 1;
nodes = (
"114 0 LINE SMOOTH",
"119 0 OFFCURVE",
"123 1 OFFCURVE",
"124 6 CURVE SMOOTH",
"169 332 LINE SMOOTH",
"171 340 OFFCURVE",
"172 342 OFFCURVE",
"179 342 CURVE SMOOTH",
"479 342 LINE SMOOTH",
"485 342 OFFCURVE",
"488 345 OFFCURVE",
"488 351 CURVE SMOOTH",
"490 375 LINE SMOOTH",
"490 380 OFFCURVE",
"488 382 OFFCURVE",
"483 382 CURVE SMOOTH",
"185 382 LINE SMOOTH",
"178 382 OFFCURVE",
"177 385 OFFCURVE",
"178 391 CURVE SMOOTH",
"220 692 LINE SMOOTH",
"221 700 OFFCURVE",
"224 702 OFFCURVE",
"231 702 CURVE SMOOTH",
"589 702 LINE SMOOTH",
"595 702 OFFCURVE",
"597 704 OFFCURVE",
"598 710 CURVE SMOOTH",
"601 734 LINE SMOOTH",
"602 739 OFFCURVE",
"599 742 OFFCURVE",
"594 742 CURVE SMOOTH",
"190 742 LINE SMOOTH",
"183 742 OFFCURVE",
"181 741 OFFCURVE",
"180 732 CURVE SMOOTH",
"78 11 LINE SMOOTH",
"77 3 OFFCURVE",
"77 0 OFFCURVE",
"84 0 CURVE SMOOTH"
);
}
);
width = 583;
},
{
background = {
paths = (
{
closed = 1;
nodes = (
"219 0 LINE SMOOTH",
"239 0 OFFCURVE",
"242 3 OFFCURVE",
"245 23 CURVE SMOOTH",
"279 265 LINE SMOOTH",
"282 284 OFFCURVE",
"285 286 OFFCURVE",
"295 286 CURVE SMOOTH",
"485 286 LINE SMOOTH",
"499 286 OFFCURVE",
"503 288 OFFCURVE",
"505 300 CURVE SMOOTH",
"524 432 LINE SMOOTH",
"525 443 OFFCURVE",
"523 445 OFFCURVE",
"512 445 CURVE SMOOTH",
"317 445 LINE SMOOTH",
"306 445 OFFCURVE",
"304 447 OFFCURVE",
"306 459 CURVE SMOOTH",
"320 556 LINE SMOOTH",
"322 574 OFFCURVE",
"325 578 OFFCURVE",
"335 578 CURVE SMOOTH",
"644 578 LINE SMOOTH",
"662 578 OFFCURVE",
"666 583 OFFCURVE",
"668 599 CURVE SMOOTH",
"686 723 LINE SMOOTH",
"688 737 OFFCURVE",
"686 742 OFFCURVE",
"675 742 CURVE SMOOTH",
"134 742 LINE SMOOTH",
"123 742 OFFCURVE",
"119 740 OFFCURVE",
"117 725 CURVE SMOOTH",
"19 31 LINE SMOOTH",
"15 4 OFFCURVE",
"17 0 OFFCURVE",
"38 0 CURVE SMOOTH"
);
}
);
};
layerId = "945F4A85-7B75-430B-91A8-74C2C4AC9571";
paths = (
{
closed = 1;
nodes = (
"219 0 LINE SMOOTH",
"239 0 OFFCURVE",
"242 3 OFFCURVE",
"245 23 CURVE SMOOTH",
"279 265 LINE SMOOTH",
"282 284 OFFCURVE",
"285 286 OFFCURVE",
"295 286 CURVE SMOOTH",
"485 286 LINE SMOOTH",
"499 286 OFFCURVE",
"503 288 OFFCURVE",
"505 300 CURVE SMOOTH",
"524 432 LINE SMOOTH",
"525 443 OFFCURVE",
"523 445 OFFCURVE",
"512 445 CURVE SMOOTH",
"317 445 LINE SMOOTH",
"306 445 OFFCURVE",
"304 447 OFFCURVE",
"306 459 CURVE SMOOTH",
"320 556 LINE SMOOTH",
"322 574 OFFCURVE",
"325 578 OFFCURVE",
"335 578 CURVE SMOOTH",
"644 578 LINE SMOOTH",
"662 578 OFFCURVE",
"666 583 OFFCURVE",
"668 599 CURVE SMOOTH",
"686 723 LINE SMOOTH",
"688 737 OFFCURVE",
"686 742 OFFCURVE",
"675 742 CURVE SMOOTH",
"134 742 LINE SMOOTH",
"123 742 OFFCURVE",
"119 740 OFFCURVE",
"117 725 CURVE SMOOTH",
"19 31 LINE SMOOTH",
"15 4 OFFCURVE",
"17 0 OFFCURVE",
"38 0 CURVE SMOOTH"
);
}
);
width = 650;
}
);
rightKerningGroup = F;
unicode = 0046;
},
{
color = 5;
glyphname = G;
lastChange = "2022-07-20 12:08:12 +0000";
layers = (
{
anchors = (
{
name = bottom;
position = "{382, 0}";
},
{
name = top;
position = "{382, 742}";
}
);
background = {
anchors = (
{
name = bottom;
position = "{382, 0}";
},
{
name = top;
position = "{382, 742}";
}
);
paths = (
{
closed = 1;
nodes = (
"498 -10 OFFCURVE",
"549 40 OFFCURVE",
"585 75 CURVE SMOOTH",
"590 81 OFFCURVE",
"593 81 OFFCURVE",
"596 77 CURVE SMOOTH",
"636 19 LINE SMOOTH",
"646 5 OFFCURVE",
"656 0 OFFCURVE",
"668 0 CURVE SMOOTH",
"706 0 LINE SMOOTH",
"716 0 OFFCURVE",
"723 8 OFFCURVE",
"723 17 CURVE SMOOTH",
"723 344 LINE SMOOTH",
"723 362 OFFCURVE",
"710 375 OFFCURVE",
"685 375 CURVE SMOOTH",
"405 377 LINE SMOOTH",
"390 377 OFFCURVE",
"384 370 OFFCURVE",
"384 360 CURVE SMOOTH",
"384 264 LINE SMOOTH",
"384 247 OFFCURVE",
"390 242 OFFCURVE",
"404 242 CURVE SMOOTH",
"498 242 LINE SMOOTH",
"508 242 OFFCURVE",
"511 236 OFFCURVE",
"507 225 CURVE",
"504 216 LINE",
"486 170 OFFCURVE",
"452 146 OFFCURVE",
"396 146 CURVE SMOOTH",
"320 146 OFFCURVE",
"268 193 OFFCURVE",
"268 374 CURVE SMOOTH",
"268 544 OFFCURVE",
"314 597 OFFCURVE",
"388 597 CURVE SMOOTH",
"460 597 OFFCURVE",
"495 547 OFFCURVE",
"505 492 CURVE SMOOTH",
"508 479 OFFCURVE",
"509 472 OFFCURVE",
"525 472 CURVE SMOOTH",
"696 498 LINE SMOOTH",
"712 500 OFFCURVE",
"716 505 OFFCURVE",
"710 533 CURVE SMOOTH",
"686 640 OFFCURVE",
"573 752 OFFCURVE",
"393 752 CURVE SMOOTH",
"179 752 OFFCURVE",
"30 599 OFFCURVE",
"30 368 CURVE SMOOTH",
"30 145 OFFCURVE",
"169 -10 OFFCURVE",
"380 -10 CURVE SMOOTH"
);
}
);
};
layerId = "258ED206-D907-4350-8EBA-CBDDA1C16BF7";
paths = (
{
closed = 1;
nodes = (
"498 -10 OFFCURVE",
"549 40 OFFCURVE",
"585 75 CURVE SMOOTH",
"590 81 OFFCURVE",
"593 81 OFFCURVE",
"596 77 CURVE SMOOTH",
"636 19 LINE SMOOTH",
"646 5 OFFCURVE",
"656 0 OFFCURVE",
"668 0 CURVE SMOOTH",
"706 0 LINE SMOOTH",
"716 0 OFFCURVE",
"723 8 OFFCURVE",
"723 17 CURVE SMOOTH",
"723 344 LINE SMOOTH",
"723 362 OFFCURVE",
"710 375 OFFCURVE",
"685 375 CURVE SMOOTH",
"405 377 LINE SMOOTH",
"390 377 OFFCURVE",
"384 370 OFFCURVE",
"384 360 CURVE SMOOTH",
"384 264 LINE SMOOTH",
"384 247 OFFCURVE",
"390 242 OFFCURVE",
"404 242 CURVE SMOOTH",
"498 242 LINE SMOOTH",
"508 242 OFFCURVE",
"511 236 OFFCURVE",
"507 225 CURVE",
"504 216 LINE",
"486 170 OFFCURVE",
"452 146 OFFCURVE",
"396 146 CURVE SMOOTH",
"320 146 OFFCURVE",
"268 193 OFFCURVE",
"268 374 CURVE SMOOTH",
"268 544 OFFCURVE",
"314 597 OFFCURVE",
"388 597 CURVE SMOOTH",
"460 597 OFFCURVE",
"495 547 OFFCURVE",
"505 492 CURVE SMOOTH",
"508 479 OFFCURVE",
"509 472 OFFCURVE",
"525 472 CURVE SMOOTH",
"696 498 LINE SMOOTH",
"712 500 OFFCURVE",
"716 505 OFFCURVE",
"710 533 CURVE SMOOTH",
"686 640 OFFCURVE",
"573 752 OFFCURVE",
"393 752 CURVE SMOOTH",
"179 752 OFFCURVE",
"30 599 OFFCURVE",
"30 368 CURVE SMOOTH",
"30 145 OFFCURVE",
"169 -10 OFFCURVE",
"380 -10 CURVE SMOOTH"
);
}
);
width = 761;
},
{
anchors = (
{
name = bottom;
position = "{379, 0}";
},
{
name = top;
position = "{374, 742}";
}
);
background = {
anchors = (
{
name = bottom;
position = "{379, 0}";
},
{
name = top;
position = "{374, 742}";
}
);
paths = (
{
closed = 1;
nodes = (
"484 -10 OFFCURVE",
"557 45 OFFCURVE",
"596 115 CURVE SMOOTH",
"600 122 OFFCURVE",
"604 121 OFFCURVE",
"604 115 CURVE SMOOTH",
"604 9 LINE SMOOTH",
"604 0 OFFCURVE",
"609 0 OFFCURVE",
"617 0 CURVE SMOOTH",
"634 0 LINE SMOOTH",
"641 0 OFFCURVE",
"644 2 OFFCURVE",
"644 11 CURVE SMOOTH",
"644 371 LINE SMOOTH",
"644 375 OFFCURVE",
"642 377 OFFCURVE",
"638 377 CURVE SMOOTH",
"402 377 LINE SMOOTH",
"399 377 OFFCURVE",
"397 375 OFFCURVE",
"397 371 CURVE SMOOTH",
"397 348 LINE SMOOTH",
"397 344 OFFCURVE",
"399 342 OFFCURVE",
"404 342 CURVE SMOOTH",
"593 342 LINE SMOOTH",
"599 342 OFFCURVE",
"604 341 OFFCURVE",
"604 334 CURVE SMOOTH",
"604 255 LINE SMOOTH",
"604 161 OFFCURVE",
"532 32 OFFCURVE",
"374 32 CURVE SMOOTH",
"211 32 OFFCURVE",
"126 153 OFFCURVE",
"126 374 CURVE SMOOTH",
"126 584 OFFCURVE",
"213 710 OFFCURVE",
"374 710 CURVE SMOOTH",
"480 710 OFFCURVE",
"565 640 OFFCURVE",
"581 551 CURVE SMOOTH",
"582 546 OFFCURVE",
"585 544 OFFCURVE",
"588 545 CURVE SMOOTH",
"623 551 LINE SMOOTH",
"628 552 OFFCURVE",
"628 555 OFFCURVE",
"628 559 CURVE SMOOTH",
"616 663 OFFCURVE",
"497 752 OFFCURVE",
"374 752 CURVE SMOOTH",
"193 752 OFFCURVE",
"78 614 OFFCURVE",
"78 368 CURVE SMOOTH",
"78 129 OFFCURVE",
"188 -10 OFFCURVE",
"373 -10 CURVE SMOOTH"
);
}
);
};
layerId = "91AB5BCA-6A50-42DA-B2F7-8181BF189245";
paths = (
{
closed = 1;
nodes = (
"484 -10 OFFCURVE",
"557 45 OFFCURVE",
"596 115 CURVE SMOOTH",
"600 122 OFFCURVE",
"604 121 OFFCURVE",
"604 115 CURVE SMOOTH",
"604 9 LINE SMOOTH",
"604 0 OFFCURVE",
"609 0 OFFCURVE",
"617 0 CURVE SMOOTH",
"634 0 LINE SMOOTH",
"641 0 OFFCURVE",
"644 2 OFFCURVE",
"644 11 CURVE SMOOTH",
"644 371 LINE SMOOTH",
"644 375 OFFCURVE",
"642 377 OFFCURVE",
"638 377 CURVE SMOOTH",
"402 377 LINE SMOOTH",
"399 377 OFFCURVE",
"397 375 OFFCURVE",
"397 371 CURVE SMOOTH",
"397 348 LINE SMOOTH",
"397 344 OFFCURVE",
"399 342 OFFCURVE",
"404 342 CURVE SMOOTH",
"593 342 LINE SMOOTH",
"599 342 OFFCURVE",
"604 341 OFFCURVE",
"604 334 CURVE SMOOTH",
"604 255 LINE SMOOTH",
"604 161 OFFCURVE",
"532 32 OFFCURVE",
"374 32 CURVE SMOOTH",
"211 32 OFFCURVE",
"126 153 OFFCURVE",
"126 374 CURVE SMOOTH",
"126 584 OFFCURVE",
"213 710 OFFCURVE",
"374 710 CURVE SMOOTH",
"480 710 OFFCURVE",
"565 640 OFFCURVE",
"581 551 CURVE SMOOTH",
"582 546 OFFCURVE",
"585 544 OFFCURVE",
"588 545 CURVE SMOOTH",
"623 551 LINE SMOOTH",
"628 552 OFFCURVE",
"628 555 OFFCURVE",
"628 559 CURVE SMOOTH",
"616 663 OFFCURVE",
"497 752 OFFCURVE",
"374 752 CURVE SMOOTH",
"193 752 OFFCURVE",
"78 614 OFFCURVE",
"78 368 CURVE SMOOTH",
"78 129 OFFCURVE",
"188 -10 OFFCURVE",
"373 -10 CURVE SMOOTH"
);
}
);
width = 730;
},
{
anchors = (
{
name = bottom;
position = "{342, 0}";
},
{
name = top;
position = "{441, 742}";
}
);
background = {
anchors = (
{
name = bottom;
position = "{342, 0}";
},
{
name = top;
position = "{441, 742}";
}
);
paths = (
{
closed = 1;
nodes = (
"446 -10 OFFCURVE",
"531 45 OFFCURVE",
"575 116 CURVE SMOOTH",
"580 123 OFFCURVE",
"584 123 OFFCURVE",
"583 116 CURVE SMOOTH",
"568 10 LINE SMOOTH",
"567 2 OFFCURVE",
"570 0 OFFCURVE",
"579 0 CURVE SMOOTH",
"596 0 LINE SMOOTH",
"604 0 OFFCURVE",
"607 2 OFFCURVE",
"608 10 CURVE SMOOTH",
"659 370 LINE SMOOTH",
"660 374 OFFCURVE",
"657 377 OFFCURVE",
"653 377 CURVE SMOOTH",
"417 377 LINE SMOOTH",
"414 377 OFFCURVE",
"413 376 OFFCURVE",
"412 372 CURVE SMOOTH",
"409 349 LINE SMOOTH",
"408 343 OFFCURVE",
"411 342 OFFCURVE",
"416 342 CURVE SMOOTH",
"605 342 LINE SMOOTH",
"613 342 OFFCURVE",
"615 341 OFFCURVE",
"614 334 CURVE SMOOTH",
"603 256 LINE SMOOTH",
"590 162 OFFCURVE",
"498 32 OFFCURVE",
"339 32 CURVE SMOOTH",
"203 32 OFFCURVE",
"134 117 OFFCURVE",
"134 275 CURVE SMOOTH",
"134 499 OFFCURVE",
"232 710 OFFCURVE",
"439 710 CURVE SMOOTH",
"544 710 OFFCURVE",
"618 640 OFFCURVE",
"621 553 CURVE SMOOTH",
"621 545 OFFCURVE",
"622 542 OFFCURVE",
"627 543 CURVE SMOOTH",
"664 549 LINE SMOOTH",
"668 550 OFFCURVE",
"669 551 OFFCURVE",
"669 557 CURVE SMOOTH",
"671 662 OFFCURVE",
"564 752 OFFCURVE",
"440 752 CURVE SMOOTH",
"208 752 OFFCURVE",
"86 524 OFFCURVE",
"86 276 CURVE SMOOTH",
"86 94 OFFCURVE",
"176 -10 OFFCURVE",
"336 -10 CURVE SMOOTH"
);
}
);
};
layerId = "3FD4CC56-10BC-4177-A1EC-581F65825651";
paths = (
{
closed = 1;
nodes = (
"446 -10 OFFCURVE",
"531 45 OFFCURVE",
"575 116 CURVE SMOOTH",
"580 123 OFFCURVE",
"584 123 OFFCURVE",
"583 116 CURVE SMOOTH",
"568 10 LINE SMOOTH",
"567 2 OFFCURVE",
"570 0 OFFCURVE",
"579 0 CURVE SMOOTH",
"596 0 LINE SMOOTH",
"604 0 OFFCURVE",
"607 2 OFFCURVE",
"608 10 CURVE SMOOTH",
"659 370 LINE SMOOTH",
"660 374 OFFCURVE",
"657 377 OFFCURVE",
"653 377 CURVE SMOOTH",
"417 377 LINE SMOOTH",
"414 377 OFFCURVE",
"413 376 OFFCURVE",
"412 372 CURVE SMOOTH",
"409 349 LINE SMOOTH",
"408 343 OFFCURVE",
"411 342 OFFCURVE",
"416 342 CURVE SMOOTH",
"605 342 LINE SMOOTH",
"613 342 OFFCURVE",
"615 341 OFFCURVE",
"614 334 CURVE SMOOTH",
"603 256 LINE SMOOTH",
"590 162 OFFCURVE",
"498 32 OFFCURVE",
"339 32 CURVE SMOOTH",
"203 32 OFFCURVE",
"134 117 OFFCURVE",
"134 275 CURVE SMOOTH",
"134 499 OFFCURVE",
"232 710 OFFCURVE",
"439 710 CURVE SMOOTH",
"544 710 OFFCURVE",
"618 640 OFFCURVE",
"621 553 CURVE SMOOTH",
"621 545 OFFCURVE",
"622 542 OFFCURVE",
"627 543 CURVE SMOOTH",
"664 549 LINE SMOOTH",
"668 550 OFFCURVE",
"669 551 OFFCURVE",
"669 557 CURVE SMOOTH",
"671 662 OFFCURVE",
"564 752 OFFCURVE",
"440 752 CURVE SMOOTH",
"208 752 OFFCURVE",
"86 524 OFFCURVE",
"86 276 CURVE SMOOTH",
"86 94 OFFCURVE",
"176 -10 OFFCURVE",
"336 -10 CURVE SMOOTH"
);
}
);
width = 730;
},
{
anchors = (
{
name = bottom;
position = "{345, 0}";
},
{
name = top;
position = "{449, 742}";
}
);
background = {
anchors = (
{
name = bottom;
position = "{345, 0}";
},
{
name = top;
position = "{449, 742}";
}
);
paths = (
{
closed = 1;
nodes = (
"463 -10 OFFCURVE",
"521 38 OFFCURVE",
"556 73 CURVE SMOOTH",
"566 83 OFFCURVE",
"575 85 OFFCURVE",
"580 76 CURVE SMOOTH",
"610 17 LINE SMOOTH",
"616 4 OFFCURVE",
"623 0 OFFCURVE",
"635 0 CURVE SMOOTH",
"670 0 LINE SMOOTH",
"680 0 OFFCURVE",
"687 5 OFFCURVE",
"688 14 CURVE SMOOTH",
"736 354 LINE SMOOTH",
"738 371 OFFCURVE",
"735 375 OFFCURVE",
"715 375 CURVE SMOOTH",
"409 377 LINE SMOOTH",
"401 377 OFFCURVE",
"398 373 OFFCURVE",
"397 364 CURVE SMOOTH",
"385 258 LINE SMOOTH",
"384 246 OFFCURVE",
"386 242 OFFCURVE",
"395 242 CURVE SMOOTH",
"491 242 LINE SMOOTH",
"505 242 OFFCURVE",
"507 237 OFFCURVE",
"501 228 CURVE SMOOTH",
"496 220 LINE SMOOTH",
"469 176 OFFCURVE",
"431 146 OFFCURVE",
"371 146 CURVE SMOOTH",
"313 146 OFFCURVE",
"275 172 OFFCURVE",
"275 274 CURVE SMOOTH",
"275 413 OFFCURVE",
"316 597 OFFCURVE",
"443 597 CURVE SMOOTH",
"511 597 OFFCURVE",
"533 553 OFFCURVE",
"543 503 CURVE SMOOTH",
"548 477 OFFCURVE",
"551 471 OFFCURVE",
"558 472 CURVE SMOOTH",
"735 497 LINE SMOOTH",
"743 498 OFFCURVE",
"744 506 OFFCURVE",
"744 522 CURVE SMOOTH",
"738 635 OFFCURVE",
"637 752 OFFCURVE",
"453 752 CURVE SMOOTH",
"210 752 OFFCURVE",
"41 556 OFFCURVE",
"41 308 CURVE SMOOTH",
"41 118 OFFCURVE",
"157 -10 OFFCURVE",
"349 -10 CURVE SMOOTH"
);
}
);
};
layerId = "945F4A85-7B75-430B-91A8-74C2C4AC9571";
paths = (
{
closed = 1;
nodes = (
"463 -10 OFFCURVE",
"521 38 OFFCURVE",
"556 73 CURVE SMOOTH",
"566 83 OFFCURVE",
"575 85 OFFCURVE",
"580 76 CURVE SMOOTH",
"610 17 LINE SMOOTH",
"616 4 OFFCURVE",
"623 0 OFFCURVE",
"635 0 CURVE SMOOTH",
"670 0 LINE SMOOTH",
"680 0 OFFCURVE",
"687 5 OFFCURVE",
"688 14 CURVE SMOOTH",
"736 354 LINE SMOOTH",
"738 371 OFFCURVE",
"735 375 OFFCURVE",
"715 375 CURVE SMOOTH",
"409 377 LINE SMOOTH",
"401 377 OFFCURVE",
"398 373 OFFCURVE",
"397 364 CURVE SMOOTH",
"385 258 LINE SMOOTH",
"384 246 OFFCURVE",
"386 242 OFFCURVE",
"395 242 CURVE SMOOTH",
"491 242 LINE SMOOTH",
"505 242 OFFCURVE",
"507 237 OFFCURVE",
"501 228 CURVE SMOOTH",
"496 220 LINE SMOOTH",
"469 176 OFFCURVE",
"431 146 OFFCURVE",
"371 146 CURVE SMOOTH",
"313 146 OFFCURVE",
"275 172 OFFCURVE",
"275 274 CURVE SMOOTH",
"275 413 OFFCURVE",
"316 597 OFFCURVE",
"443 597 CURVE SMOOTH",
"511 597 OFFCURVE",
"533 553 OFFCURVE",
"543 503 CURVE SMOOTH",
"548 477 OFFCURVE",
"551 471 OFFCURVE",
"558 472 CURVE SMOOTH",
"735 497 LINE SMOOTH",
"743 498 OFFCURVE",
"744 506 OFFCURVE",
"744 522 CURVE SMOOTH",
"738 635 OFFCURVE",
"637 752 OFFCURVE",
"453 752 CURVE SMOOTH",
"210 752 OFFCURVE",
"41 556 OFFCURVE",
"41 308 CURVE SMOOTH",
"41 118 OFFCURVE",
"157 -10 OFFCURVE",
"349 -10 CURVE SMOOTH"
);
}
);
width = 761;
}
);
leftKerningGroup = O;
rightKerningGroup = G;
unicode = 0047;
},
{
color = 5;
glyphname = H;
lastChange = "2022-07-20 12:08:12 +0000";
layers = (
{
anchors = (
{
name = bottom;
position = "{378, 0}";
},
{
name = top;
position = "{380, 742}";
}
);
background = {
anchors = (
{
name = bottom;
position = "{378, 0}";
},
{
name = top;
position = "{380, 742}";
}
);
paths = (
{
closed = 1;
nodes = (
"246 0 LINE SMOOTH",
"269 0 OFFCURVE",
"279 8 OFFCURVE",
"279 29 CURVE SMOOTH",
"279 282 LINE SMOOTH",
"279 290 OFFCURVE",
"285 297 OFFCURVE",
"295 297 CURVE SMOOTH",
"467 297 LINE SMOOTH",
"477 297 OFFCURVE",
"483 290 OFFCURVE",
"483 282 CURVE SMOOTH",
"483 29 LINE SMOOTH",
"483 8 OFFCURVE",
"493 0 OFFCURVE",
"516 0 CURVE SMOOTH",
"683 0 LINE SMOOTH",
"704 0 OFFCURVE",
"710 8 OFFCURVE",
"710 25 CURVE SMOOTH",
"710 719 LINE SMOOTH",
"710 734 OFFCURVE",
"702 742 OFFCURVE",
"691 742 CURVE SMOOTH",
"501 742 LINE SMOOTH",
"490 742 OFFCURVE",
"483 734 OFFCURVE",
"483 721 CURVE SMOOTH",
"483 489 LINE SMOOTH",
"483 476 OFFCURVE",
"476 469 OFFCURVE",
"465 469 CURVE SMOOTH",
"297 469 LINE SMOOTH",
"286 469 OFFCURVE",
"279 476 OFFCURVE",
"279 489 CURVE SMOOTH",
"279 721 LINE SMOOTH",
"279 734 OFFCURVE",
"272 742 OFFCURVE",
"261 742 CURVE SMOOTH",
"71 742 LINE SMOOTH",
"60 742 OFFCURVE",
"52 734 OFFCURVE",
"52 719 CURVE SMOOTH",
"52 25 LINE SMOOTH",
"52 8 OFFCURVE",
"58 0 OFFCURVE",
"79 0 CURVE SMOOTH"
);
}
);
};
layerId = "258ED206-D907-4350-8EBA-CBDDA1C16BF7";
paths = (
{
closed = 1;
nodes = (
"246 0 LINE SMOOTH",
"269 0 OFFCURVE",
"279 8 OFFCURVE",
"279 29 CURVE SMOOTH",
"279 282 LINE SMOOTH",
"279 290 OFFCURVE",
"285 297 OFFCURVE",
"295 297 CURVE SMOOTH",
"467 297 LINE SMOOTH",
"477 297 OFFCURVE",
"483 290 OFFCURVE",
"483 282 CURVE SMOOTH",
"483 29 LINE SMOOTH",
"483 8 OFFCURVE",
"493 0 OFFCURVE",
"516 0 CURVE SMOOTH",
"683 0 LINE SMOOTH",
"704 0 OFFCURVE",
"710 8 OFFCURVE",
"710 25 CURVE SMOOTH",
"710 719 LINE SMOOTH",
"710 734 OFFCURVE",
"702 742 OFFCURVE",
"691 742 CURVE SMOOTH",
"501 742 LINE SMOOTH",
"490 742 OFFCURVE",
"483 734 OFFCURVE",
"483 721 CURVE SMOOTH",
"483 489 LINE SMOOTH",
"483 476 OFFCURVE",
"476 469 OFFCURVE",
"465 469 CURVE SMOOTH",
"297 469 LINE SMOOTH",
"286 469 OFFCURVE",
"279 476 OFFCURVE",
"279 489 CURVE SMOOTH",
"279 721 LINE SMOOTH",
"279 734 OFFCURVE",
"272 742 OFFCURVE",
"261 742 CURVE SMOOTH",
"71 742 LINE SMOOTH",
"60 742 OFFCURVE",
"52 734 OFFCURVE",
"52 719 CURVE SMOOTH",
"52 25 LINE SMOOTH",
"52 8 OFFCURVE",
"58 0 OFFCURVE",
"79 0 CURVE SMOOTH"
);
}
);
width = 762;
},
{
anchors = (
{
name = bottom;
position = "{363, 0}";
},
{
name = top;
position = "{363, 742}";
}
);
background = {
anchors = (
{
name = bottom;
position = "{363, 0}";
},
{
name = top;
position = "{363, 742}";
}
);
paths = (
{
closed = 1;
nodes = (
"150 0 LINE SMOOTH",
"157 0 OFFCURVE",
"160 3 OFFCURVE",
"160 9 CURVE SMOOTH",
"160 360 LINE SMOOTH",
"160 363 OFFCURVE",
"162 366 OFFCURVE",
"166 366 CURVE SMOOTH",
"558 366 LINE SMOOTH",
"563 366 OFFCURVE",
"565 364 OFFCURVE",
"565 359 CURVE SMOOTH",
"565 9 LINE SMOOTH",
"565 2 OFFCURVE",
"568 0 OFFCURVE",
"575 0 CURVE SMOOTH",
"602 0 LINE SMOOTH",
"608 0 OFFCURVE",
"611 3 OFFCURVE",
"611 10 CURVE SMOOTH",
"611 732 LINE SMOOTH",
"611 740 OFFCURVE",
"609 742 OFFCURVE",
"602 742 CURVE SMOOTH",
"573 742 LINE SMOOTH",
"567 742 OFFCURVE",
"565 739 OFFCURVE",
"565 733 CURVE SMOOTH",
"565 414 LINE SMOOTH",
"565 408 OFFCURVE",
"563 406 OFFCURVE",
"557 406 CURVE SMOOTH",
"169 406 LINE SMOOTH",
"162 406 OFFCURVE",
"160 407 OFFCURVE",
"160 415 CURVE SMOOTH",
"160 732 LINE SMOOTH",
"160 740 OFFCURVE",
"158 742 OFFCURVE",
"151 742 CURVE SMOOTH",
"123 742 LINE SMOOTH",
"116 742 OFFCURVE",
"114 740 OFFCURVE",
"114 732 CURVE SMOOTH",
"114 10 LINE SMOOTH",
"114 3 OFFCURVE",
"116 0 OFFCURVE",
"123 0 CURVE SMOOTH"
);
}
);
};
layerId = "91AB5BCA-6A50-42DA-B2F7-8181BF189245";
paths = (
{
closed = 1;
nodes = (
"150 0 LINE SMOOTH",
"157 0 OFFCURVE",
"160 3 OFFCURVE",
"160 9 CURVE SMOOTH",
"160 360 LINE SMOOTH",
"160 363 OFFCURVE",
"162 366 OFFCURVE",
"166 366 CURVE SMOOTH",
"558 366 LINE SMOOTH",
"563 366 OFFCURVE",
"565 364 OFFCURVE",
"565 359 CURVE SMOOTH",
"565 9 LINE SMOOTH",
"565 2 OFFCURVE",
"568 0 OFFCURVE",
"575 0 CURVE SMOOTH",
"602 0 LINE SMOOTH",
"608 0 OFFCURVE",
"611 3 OFFCURVE",
"611 10 CURVE SMOOTH",
"611 732 LINE SMOOTH",
"611 740 OFFCURVE",
"609 742 OFFCURVE",
"602 742 CURVE SMOOTH",
"573 742 LINE SMOOTH",
"567 742 OFFCURVE",
"565 739 OFFCURVE",
"565 733 CURVE SMOOTH",
"565 414 LINE SMOOTH",
"565 408 OFFCURVE",
"563 406 OFFCURVE",
"557 406 CURVE SMOOTH",
"169 406 LINE SMOOTH",
"162 406 OFFCURVE",
"160 407 OFFCURVE",
"160 415 CURVE SMOOTH",
"160 732 LINE SMOOTH",
"160 740 OFFCURVE",
"158 742 OFFCURVE",
"151 742 CURVE SMOOTH",
"123 742 LINE SMOOTH",
"116 742 OFFCURVE",
"114 740 OFFCURVE",
"114 732 CURVE SMOOTH",
"114 10 LINE SMOOTH",
"114 3 OFFCURVE",
"116 0 OFFCURVE",
"123 0 CURVE SMOOTH"
);
}
);
width = 725;
},
{
anchors = (
{
name = bottom;
position = "{326, 0}";
},
{
name = top;
position = "{430, 742}";
}
);
background = {
anchors = (
{
name = bottom;
position = "{326, 0}";
},
{
name = top;
position = "{430, 742}";
}
);
paths = (
{
closed = 1;
nodes = (
"114 0 LINE SMOOTH",
"121 0 OFFCURVE",
"123 2 OFFCURVE",
"124 8 CURVE SMOOTH",
"173 359 LINE SMOOTH",
"174 362 OFFCURVE",
"177 366 OFFCURVE",
"181 366 CURVE SMOOTH",
"573 366 LINE SMOOTH",
"578 366 OFFCURVE",
"579 365 OFFCURVE",
"578 360 CURVE SMOOTH",
"529 10 LINE SMOOTH",
"528 3 OFFCURVE",
"532 0 OFFCURVE",
"539 0 CURVE SMOOTH",
"566 0 LINE SMOOTH",
"572 0 OFFCURVE",
"574 2 OFFCURVE",
"575 9 CURVE SMOOTH",
"676 731 LINE SMOOTH",
"678 739 OFFCURVE",
"675 742 OFFCURVE",
"668 742 CURVE SMOOTH",
"639 742 LINE SMOOTH",
"633 742 OFFCURVE",
"632 740 OFFCURVE",
"631 734 CURVE SMOOTH",
"586 415 LINE SMOOTH",
"585 409 OFFCURVE",
"582 406 OFFCURVE",
"576 406 CURVE SMOOTH",
"188 406 LINE SMOOTH",
"181 406 OFFCURVE",
"180 406 OFFCURVE",
"181 414 CURVE SMOOTH",
"225 731 LINE SMOOTH",
"227 739 OFFCURVE",
"224 742 OFFCURVE",
"217 742 CURVE SMOOTH",
"189 742 LINE SMOOTH",
"182 742 OFFCURVE",
"181 741 OFFCURVE",
"180 733 CURVE SMOOTH",
"78 11 LINE SMOOTH",
"77 4 OFFCURVE",
"80 0 OFFCURVE",
"87 0 CURVE SMOOTH"
);
}
);
};
layerId = "3FD4CC56-10BC-4177-A1EC-581F65825651";
paths = (
{
closed = 1;
nodes = (
"114 0 LINE SMOOTH",
"121 0 OFFCURVE",
"123 2 OFFCURVE",
"124 8 CURVE SMOOTH",
"173 359 LINE SMOOTH",
"174 362 OFFCURVE",
"177 366 OFFCURVE",
"181 366 CURVE SMOOTH",
"573 366 LINE SMOOTH",
"578 366 OFFCURVE",
"579 365 OFFCURVE",
"578 360 CURVE SMOOTH",
"529 10 LINE SMOOTH",
"528 3 OFFCURVE",
"532 0 OFFCURVE",
"539 0 CURVE SMOOTH",
"566 0 LINE SMOOTH",
"572 0 OFFCURVE",
"574 2 OFFCURVE",
"575 9 CURVE SMOOTH",
"676 731 LINE SMOOTH",
"678 739 OFFCURVE",
"675 742 OFFCURVE",
"668 742 CURVE SMOOTH",
"639 742 LINE SMOOTH",
"633 742 OFFCURVE",
"632 740 OFFCURVE",
"631 734 CURVE SMOOTH",
"586 415 LINE SMOOTH",
"585 409 OFFCURVE",
"582 406 OFFCURVE",
"576 406 CURVE SMOOTH",
"188 406 LINE SMOOTH",
"181 406 OFFCURVE",
"180 406 OFFCURVE",
"181 414 CURVE SMOOTH",
"225 731 LINE SMOOTH",
"227 739 OFFCURVE",
"224 742 OFFCURVE",
"217 742 CURVE SMOOTH",
"189 742 LINE SMOOTH",
"182 742 OFFCURVE",
"181 741 OFFCURVE",
"180 733 CURVE SMOOTH",
"78 11 LINE SMOOTH",
"77 4 OFFCURVE",
"80 0 OFFCURVE",
"87 0 CURVE SMOOTH"
);
}
);
width = 725;
},
{
anchors = (
{
name = bottom;
position = "{341, 0}";
},
{
name = top;
position = "{447, 742}";
}
);
background = {
anchors = (
{
name = bottom;
position = "{341, 0}";
},
{
name = top;
position = "{447, 742}";
}
);
paths = (
{
closed = 1;
nodes = (
"213 0 LINE SMOOTH",
"236 0 OFFCURVE",
"242 2 OFFCURVE",
"245 23 CURVE SMOOTH",
"281 276 LINE SMOOTH",
"283 293 OFFCURVE",
"289 297 OFFCURVE",
"299 297 CURVE SMOOTH",
"471 297 LINE SMOOTH",
"481 297 OFFCURVE",
"487 296 OFFCURVE",
"486 288 CURVE SMOOTH",
"450 28 LINE SMOOTH",
"447 7 OFFCURVE",
"452 0 OFFCURVE",
"475 0 CURVE SMOOTH",
"650 0 LINE SMOOTH",
"671 0 OFFCURVE",
"673 2 OFFCURVE",
"675 19 CURVE SMOOTH",
"773 713 LINE SMOOTH",
"776 737 OFFCURVE",
"773 742 OFFCURVE",
"763 742 CURVE SMOOTH",
"566 742 LINE SMOOTH",
"555 742 OFFCURVE",
"550 740 OFFCURVE",
"548 727 CURVE SMOOTH",
"515 495 LINE SMOOTH",
"513 482 OFFCURVE",
"509 469 OFFCURVE",
"498 469 CURVE SMOOTH",
"322 469 LINE SMOOTH",
"311 469 OFFCURVE",
"308 473 OFFCURVE",
"310 486 CURVE SMOOTH",
"343 725 LINE SMOOTH",
"345 738 OFFCURVE",
"344 742 OFFCURVE",
"333 742 CURVE SMOOTH",
"134 742 LINE SMOOTH",
"123 742 OFFCURVE",
"119 740 OFFCURVE",
"117 725 CURVE SMOOTH",
"18 22 LINE SMOOTH",
"16 5 OFFCURVE",
"17 0 OFFCURVE",
"38 0 CURVE SMOOTH"
);
}
);
};
layerId = "945F4A85-7B75-430B-91A8-74C2C4AC9571";
paths = (
{
closed = 1;
nodes = (
"213 0 LINE SMOOTH",
"236 0 OFFCURVE",
"242 2 OFFCURVE",
"245 23 CURVE SMOOTH",
"281 276 LINE SMOOTH",
"283 293 OFFCURVE",
"289 297 OFFCURVE",
"299 297 CURVE SMOOTH",
"471 297 LINE SMOOTH",
"481 297 OFFCURVE",
"487 296 OFFCURVE",
"486 288 CURVE SMOOTH",
"450 28 LINE SMOOTH",
"447 7 OFFCURVE",
"452 0 OFFCURVE",
"475 0 CURVE SMOOTH",
"650 0 LINE SMOOTH",
"671 0 OFFCURVE",
"673 2 OFFCURVE",
"675 19 CURVE SMOOTH",
"773 713 LINE SMOOTH",
"776 737 OFFCURVE",
"773 742 OFFCURVE",
"763 742 CURVE SMOOTH",
"566 742 LINE SMOOTH",
"555 742 OFFCURVE",
"550 740 OFFCURVE",
"548 727 CURVE SMOOTH",
"515 495 LINE SMOOTH",
"513 482 OFFCURVE",
"509 469 OFFCURVE",
"498 469 CURVE SMOOTH",
"322 469 LINE SMOOTH",
"311 469 OFFCURVE",
"308 473 OFFCURVE",
"310 486 CURVE SMOOTH",
"343 725 LINE SMOOTH",
"345 738 OFFCURVE",
"344 742 OFFCURVE",
"333 742 CURVE SMOOTH",
"134 742 LINE SMOOTH",
"123 742 OFFCURVE",
"119 740 OFFCURVE",
"117 725 CURVE SMOOTH",
"18 22 LINE SMOOTH",
"16 5 OFFCURVE",
"17 0 OFFCURVE",
"38 0 CURVE SMOOTH"
);
}
);
width = 762;
}
);
unicode = 0048;
},
{
color = 4;
glyphname = Hbar;
lastChange = "2022-07-20 12:09:13 +0000";
layers = (
{
background = {
components = (
{
name = H;
transform = "{1, 0, 0, 1, 25, 0}";
}
);
paths = (
{
closed = 1;
nodes = (
"770 555 LINE SMOOTH",
"790 555 OFFCURVE",
"799 562 OFFCURVE",
"799 579 CURVE SMOOTH",
"799 640 LINE SMOOTH",
"799 651 OFFCURVE",
"793 658 OFFCURVE",
"783 658 CURVE SMOOTH",
"16 658 LINE SMOOTH",
"6 658 OFFCURVE",
"0 651 OFFCURVE",
"0 638 CURVE SMOOTH",
"0 577 LINE SMOOTH",
"0 562 OFFCURVE",
"5 555 OFFCURVE",
"22 555 CURVE SMOOTH"
);
}
);
};
components = (
{
name = H;
transform = "{1, 0, 0, 1, 25, 0}";
}
);
layerId = "258ED206-D907-4350-8EBA-CBDDA1C16BF7";
paths = (
{
closed = 1;
nodes = (
"770 555 LINE SMOOTH",
"790 555 OFFCURVE",
"799 562 OFFCURVE",
"799 579 CURVE SMOOTH",
"799 640 LINE SMOOTH",
"799 651 OFFCURVE",
"793 658 OFFCURVE",
"783 658 CURVE SMOOTH",
"16 658 LINE SMOOTH",
"6 658 OFFCURVE",
"0 651 OFFCURVE",
"0 638 CURVE SMOOTH",
"0 577 LINE SMOOTH",
"0 562 OFFCURVE",
"5 555 OFFCURVE",
"22 555 CURVE SMOOTH"
);
}
);
width = 799;
},
{
background = {
components = (
{
name = H;
transform = "{1, 0, 0, 1, -1, 0}";
}
);
paths = (
{
closed = 1;
nodes = (
"689 578 LINE SMOOTH",
"698 578 OFFCURVE",
"702 581 OFFCURVE",
"702 589 CURVE SMOOTH",
"702 610 LINE SMOOTH",
"702 615 OFFCURVE",
"700 618 OFFCURVE",
"695 618 CURVE SMOOTH",
"12 618 LINE SMOOTH",
"7 618 OFFCURVE",
"5 615 OFFCURVE",
"5 609 CURVE SMOOTH",
"5 588 LINE SMOOTH",
"5 581 OFFCURVE",
"7 578 OFFCURVE",
"15 578 CURVE SMOOTH"
);
}
);
};
components = (
{
name = H;
transform = "{1, 0, 0, 1, -1, 0}";
}
);
layerId = "91AB5BCA-6A50-42DA-B2F7-8181BF189245";
paths = (
{
closed = 1;
nodes = (
"689 578 LINE SMOOTH",
"698 578 OFFCURVE",
"702 581 OFFCURVE",
"702 589 CURVE SMOOTH",
"702 610 LINE SMOOTH",
"702 615 OFFCURVE",
"700 618 OFFCURVE",
"695 618 CURVE SMOOTH",
"12 618 LINE SMOOTH",
"7 618 OFFCURVE",
"5 615 OFFCURVE",
"5 609 CURVE SMOOTH",
"5 588 LINE SMOOTH",
"5 581 OFFCURVE",
"7 578 OFFCURVE",
"15 578 CURVE SMOOTH"
);
}
);
width = 707;
},
{
background = {
components = (
{
name = H;
transform = "{1, 0, 0, 1, -38, 0}";
}
);
paths = (
{
closed = 1;
nodes = (
"734 578 LINE SMOOTH",
"743 578 OFFCURVE",
"746 580 OFFCURVE",
"747 588 CURVE SMOOTH",
"750 609 LINE SMOOTH",
"751 614 OFFCURVE",
"749 618 OFFCURVE",
"744 618 CURVE SMOOTH",
"61 618 LINE SMOOTH",
"56 618 OFFCURVE",
"54 616 OFFCURVE",
"53 610 CURVE SMOOTH",
"51 589 LINE SMOOTH",
"50 582 OFFCURVE",
"52 578 OFFCURVE",
"60 578 CURVE SMOOTH"
);
}
);
};
components = (
{
name = H;
transform = "{1, 0, 0, 1, -38, 0}";
}
);
layerId = "3FD4CC56-10BC-4177-A1EC-581F65825651";
paths = (
{
closed = 1;
nodes = (
"734 578 LINE SMOOTH",
"743 578 OFFCURVE",
"746 580 OFFCURVE",
"747 588 CURVE SMOOTH",
"750 609 LINE SMOOTH",
"751 614 OFFCURVE",
"749 618 OFFCURVE",
"744 618 CURVE SMOOTH",
"61 618 LINE SMOOTH",
"56 618 OFFCURVE",
"54 616 OFFCURVE",
"53 610 CURVE SMOOTH",
"51 589 LINE SMOOTH",
"50 582 OFFCURVE",
"52 578 OFFCURVE",
"60 578 CURVE SMOOTH"
);
}
);
width = 707;
},
{
background = {
components = (
{
name = H;
transform = "{1, 0, 0, 1, -12, 0}";
}
);
paths = (
{
closed = 1;
nodes = (
"815 555 LINE SMOOTH",
"835 555 OFFCURVE",
"840 556 OFFCURVE",
"842 573 CURVE SMOOTH",
"851 634 LINE SMOOTH",
"852 645 OFFCURVE",
"844 658 OFFCURVE",
"834 658 CURVE SMOOTH",
"67 658 LINE SMOOTH",
"57 658 OFFCURVE",
"55 657 OFFCURVE",
"53 644 CURVE SMOOTH",
"45 583 LINE SMOOTH",
"43 568 OFFCURVE",
"50 555 OFFCURVE",
"67 555 CURVE SMOOTH"
);
}
);
};
components = (
{
name = H;
transform = "{1, 0, 0, 1, -12, 0}";
}
);
layerId = "945F4A85-7B75-430B-91A8-74C2C4AC9571";
paths = (
{
closed = 1;
nodes = (
"815 555 LINE SMOOTH",
"835 555 OFFCURVE",
"840 556 OFFCURVE",
"842 573 CURVE SMOOTH",
"851 634 LINE SMOOTH",
"852 645 OFFCURVE",
"844 658 OFFCURVE",
"834 658 CURVE SMOOTH",
"67 658 LINE SMOOTH",
"57 658 OFFCURVE",
"55 657 OFFCURVE",
"53 644 CURVE SMOOTH",
"45 583 LINE SMOOTH",
"43 568 OFFCURVE",
"50 555 OFFCURVE",
"67 555 CURVE SMOOTH"
);
}
);
width = 799;
}
);
unicode = 0126;
},
{
color = 5;
glyphname = I;
lastChange = "2022-07-20 12:08:12 +0000";
layers = (
{
anchors = (
{
name = bottom;
position = "{165, 0}";
},
{
name = ogonek;
position = "{247, 10}";
},
{
name = top;
position = "{166, 742}";
}
);
background = {
anchors = (
{
name = bottom;
position = "{165, 0}";
},
{
name = ogonek;
position = "{247, 10}";
},
{
name = top;
position = "{166, 742}";
}
);
paths = (
{
closed = 1;
nodes = (
"246 0 LINE SMOOTH",
"269 0 OFFCURVE",
"279 8 OFFCURVE",
"279 29 CURVE SMOOTH",
"279 721 LINE SMOOTH",
"279 734 OFFCURVE",
"273 742 OFFCURVE",
"261 742 CURVE SMOOTH",
"71 742 LINE SMOOTH",
"60 742 OFFCURVE",
"52 734 OFFCURVE",
"52 719 CURVE SMOOTH",
"52 25 LINE SMOOTH",
"52 8 OFFCURVE",
"58 0 OFFCURVE",
"79 0 CURVE SMOOTH"
);
}
);
};
layerId = "258ED206-D907-4350-8EBA-CBDDA1C16BF7";
paths = (
{
closed = 1;
nodes = (
"246 0 LINE SMOOTH",
"269 0 OFFCURVE",
"279 8 OFFCURVE",
"279 29 CURVE SMOOTH",
"279 721 LINE SMOOTH",
"279 734 OFFCURVE",
"273 742 OFFCURVE",
"261 742 CURVE SMOOTH",
"71 742 LINE SMOOTH",
"60 742 OFFCURVE",
"52 734 OFFCURVE",
"52 719 CURVE SMOOTH",
"52 25 LINE SMOOTH",
"52 8 OFFCURVE",
"58 0 OFFCURVE",
"79 0 CURVE SMOOTH"
);
}
);
width = 331;
},
{
anchors = (
{
name = bottom;
position = "{137, 0}";
},
{
name = ogonek;
position = "{149, 10}";
},
{
name = top;
position = "{140, 742}";
}
);
background = {
anchors = (
{
name = bottom;
position = "{137, 0}";
},
{
name = ogonek;
position = "{149, 10}";
},
{
name = top;
position = "{140, 742}";
}
);
paths = (
{
closed = 1;
nodes = (
"148 0 LINE SMOOTH",
"158 0 OFFCURVE",
"160 2 OFFCURVE",
"160 12 CURVE SMOOTH",
"160 732 LINE SMOOTH",
"160 740 OFFCURVE",
"158 742 OFFCURVE",
"151 742 CURVE SMOOTH",
"123 742 LINE SMOOTH",
"116 742 OFFCURVE",
"114 740 OFFCURVE",
"114 732 CURVE SMOOTH",
"114 10 LINE SMOOTH",
"114 2 OFFCURVE",
"116 0 OFFCURVE",
"125 0 CURVE SMOOTH"
);
}
);
};
layerId = "91AB5BCA-6A50-42DA-B2F7-8181BF189245";
paths = (
{
closed = 1;
nodes = (
"148 0 LINE SMOOTH",
"158 0 OFFCURVE",
"160 2 OFFCURVE",
"160 12 CURVE SMOOTH",
"160 732 LINE SMOOTH",
"160 740 OFFCURVE",
"158 742 OFFCURVE",
"151 742 CURVE SMOOTH",
"123 742 LINE SMOOTH",
"116 742 OFFCURVE",
"114 740 OFFCURVE",
"114 732 CURVE SMOOTH",
"114 10 LINE SMOOTH",
"114 2 OFFCURVE",
"116 0 OFFCURVE",
"125 0 CURVE SMOOTH"
);
}
);
width = 274;
},
{
anchors = (
{
name = bottom;
position = "{100, 0}";
},
{
name = ogonek;
position = "{115, 11}";
},
{
name = top;
position = "{207, 742}";
}
);
background = {
anchors = (
{
name = bottom;
position = "{100, 0}";
},
{
name = ogonek;
position = "{115, 11}";
},
{
name = top;
position = "{207, 742}";
}
);
paths = (
{
closed = 1;
nodes = (
"112 0 LINE SMOOTH",
"122 0 OFFCURVE",
"123 1 OFFCURVE",
"124 11 CURVE SMOOTH",
"225 731 LINE SMOOTH",
"227 739 OFFCURVE",
"224 742 OFFCURVE",
"217 742 CURVE SMOOTH",
"189 742 LINE SMOOTH",
"182 742 OFFCURVE",
"181 741 OFFCURVE",
"180 733 CURVE SMOOTH",
"78 11 LINE SMOOTH",
"77 3 OFFCURVE",
"80 0 OFFCURVE",
"89 0 CURVE SMOOTH"
);
}
);
};
layerId = "3FD4CC56-10BC-4177-A1EC-581F65825651";
paths = (
{
closed = 1;
nodes = (
"112 0 LINE SMOOTH",
"122 0 OFFCURVE",
"123 1 OFFCURVE",
"124 11 CURVE SMOOTH",
"225 731 LINE SMOOTH",
"227 739 OFFCURVE",
"224 742 OFFCURVE",
"217 742 CURVE SMOOTH",
"189 742 LINE SMOOTH",
"182 742 OFFCURVE",
"181 741 OFFCURVE",
"180 733 CURVE SMOOTH",
"78 11 LINE SMOOTH",
"77 3 OFFCURVE",
"80 0 OFFCURVE",
"89 0 CURVE SMOOTH"
);
}
);
width = 274;
},
{
anchors = (
{
name = bottom;
position = "{128, 0}";
},
{
name = ogonek;
position = "{211, 10}";
},
{
name = top;
position = "{233, 742}";
}
);
background = {
anchors = (
{
name = bottom;
position = "{128, 0}";
},
{
name = ogonek;
position = "{211, 10}";
},
{
name = top;
position = "{233, 742}";
}
);
paths = (
{
closed = 1;
nodes = (
"213 0 LINE SMOOTH",
"236 0 OFFCURVE",
"242 2 OFFCURVE",
"245 23 CURVE SMOOTH",
"342 715 LINE SMOOTH",
"344 731 OFFCURVE",
"341 742 OFFCURVE",
"328 742 CURVE SMOOTH",
"134 742 LINE SMOOTH",
"123 742 OFFCURVE",
"119 740 OFFCURVE",
"117 725 CURVE SMOOTH",
"19 31 LINE SMOOTH",
"17 14 OFFCURVE",
"18 0 OFFCURVE",
"39 0 CURVE SMOOTH"
);
}
);
};
layerId = "945F4A85-7B75-430B-91A8-74C2C4AC9571";
paths = (
{
closed = 1;
nodes = (
"213 0 LINE SMOOTH",
"236 0 OFFCURVE",
"242 2 OFFCURVE",
"245 23 CURVE SMOOTH",
"342 715 LINE SMOOTH",
"344 731 OFFCURVE",
"341 742 OFFCURVE",
"328 742 CURVE SMOOTH",
"134 742 LINE SMOOTH",
"123 742 OFFCURVE",
"119 740 OFFCURVE",
"117 725 CURVE SMOOTH",
"19 31 LINE SMOOTH",
"17 14 OFFCURVE",
"18 0 OFFCURVE",
"39 0 CURVE SMOOTH"
);
}
);
width = 331;
}
);
unicode = 0049;
},
{
color = 5;
glyphname = J;
lastChange = "2022-07-20 12:08:12 +0000";
layers = (
{
anchors = (
{
name = top;
position = "{243, 742}";
}
);
background = {
anchors = (
{
name = top;
position = "{243, 742}";
}
);
paths = (
{
closed = 1;
nodes = (
"338 -10 OFFCURVE",
"420 48 OFFCURVE",
"420 212 CURVE SMOOTH",
"420 721 LINE SMOOTH",
"420 734 OFFCURVE",
"414 742 OFFCURVE",
"402 742 CURVE SMOOTH",
"213 742 LINE SMOOTH",
"201 742 OFFCURVE",
"193 734 OFFCURVE",
"193 719 CURVE SMOOTH",
"193 268 LINE SMOOTH",
"193 200 OFFCURVE",
"164 175 OFFCURVE",
"115 175 CURVE SMOOTH",
"93 175 OFFCURVE",
"76 180 OFFCURVE",
"60 182 CURVE SMOOTH",
"44 184 OFFCURVE",
"37 174 OFFCURVE",
"36 159 CURVE SMOOTH",
"27 45 LINE SMOOTH",
"25 17 OFFCURVE",
"35 6 OFFCURVE",
"58 2 CURVE SMOOTH",
"103 -6 OFFCURVE",
"141 -10 OFFCURVE",
"182 -10 CURVE SMOOTH"
);
}
);
};
layerId = "258ED206-D907-4350-8EBA-CBDDA1C16BF7";
paths = (
{
closed = 1;
nodes = (
"338 -10 OFFCURVE",
"420 48 OFFCURVE",
"420 212 CURVE SMOOTH",
"420 721 LINE SMOOTH",
"420 734 OFFCURVE",
"414 742 OFFCURVE",
"402 742 CURVE SMOOTH",
"213 742 LINE SMOOTH",
"201 742 OFFCURVE",
"193 734 OFFCURVE",
"193 719 CURVE SMOOTH",
"193 268 LINE SMOOTH",
"193 200 OFFCURVE",
"164 175 OFFCURVE",
"115 175 CURVE SMOOTH",
"93 175 OFFCURVE",
"76 180 OFFCURVE",
"60 182 CURVE SMOOTH",
"44 184 OFFCURVE",
"37 174 OFFCURVE",
"36 159 CURVE SMOOTH",
"27 45 LINE SMOOTH",
"25 17 OFFCURVE",
"35 6 OFFCURVE",
"58 2 CURVE SMOOTH",
"103 -6 OFFCURVE",
"141 -10 OFFCURVE",
"182 -10 CURVE SMOOTH"
);
}
);
width = 467;
},
{
anchors = (
{
name = top;
position = "{266, 742}";
}
);
background = {
anchors = (
{
name = top;
position = "{266, 742}";
}
);
paths = (
{
closed = 1;
nodes = (
"255 -10 OFFCURVE",
"289 49 OFFCURVE",
"289 144 CURVE SMOOTH",
"289 732 LINE SMOOTH",
"289 739 OFFCURVE",
"287 742 OFFCURVE",
"281 742 CURVE SMOOTH",
"251 742 LINE SMOOTH",
"245 742 OFFCURVE",
"243 739 OFFCURVE",
"243 733 CURVE SMOOTH",
"243 154 LINE SMOOTH",
"243 61 OFFCURVE",
"221 34 OFFCURVE",
"156 34 CURVE SMOOTH",
"107 34 OFFCURVE",
"85 49 OFFCURVE",
"64 59 CURVE SMOOTH",
"60 61 OFFCURVE",
"57 60 OFFCURVE",
"56 55 CURVE SMOOTH",
"47 24 LINE SMOOTH",
"46 20 OFFCURVE",
"48 17 OFFCURVE",
"51 15 CURVE SMOOTH",
"58 10 OFFCURVE",
"103 -10 OFFCURVE",
"158 -10 CURVE SMOOTH"
);
}
);
};
layerId = "91AB5BCA-6A50-42DA-B2F7-8181BF189245";
paths = (
{
closed = 1;
nodes = (
"255 -10 OFFCURVE",
"289 49 OFFCURVE",
"289 144 CURVE SMOOTH",
"289 732 LINE SMOOTH",
"289 739 OFFCURVE",
"287 742 OFFCURVE",
"281 742 CURVE SMOOTH",
"251 742 LINE SMOOTH",
"245 742 OFFCURVE",
"243 739 OFFCURVE",
"243 733 CURVE SMOOTH",
"243 154 LINE SMOOTH",
"243 61 OFFCURVE",
"221 34 OFFCURVE",
"156 34 CURVE SMOOTH",
"107 34 OFFCURVE",
"85 49 OFFCURVE",
"64 59 CURVE SMOOTH",
"60 61 OFFCURVE",
"57 60 OFFCURVE",
"56 55 CURVE SMOOTH",
"47 24 LINE SMOOTH",
"46 20 OFFCURVE",
"48 17 OFFCURVE",
"51 15 CURVE SMOOTH",
"58 10 OFFCURVE",
"103 -10 OFFCURVE",
"158 -10 CURVE SMOOTH"
);
}
);
width = 399;
},
{
anchors = (
{
name = top;
position = "{333, 742}";
}
);
background = {
anchors = (
{
name = top;
position = "{333, 742}";
}
);
paths = (
{
closed = 1;
nodes = (
"217 -10 OFFCURVE",
"259 48 OFFCURVE",
"272 143 CURVE SMOOTH",
"354 731 LINE SMOOTH",
"355 738 OFFCURVE",
"353 742 OFFCURVE",
"347 742 CURVE SMOOTH",
"317 742 LINE SMOOTH",
"311 742 OFFCURVE",
"310 740 OFFCURVE",
"309 734 CURVE SMOOTH",
"228 155 LINE SMOOTH",
"215 67 OFFCURVE",
"190 34 OFFCURVE",
"124 34 CURVE SMOOTH",
"83 34 OFFCURVE",
"54 47 OFFCURVE",
"40 54 CURVE SMOOTH",
"30 59 OFFCURVE",
"28 58 OFFCURVE",
"27 55 CURVE SMOOTH",
"12 25 LINE SMOOTH",
"10 21 OFFCURVE",
"13 18 OFFCURVE",
"18 15 CURVE SMOOTH",
"25 11 OFFCURVE",
"64 -10 OFFCURVE",
"121 -10 CURVE SMOOTH"
);
}
);
};
layerId = "3FD4CC56-10BC-4177-A1EC-581F65825651";
paths = (
{
closed = 1;
nodes = (
"217 -10 OFFCURVE",
"259 48 OFFCURVE",
"272 143 CURVE SMOOTH",
"354 731 LINE SMOOTH",
"355 738 OFFCURVE",
"353 742 OFFCURVE",
"347 742 CURVE SMOOTH",
"317 742 LINE SMOOTH",
"311 742 OFFCURVE",
"310 740 OFFCURVE",
"309 734 CURVE SMOOTH",
"228 155 LINE SMOOTH",
"215 67 OFFCURVE",
"190 34 OFFCURVE",
"124 34 CURVE SMOOTH",
"83 34 OFFCURVE",
"54 47 OFFCURVE",
"40 54 CURVE SMOOTH",
"30 59 OFFCURVE",
"28 58 OFFCURVE",
"27 55 CURVE SMOOTH",
"12 25 LINE SMOOTH",
"10 21 OFFCURVE",
"13 18 OFFCURVE",
"18 15 CURVE SMOOTH",
"25 11 OFFCURVE",
"64 -10 OFFCURVE",
"121 -10 CURVE SMOOTH"
);
}
);
width = 399;
},
{
anchors = (
{
name = top;
position = "{310, 742}";
}
);
background = {
anchors = (
{
name = top;
position = "{310, 742}";
}
);
paths = (
{
closed = 1;
nodes = (
"303 -10 OFFCURVE",
"389 42 OFFCURVE",
"412 206 CURVE SMOOTH",
"483 715 LINE SMOOTH",
"486 733 OFFCURVE",
"483 742 OFFCURVE",
"471 742 CURVE SMOOTH",
"276 742 LINE SMOOTH",
"264 742 OFFCURVE",
"260 740 OFFCURVE",
"258 725 CURVE SMOOTH",
"194 274 LINE SMOOTH",
"185 206 OFFCURVE",
"147 175 OFFCURVE",
"94 175 CURVE SMOOTH",
"76 175 OFFCURVE",
"60 177 OFFCURVE",
"40 180 CURVE SMOOTH",
"29 182 OFFCURVE",
"24 177 OFFCURVE",
"21 162 CURVE SMOOTH",
"-7 31 LINE SMOOTH",
"-10 16 OFFCURVE",
"-3 12 OFFCURVE",
"23 5 CURVE SMOOTH",
"64 -6 OFFCURVE",
"106 -10 OFFCURVE",
"151 -10 CURVE SMOOTH"
);
}
);
};
layerId = "945F4A85-7B75-430B-91A8-74C2C4AC9571";
paths = (
{
closed = 1;
nodes = (
"303 -10 OFFCURVE",
"389 42 OFFCURVE",
"412 206 CURVE SMOOTH",
"483 715 LINE SMOOTH",
"486 733 OFFCURVE",
"483 742 OFFCURVE",
"471 742 CURVE SMOOTH",
"276 742 LINE SMOOTH",
"264 742 OFFCURVE",
"260 740 OFFCURVE",
"258 725 CURVE SMOOTH",
"194 274 LINE SMOOTH",
"185 206 OFFCURVE",
"147 175 OFFCURVE",
"94 175 CURVE SMOOTH",
"76 175 OFFCURVE",
"60 177 OFFCURVE",
"40 180 CURVE SMOOTH",
"29 182 OFFCURVE",
"24 177 OFFCURVE",
"21 162 CURVE SMOOTH",
"-7 31 LINE SMOOTH",
"-10 16 OFFCURVE",
"-3 12 OFFCURVE",
"23 5 CURVE SMOOTH",
"64 -6 OFFCURVE",
"106 -10 OFFCURVE",
"151 -10 CURVE SMOOTH"
);
}
);
width = 467;
}
);
leftKerningGroup = J;
rightKerningGroup = J;
unicode = 004A;
},
{
color = 5;
glyphname = K;
lastChange = "2022-07-20 12:08:12 +0000";
layers = (
{
anchors = (
{
name = bottom;
position = "{371, 0}";
},
{
name = top;
position = "{371, 742}";
}
);
background = {
anchors = (
{
name = bottom;
position = "{371, 0}";
},
{
name = top;
position = "{371, 742}";
}
);
paths = (
{
closed = 1;
nodes = (
"246 0 LINE SMOOTH",
"269 0 OFFCURVE",
"279 8 OFFCURVE",
"279 29 CURVE SMOOTH",
"279 180 LINE SMOOTH",
"279 190 OFFCURVE",
"280 196 OFFCURVE",
"285 202 CURVE SMOOTH",
"356 293 LINE SMOOTH",
"366 306 OFFCURVE",
"372 308 OFFCURVE",
"378 298 CURVE SMOOTH",
"500 20 LINE SMOOTH",
"507 5 OFFCURVE",
"519 0 OFFCURVE",
"536 0 CURVE SMOOTH",
"731 0 LINE SMOOTH",
"751 0 OFFCURVE",
"753 15 OFFCURVE",
"745 31 CURVE SMOOTH",
"527 480 LINE SMOOTH",
"521 494 OFFCURVE",
"522 501 OFFCURVE",
"530 512 CURVE SMOOTH",
"694 713 LINE SMOOTH",
"707 728 OFFCURVE",
"695 742 OFFCURVE",
"673 742 CURVE SMOOTH",
"521 742 LINE SMOOTH",
"497 742 OFFCURVE",
"489 736 OFFCURVE",
"478 721 CURVE SMOOTH",
"294 463 LINE",
"286 453 OFFCURVE",
"279 452 OFFCURVE",
"279 468 CURVE SMOOTH",
"279 721 LINE SMOOTH",
"279 734 OFFCURVE",
"273 742 OFFCURVE",
"261 742 CURVE SMOOTH",
"71 742 LINE SMOOTH",
"60 742 OFFCURVE",
"52 734 OFFCURVE",
"52 719 CURVE SMOOTH",
"52 25 LINE SMOOTH",
"52 8 OFFCURVE",
"58 0 OFFCURVE",
"79 0 CURVE SMOOTH"
);
}
);
};
layerId = "258ED206-D907-4350-8EBA-CBDDA1C16BF7";
paths = (
{
closed = 1;
nodes = (
"246 0 LINE SMOOTH",
"269 0 OFFCURVE",
"279 8 OFFCURVE",
"279 29 CURVE SMOOTH",
"279 180 LINE SMOOTH",
"279 190 OFFCURVE",
"280 196 OFFCURVE",
"285 202 CURVE SMOOTH",
"356 293 LINE SMOOTH",
"366 306 OFFCURVE",
"372 308 OFFCURVE",
"378 298 CURVE SMOOTH",
"500 20 LINE SMOOTH",
"507 5 OFFCURVE",
"519 0 OFFCURVE",
"536 0 CURVE SMOOTH",
"731 0 LINE SMOOTH",
"751 0 OFFCURVE",
"753 15 OFFCURVE",
"745 31 CURVE SMOOTH",
"527 480 LINE SMOOTH",
"521 494 OFFCURVE",
"522 501 OFFCURVE",
"530 512 CURVE SMOOTH",
"694 713 LINE SMOOTH",
"707 728 OFFCURVE",
"695 742 OFFCURVE",
"673 742 CURVE SMOOTH",
"521 742 LINE SMOOTH",
"497 742 OFFCURVE",
"489 736 OFFCURVE",
"478 721 CURVE SMOOTH",
"294 463 LINE",
"286 453 OFFCURVE",
"279 452 OFFCURVE",
"279 468 CURVE SMOOTH",
"279 721 LINE SMOOTH",
"279 734 OFFCURVE",
"273 742 OFFCURVE",
"261 742 CURVE SMOOTH",
"71 742 LINE SMOOTH",
"60 742 OFFCURVE",
"52 734 OFFCURVE",
"52 719 CURVE SMOOTH",
"52 25 LINE SMOOTH",
"52 8 OFFCURVE",
"58 0 OFFCURVE",
"79 0 CURVE SMOOTH"
);
}
);
width = 772;
},
{
anchors = (
{
name = bottom;
position = "{343, 0}";
},
{
name = top;
position = "{373, 742}";
}
);
background = {
anchors = (
{
name = bottom;
position = "{343, 0}";
},
{
name = top;
position = "{373, 742}";
}
);
paths = (
{
closed = 1;
nodes = (
"150 0 LINE SMOOTH",
"157 0 OFFCURVE",
"160 3 OFFCURVE",
"160 9 CURVE SMOOTH",
"160 246 LINE SMOOTH",
"160 254 OFFCURVE",
"162 257 OFFCURVE",
"168 263 CURVE SMOOTH",
"300 409 LINE SMOOTH",
"305 414 OFFCURVE",
"308 415 OFFCURVE",
"312 409 CURVE SMOOTH",
"570 5 LINE SMOOTH",
"572 2 OFFCURVE",
"576 0 OFFCURVE",
"581 0 CURVE SMOOTH",
"620 0 LINE SMOOTH",
"624 0 OFFCURVE",
"626 3 OFFCURVE",
"623 7 CURVE SMOOTH",
"343 445 LINE SMOOTH",
"341 449 OFFCURVE",
"341 449 OFFCURVE",
"343 451 CURVE SMOOTH",
"602 734 LINE SMOOTH",
"606 738 OFFCURVE",
"605 742 OFFCURVE",
"599 742 CURVE SMOOTH",
"561 742 LINE SMOOTH",
"555 742 OFFCURVE",
"553 741 OFFCURVE",
"550 738 CURVE SMOOTH",
"167 322 LINE SMOOTH",
"162 317 OFFCURVE",
"160 317 OFFCURVE",
"160 323 CURVE SMOOTH",
"160 734 LINE SMOOTH",
"160 740 OFFCURVE",
"157 742 OFFCURVE",
"152 742 CURVE SMOOTH",
"122 742 LINE SMOOTH",
"116 742 OFFCURVE",
"114 739 OFFCURVE",
"114 734 CURVE SMOOTH",
"114 9 LINE SMOOTH",
"114 2 OFFCURVE",
"117 0 OFFCURVE",
"124 0 CURVE SMOOTH"
);
}
);
};
layerId = "91AB5BCA-6A50-42DA-B2F7-8181BF189245";
paths = (
{
closed = 1;
nodes = (
"150 0 LINE SMOOTH",
"157 0 OFFCURVE",
"160 3 OFFCURVE",
"160 9 CURVE SMOOTH",
"160 246 LINE SMOOTH",
"160 254 OFFCURVE",
"162 257 OFFCURVE",
"168 263 CURVE SMOOTH",
"300 409 LINE SMOOTH",
"305 414 OFFCURVE",
"308 415 OFFCURVE",
"312 409 CURVE SMOOTH",
"570 5 LINE SMOOTH",
"572 2 OFFCURVE",
"576 0 OFFCURVE",
"581 0 CURVE SMOOTH",
"620 0 LINE SMOOTH",
"624 0 OFFCURVE",
"626 3 OFFCURVE",
"623 7 CURVE SMOOTH",
"343 445 LINE SMOOTH",
"341 449 OFFCURVE",
"341 449 OFFCURVE",
"343 451 CURVE SMOOTH",
"602 734 LINE SMOOTH",
"606 738 OFFCURVE",
"605 742 OFFCURVE",
"599 742 CURVE SMOOTH",
"561 742 LINE SMOOTH",
"555 742 OFFCURVE",
"553 741 OFFCURVE",
"550 738 CURVE SMOOTH",
"167 322 LINE SMOOTH",
"162 317 OFFCURVE",
"160 317 OFFCURVE",
"160 323 CURVE SMOOTH",
"160 734 LINE SMOOTH",
"160 740 OFFCURVE",
"157 742 OFFCURVE",
"152 742 CURVE SMOOTH",
"122 742 LINE SMOOTH",
"116 742 OFFCURVE",
"114 739 OFFCURVE",
"114 734 CURVE SMOOTH",
"114 9 LINE SMOOTH",
"114 2 OFFCURVE",
"117 0 OFFCURVE",
"124 0 CURVE SMOOTH"
);
}
);
width = 674;
},
{
anchors = (
{
name = bottom;
position = "{306, 0}";
},
{
name = top;
position = "{440, 742}";
}
);
background = {
anchors = (
{
name = bottom;
position = "{306, 0}";
},
{
name = top;
position = "{440, 742}";
}
);
paths = (
{
closed = 1;
nodes = (
"114 0 LINE SMOOTH",
"121 0 OFFCURVE",
"123 2 OFFCURVE",
"124 8 CURVE SMOOTH",
"157 245 LINE SMOOTH",
"158 253 OFFCURVE",
"162 256 OFFCURVE",
"169 262 CURVE SMOOTH",
"321 408 LINE SMOOTH",
"327 413 OFFCURVE",
"330 416 OFFCURVE",
"333 410 CURVE SMOOTH",
"535 6 LINE SMOOTH",
"536 3 OFFCURVE",
"539 0 OFFCURVE",
"544 0 CURVE SMOOTH",
"583 0 LINE SMOOTH",
"587 0 OFFCURVE",
"588 3 OFFCURVE",
"584 10 CURVE SMOOTH",
"367 444 LINE SMOOTH",
"365 448 OFFCURVE",
"368 448 OFFCURVE",
"370 450 CURVE SMOOTH",
"669 733 LINE SMOOTH",
"673 737 OFFCURVE",
"673 742 OFFCURVE",
"667 742 CURVE SMOOTH",
"629 742 LINE SMOOTH",
"623 742 OFFCURVE",
"618 741 OFFCURVE",
"614 737 CURVE SMOOTH",
"174 323 LINE SMOOTH",
"168 318 OFFCURVE",
"167 316 OFFCURVE",
"168 322 CURVE SMOOTH",
"226 733 LINE SMOOTH",
"227 739 OFFCURVE",
"223 742 OFFCURVE",
"218 742 CURVE SMOOTH",
"188 742 LINE SMOOTH",
"182 742 OFFCURVE",
"181 740 OFFCURVE",
"180 735 CURVE SMOOTH",
"78 10 LINE SMOOTH",
"77 3 OFFCURVE",
"81 0 OFFCURVE",
"88 0 CURVE SMOOTH"
);
}
);
};
layerId = "3FD4CC56-10BC-4177-A1EC-581F65825651";
paths = (
{
closed = 1;
nodes = (
"114 0 LINE SMOOTH",
"121 0 OFFCURVE",
"123 2 OFFCURVE",
"124 8 CURVE SMOOTH",
"157 245 LINE SMOOTH",
"158 253 OFFCURVE",
"162 256 OFFCURVE",
"169 262 CURVE SMOOTH",
"321 408 LINE SMOOTH",
"327 413 OFFCURVE",
"330 416 OFFCURVE",
"333 410 CURVE SMOOTH",
"535 6 LINE SMOOTH",
"536 3 OFFCURVE",
"539 0 OFFCURVE",
"544 0 CURVE SMOOTH",
"583 0 LINE SMOOTH",
"587 0 OFFCURVE",
"588 3 OFFCURVE",
"584 10 CURVE SMOOTH",
"367 444 LINE SMOOTH",
"365 448 OFFCURVE",
"368 448 OFFCURVE",
"370 450 CURVE SMOOTH",
"669 733 LINE SMOOTH",
"673 737 OFFCURVE",
"673 742 OFFCURVE",
"667 742 CURVE SMOOTH",
"629 742 LINE SMOOTH",
"623 742 OFFCURVE",
"618 741 OFFCURVE",
"614 737 CURVE SMOOTH",
"174 323 LINE SMOOTH",
"168 318 OFFCURVE",
"167 316 OFFCURVE",
"168 322 CURVE SMOOTH",
"226 733 LINE SMOOTH",
"227 739 OFFCURVE",
"223 742 OFFCURVE",
"218 742 CURVE SMOOTH",
"188 742 LINE SMOOTH",
"182 742 OFFCURVE",
"181 740 OFFCURVE",
"180 735 CURVE SMOOTH",
"78 10 LINE SMOOTH",
"77 3 OFFCURVE",
"81 0 OFFCURVE",
"88 0 CURVE SMOOTH"
);
}
);
width = 674;
},
{
anchors = (
{
name = bottom;
position = "{334, 0}";
},
{
name = top;
position = "{438, 742}";
}
);
background = {
anchors = (
{
name = bottom;
position = "{334, 0}";
},
{
name = top;
position = "{438, 742}";
}
);
paths = (
{
closed = 1;
nodes = (
"213 0 LINE SMOOTH",
"236 0 OFFCURVE",
"243 6 OFFCURVE",
"245 23 CURVE SMOOTH",
"266 174 LINE SMOOTH",
"268 184 OFFCURVE",
"273 192 OFFCURVE",
"279 198 CURVE SMOOTH",
"363 288 LINE SMOOTH",
"373 301 OFFCURVE",
"381 313 OFFCURVE",
"385 303 CURVE SMOOTH",
"469 25 LINE SMOOTH",
"472 10 OFFCURVE",
"480 0 OFFCURVE",
"497 0 CURVE SMOOTH",
"692 0 LINE SMOOTH",
"712 0 OFFCURVE",
"715 10 OFFCURVE",
"709 26 CURVE SMOOTH",
"554 475 LINE SMOOTH",
"551 489 OFFCURVE",
"556 496 OFFCURVE",
"566 507 CURVE SMOOTH",
"768 718 LINE SMOOTH",
"782 732 OFFCURVE",
"778 742 OFFCURVE",
"756 742 CURVE SMOOTH",
"584 742 LINE SMOOTH",
"560 742 OFFCURVE",
"554 741 OFFCURVE",
"541 726 CURVE SMOOTH",
"319 468 LINE",
"311 458 OFFCURVE",
"304 446 OFFCURVE",
"307 462 CURVE SMOOTH",
"342 715 LINE SMOOTH",
"344 728 OFFCURVE",
"336 742 OFFCURVE",
"324 742 CURVE SMOOTH",
"134 742 LINE SMOOTH",
"123 742 OFFCURVE",
"119 740 OFFCURVE",
"117 725 CURVE SMOOTH",
"19 31 LINE SMOOTH",
"17 14 OFFCURVE",
"20 0 OFFCURVE",
"37 0 CURVE SMOOTH"
);
}
);
};
layerId = "945F4A85-7B75-430B-91A8-74C2C4AC9571";
paths = (
{
closed = 1;
nodes = (
"213 0 LINE SMOOTH",
"236 0 OFFCURVE",
"243 6 OFFCURVE",
"245 23 CURVE SMOOTH",
"266 174 LINE SMOOTH",
"268 184 OFFCURVE",
"273 192 OFFCURVE",
"279 198 CURVE SMOOTH",
"363 288 LINE SMOOTH",
"373 301 OFFCURVE",
"381 313 OFFCURVE",
"385 303 CURVE SMOOTH",
"469 25 LINE SMOOTH",
"472 10 OFFCURVE",
"480 0 OFFCURVE",
"497 0 CURVE SMOOTH",
"692 0 LINE SMOOTH",
"712 0 OFFCURVE",
"715 10 OFFCURVE",
"709 26 CURVE SMOOTH",
"554 475 LINE SMOOTH",
"551 489 OFFCURVE",
"556 496 OFFCURVE",
"566 507 CURVE SMOOTH",
"768 718 LINE SMOOTH",
"782 732 OFFCURVE",
"778 742 OFFCURVE",
"756 742 CURVE SMOOTH",
"584 742 LINE SMOOTH",
"560 742 OFFCURVE",
"554 741 OFFCURVE",
"541 726 CURVE SMOOTH",
"319 468 LINE",
"311 458 OFFCURVE",
"304 446 OFFCURVE",
"307 462 CURVE SMOOTH",
"342 715 LINE SMOOTH",
"344 728 OFFCURVE",
"336 742 OFFCURVE",
"324 742 CURVE SMOOTH",
"134 742 LINE SMOOTH",
"123 742 OFFCURVE",
"119 740 OFFCURVE",
"117 725 CURVE SMOOTH",
"19 31 LINE SMOOTH",
"17 14 OFFCURVE",
"20 0 OFFCURVE",
"37 0 CURVE SMOOTH"
);
}
);
width = 772;
}
);
rightKerningGroup = K;
unicode = 004B;
},
{
color = 5;
glyphname = L;
lastChange = "2022-07-20 12:08:12 +0000";
layers = (
{
anchors = (
{
name = bottom;
position = "{314, 0}";
},
{
name = top;
position = "{168, 742}";
},
{
name = topright;
position = "{510, 742}";
}
);
background = {
anchors = (
{
name = bottom;
position = "{314, 0}";
},
{
name = top;
position = "{168, 742}";
},
{
name = topright;
position = "{510, 742}";
}
);
paths = (
{
closed = 1;
nodes = (
"590 0 LINE SMOOTH",
"607 0 OFFCURVE",
"615 10 OFFCURVE",
"615 22 CURVE SMOOTH",
"615 145 LINE SMOOTH",
"615 159 OFFCURVE",
"606 164 OFFCURVE",
"592 164 CURVE SMOOTH",
"291 164 LINE SMOOTH",
"282 164 OFFCURVE",
"279 167 OFFCURVE",
"279 178 CURVE SMOOTH",
"279 721 LINE SMOOTH",
"279 734 OFFCURVE",
"273 742 OFFCURVE",
"261 742 CURVE SMOOTH",
"71 742 LINE SMOOTH",
"60 742 OFFCURVE",
"52 734 OFFCURVE",
"52 719 CURVE SMOOTH",
"52 25 LINE SMOOTH",
"52 8 OFFCURVE",
"58 0 OFFCURVE",
"79 0 CURVE SMOOTH"
);
}
);
};
layerId = "258ED206-D907-4350-8EBA-CBDDA1C16BF7";
paths = (
{
closed = 1;
nodes = (
"590 0 LINE SMOOTH",
"607 0 OFFCURVE",
"615 10 OFFCURVE",
"615 22 CURVE SMOOTH",
"615 145 LINE SMOOTH",
"615 159 OFFCURVE",
"606 164 OFFCURVE",
"592 164 CURVE SMOOTH",
"291 164 LINE SMOOTH",
"282 164 OFFCURVE",
"279 167 OFFCURVE",
"279 178 CURVE SMOOTH",
"279 721 LINE SMOOTH",
"279 734 OFFCURVE",
"273 742 OFFCURVE",
"261 742 CURVE SMOOTH",
"71 742 LINE SMOOTH",
"60 742 OFFCURVE",
"52 734 OFFCURVE",
"52 719 CURVE SMOOTH",
"52 25 LINE SMOOTH",
"52 8 OFFCURVE",
"58 0 OFFCURVE",
"79 0 CURVE SMOOTH"
);
}
);
width = 643;
},
{
anchors = (
{
name = bottom;
position = "{319, 0}";
},
{
name = top;
position = "{137, 742}";
},
{
name = topright;
position = "{423, 742}";
}
);
background = {
anchors = (
{
name = bottom;
position = "{319, 0}";
},
{
name = top;
position = "{137, 742}";
},
{
name = topright;
position = "{423, 742}";
}
);
paths = (
{
closed = 1;
nodes = (
"533 0 LINE",
"538 0 OFFCURVE",
"540 2 OFFCURVE",
"540 7 CURVE SMOOTH",
"540 33 LINE SMOOTH",
"540 39 OFFCURVE",
"538 40 OFFCURVE",
"532 40 CURVE SMOOTH",
"169 40 LINE SMOOTH",
"162 40 OFFCURVE",
"160 41 OFFCURVE",
"160 49 CURVE SMOOTH",
"160 732 LINE SMOOTH",
"160 740 OFFCURVE",
"158 742 OFFCURVE",
"151 742 CURVE SMOOTH",
"123 742 LINE SMOOTH",
"116 742 OFFCURVE",
"114 740 OFFCURVE",
"114 732 CURVE SMOOTH",
"114 10 LINE SMOOTH",
"114 3 OFFCURVE",
"116 0 OFFCURVE",
"123 0 CURVE"
);
}
);
};
layerId = "91AB5BCA-6A50-42DA-B2F7-8181BF189245";
paths = (
{
closed = 1;
nodes = (
"533 0 LINE",
"538 0 OFFCURVE",
"540 2 OFFCURVE",
"540 7 CURVE SMOOTH",
"540 33 LINE SMOOTH",
"540 39 OFFCURVE",
"538 40 OFFCURVE",
"532 40 CURVE SMOOTH",
"169 40 LINE SMOOTH",
"162 40 OFFCURVE",
"160 41 OFFCURVE",
"160 49 CURVE SMOOTH",
"160 732 LINE SMOOTH",
"160 740 OFFCURVE",
"158 742 OFFCURVE",
"151 742 CURVE SMOOTH",
"123 742 LINE SMOOTH",
"116 742 OFFCURVE",
"114 740 OFFCURVE",
"114 732 CURVE SMOOTH",
"114 10 LINE SMOOTH",
"114 3 OFFCURVE",
"116 0 OFFCURVE",
"123 0 CURVE"
);
}
);
width = 587;
},
{
anchors = (
{
name = bottom;
position = "{282, 0}";
},
{
name = top;
position = "{204, 742}";
},
{
name = topright;
position = "{490, 742}";
}
);
background = {
anchors = (
{
name = bottom;
position = "{282, 0}";
},
{
name = top;
position = "{204, 742}";
},
{
name = topright;
position = "{490, 742}";
}
);
paths = (
{
closed = 1;
nodes = (
"497 0 LINE SMOOTH",
"502 0 OFFCURVE",
"503 1 OFFCURVE",
"504 6 CURVE SMOOTH",
"507 32 LINE SMOOTH",
"508 38 OFFCURVE",
"506 40 OFFCURVE",
"499 40 CURVE SMOOTH",
"136 40 LINE SMOOTH",
"129 40 OFFCURVE",
"128 41 OFFCURVE",
"130 48 CURVE SMOOTH",
"225 731 LINE SMOOTH",
"226 738 OFFCURVE",
"226 742 OFFCURVE",
"219 742 CURVE SMOOTH",
"191 742 LINE SMOOTH",
"184 742 OFFCURVE",
"181 741 OFFCURVE",
"180 733 CURVE SMOOTH",
"78 11 LINE SMOOTH",
"77 4 OFFCURVE",
"80 0 OFFCURVE",
"87 0 CURVE SMOOTH"
);
}
);
};
layerId = "3FD4CC56-10BC-4177-A1EC-581F65825651";
paths = (
{
closed = 1;
nodes = (
"497 0 LINE SMOOTH",
"502 0 OFFCURVE",
"503 1 OFFCURVE",
"504 6 CURVE SMOOTH",
"507 32 LINE SMOOTH",
"508 38 OFFCURVE",
"506 40 OFFCURVE",
"499 40 CURVE SMOOTH",
"136 40 LINE SMOOTH",
"129 40 OFFCURVE",
"128 41 OFFCURVE",
"130 48 CURVE SMOOTH",
"225 731 LINE SMOOTH",
"226 738 OFFCURVE",
"226 742 OFFCURVE",
"219 742 CURVE SMOOTH",
"191 742 LINE SMOOTH",
"184 742 OFFCURVE",
"181 741 OFFCURVE",
"180 733 CURVE SMOOTH",
"78 11 LINE SMOOTH",
"77 4 OFFCURVE",
"80 0 OFFCURVE",
"87 0 CURVE SMOOTH"
);
}
);
width = 587;
},
{
anchors = (
{
name = bottom;
position = "{277, 0}";
},
{
name = top;
position = "{235, 742}";
},
{
name = topright;
position = "{577, 742}";
}
);
background = {
anchors = (
{
name = bottom;
position = "{277, 0}";
},
{
name = top;
position = "{235, 742}";
},
{
name = topright;
position = "{577, 742}";
}
);
paths = (
{
closed = 1;
nodes = (
"557 0 LINE SMOOTH",
"573 0 OFFCURVE",
"578 3 OFFCURVE",
"580 16 CURVE SMOOTH",
"597 139 LINE SMOOTH",
"599 155 OFFCURVE",
"594 164 OFFCURVE",
"582 164 CURVE SMOOTH",
"278 164 LINE SMOOTH",
"269 164 OFFCURVE",
"265 170 OFFCURVE",
"267 181 CURVE SMOOTH",
"342 715 LINE SMOOTH",
"345 732 OFFCURVE",
"340 742 OFFCURVE",
"330 742 CURVE SMOOTH",
"134 742 LINE SMOOTH",
"123 742 OFFCURVE",
"118 737 OFFCURVE",
"116 722 CURVE SMOOTH",
"19 31 LINE SMOOTH",
"17 11 OFFCURVE",
"25 0 OFFCURVE",
"43 0 CURVE SMOOTH"
);
}
);
};
layerId = "945F4A85-7B75-430B-91A8-74C2C4AC9571";
paths = (
{
closed = 1;
nodes = (
"557 0 LINE SMOOTH",
"573 0 OFFCURVE",
"578 3 OFFCURVE",
"580 16 CURVE SMOOTH",
"597 139 LINE SMOOTH",
"599 155 OFFCURVE",
"594 164 OFFCURVE",
"582 164 CURVE SMOOTH",
"278 164 LINE SMOOTH",
"269 164 OFFCURVE",
"265 170 OFFCURVE",
"267 181 CURVE SMOOTH",
"342 715 LINE SMOOTH",
"345 732 OFFCURVE",
"340 742 OFFCURVE",
"330 742 CURVE SMOOTH",
"134 742 LINE SMOOTH",
"123 742 OFFCURVE",
"118 737 OFFCURVE",
"116 722 CURVE SMOOTH",
"19 31 LINE SMOOTH",
"17 11 OFFCURVE",
"25 0 OFFCURVE",
"43 0 CURVE SMOOTH"
);
}
);
width = 643;
}
);
rightKerningGroup = L;
unicode = 004C;
},
{
color = 4;
glyphname = Lslash;
lastChange = "2022-07-20 12:09:27 +0000";
layers = (
{
background = {
components = (
{
name = L;
}
);
paths = (
{
closed = 1;
nodes = (
"419 397 LINE SMOOTH",
"433 401 OFFCURVE",
"439 409 OFFCURVE",
"439 421 CURVE SMOOTH",
"439 534 LINE SMOOTH",
"439 550 OFFCURVE",
"432 557 OFFCURVE",
"415 552 CURVE SMOOTH",
"10 444 LINE SMOOTH",
"-2 441 OFFCURVE",
"-9 436 OFFCURVE",
"-9 421 CURVE SMOOTH",
"-9 301 LINE SMOOTH",
"-9 284 OFFCURVE",
"-3 277 OFFCURVE",
"17 283 CURVE SMOOTH"
);
}
);
};
components = (
{
name = L;
}
);
layerId = "258ED206-D907-4350-8EBA-CBDDA1C16BF7";
paths = (
{
closed = 1;
nodes = (
"419 397 LINE SMOOTH",
"433 401 OFFCURVE",
"439 409 OFFCURVE",
"439 421 CURVE SMOOTH",
"439 534 LINE SMOOTH",
"439 550 OFFCURVE",
"432 557 OFFCURVE",
"415 552 CURVE SMOOTH",
"10 444 LINE SMOOTH",
"-2 441 OFFCURVE",
"-9 436 OFFCURVE",
"-9 421 CURVE SMOOTH",
"-9 301 LINE SMOOTH",
"-9 284 OFFCURVE",
"-3 277 OFFCURVE",
"17 283 CURVE SMOOTH"
);
}
);
width = 643;
},
{
background = {
components = (
{
name = L;
}
);
paths = (
{
closed = 1;
nodes = (
"321 400 LINE SMOOTH",
"325 401 OFFCURVE",
"327 404 OFFCURVE",
"327 408 CURVE SMOOTH",
"327 432 LINE SMOOTH",
"327 436 OFFCURVE",
"325 438 OFFCURVE",
"320 437 CURVE SMOOTH",
"38 365 LINE SMOOTH",
"35 364 OFFCURVE",
"33 361 OFFCURVE",
"33 356 CURVE SMOOTH",
"33 332 LINE SMOOTH",
"33 327 OFFCURVE",
"35 326 OFFCURVE",
"40 327 CURVE SMOOTH"
);
}
);
};
components = (
{
name = L;
}
);
layerId = "91AB5BCA-6A50-42DA-B2F7-8181BF189245";
paths = (
{
closed = 1;
nodes = (
"321 400 LINE SMOOTH",
"325 401 OFFCURVE",
"327 404 OFFCURVE",
"327 408 CURVE SMOOTH",
"327 432 LINE SMOOTH",
"327 436 OFFCURVE",
"325 438 OFFCURVE",
"320 437 CURVE SMOOTH",
"38 365 LINE SMOOTH",
"35 364 OFFCURVE",
"33 361 OFFCURVE",
"33 356 CURVE SMOOTH",
"33 332 LINE SMOOTH",
"33 327 OFFCURVE",
"35 326 OFFCURVE",
"40 327 CURVE SMOOTH"
);
}
);
width = 587;
},
{
background = {
components = (
{
name = L;
transform = "{1, 0, 0, 1, -37, 0}";
}
);
paths = (
{
closed = 1;
nodes = (
"341 400 LINE SMOOTH",
"345 401 OFFCURVE",
"346 403 OFFCURVE",
"347 407 CURVE SMOOTH",
"350 431 LINE SMOOTH",
"351 435 OFFCURVE",
"348 438 OFFCURVE",
"343 437 CURVE SMOOTH",
"51 365 LINE SMOOTH",
"48 364 OFFCURVE",
"47 362 OFFCURVE",
"46 357 CURVE SMOOTH",
"43 333 LINE SMOOTH",
"42 328 OFFCURVE",
"45 326 OFFCURVE",
"50 327 CURVE SMOOTH"
);
}
);
};
components = (
{
name = L;
transform = "{1, 0, 0, 1, -37, 0}";
}
);
layerId = "3FD4CC56-10BC-4177-A1EC-581F65825651";
paths = (
{
closed = 1;
nodes = (
"341 400 LINE SMOOTH",
"345 401 OFFCURVE",
"346 403 OFFCURVE",
"347 407 CURVE SMOOTH",
"350 431 LINE SMOOTH",
"351 435 OFFCURVE",
"348 438 OFFCURVE",
"343 437 CURVE SMOOTH",
"51 365 LINE SMOOTH",
"48 364 OFFCURVE",
"47 362 OFFCURVE",
"46 357 CURVE SMOOTH",
"43 333 LINE SMOOTH",
"42 328 OFFCURVE",
"45 326 OFFCURVE",
"50 327 CURVE SMOOTH"
);
}
);
width = 550;
},
{
background = {
components = (
{
name = L;
transform = "{1, 0, 0, 1, -37, 0}";
}
);
paths = (
{
closed = 1;
nodes = (
"411 395 LINE SMOOTH",
"426 399 OFFCURVE",
"428 403 OFFCURVE",
"430 415 CURVE SMOOTH",
"446 528 LINE SMOOTH",
"448 544 OFFCURVE",
"439 558 OFFCURVE",
"422 554 CURVE SMOOTH",
"1 445 LINE SMOOTH",
"-11 442 OFFCURVE",
"-14 442 OFFCURVE",
"-16 427 CURVE SMOOTH",
"-33 307 LINE SMOOTH",
"-35 290 OFFCURVE",
"-28 275 OFFCURVE",
"-7 281 CURVE SMOOTH"
);
}
);
};
components = (
{
name = L;
transform = "{1, 0, 0, 1, -37, 0}";
}
);
layerId = "945F4A85-7B75-430B-91A8-74C2C4AC9571";
paths = (
{
closed = 1;
nodes = (
"411 395 LINE SMOOTH",
"426 399 OFFCURVE",
"428 403 OFFCURVE",
"430 415 CURVE SMOOTH",
"446 528 LINE SMOOTH",
"448 544 OFFCURVE",
"439 558 OFFCURVE",
"422 554 CURVE SMOOTH",
"1 445 LINE SMOOTH",
"-11 442 OFFCURVE",
"-14 442 OFFCURVE",
"-16 427 CURVE SMOOTH",
"-33 307 LINE SMOOTH",
"-35 290 OFFCURVE",
"-28 275 OFFCURVE",
"-7 281 CURVE SMOOTH"
);
}
);
width = 606;
}
);
rightMetricsKey = L;
unicode = 0141;
},
{
color = 5;
glyphname = M;
lastChange = "2022-07-20 12:08:12 +0000";
layers = (
{
background = {
paths = (
{
closed = 1;
nodes = (
"211 0 LINE SMOOTH",
"229 0 OFFCURVE",
"233 4 OFFCURVE",
"233 22 CURVE SMOOTH",
"233 464 LINE SMOOTH",
"233 477 OFFCURVE",
"240 481 OFFCURVE",
"245 465 CURVE SMOOTH",
"389 18 LINE SMOOTH",
"393 6 OFFCURVE",
"401 0 OFFCURVE",
"413 0 CURVE SMOOTH",
"518 0 LINE SMOOTH",
"529 0 OFFCURVE",
"538 7 OFFCURVE",
"542 18 CURVE SMOOTH",
"686 473 LINE SMOOTH",
"690 485 OFFCURVE",
"698 485 OFFCURVE",
"698 474 CURVE SMOOTH",
"698 25 LINE SMOOTH",
"698 8 OFFCURVE",
"704 0 OFFCURVE",
"724 0 CURVE SMOOTH",
"893 0 LINE SMOOTH",
"916 0 OFFCURVE",
"925 8 OFFCURVE",
"925 29 CURVE SMOOTH",
"925 721 LINE SMOOTH",
"925 734 OFFCURVE",
"919 742 OFFCURVE",
"907 742 CURVE SMOOTH",
"618 742 LINE SMOOTH",
"604 742 OFFCURVE",
"596 731 OFFCURVE",
"591 713 CURVE SMOOTH",
"498 406 LINE SMOOTH",
"495 397 OFFCURVE",
"489 395 OFFCURVE",
"485 406 CURVE SMOOTH",
"381 724 LINE SMOOTH",
"376 738 OFFCURVE",
"370 742 OFFCURVE",
"353 742 CURVE SMOOTH",
"73 742 LINE SMOOTH",
"58 742 OFFCURVE",
"52 735 OFFCURVE",
"52 719 CURVE SMOOTH",
"52 28 LINE SMOOTH",
"52 11 OFFCURVE",
"62 0 OFFCURVE",
"78 0 CURVE SMOOTH"
);
}
);
};
layerId = "258ED206-D907-4350-8EBA-CBDDA1C16BF7";
paths = (
{
closed = 1;
nodes = (
"211 0 LINE SMOOTH",
"229 0 OFFCURVE",
"233 4 OFFCURVE",
"233 22 CURVE SMOOTH",
"233 464 LINE SMOOTH",
"233 477 OFFCURVE",
"240 481 OFFCURVE",
"245 465 CURVE SMOOTH",
"389 18 LINE SMOOTH",
"393 6 OFFCURVE",
"401 0 OFFCURVE",
"413 0 CURVE SMOOTH",
"518 0 LINE SMOOTH",
"529 0 OFFCURVE",
"538 7 OFFCURVE",
"542 18 CURVE SMOOTH",
"686 473 LINE SMOOTH",
"690 485 OFFCURVE",
"698 485 OFFCURVE",
"698 474 CURVE SMOOTH",
"698 25 LINE SMOOTH",
"698 8 OFFCURVE",
"704 0 OFFCURVE",
"724 0 CURVE SMOOTH",
"893 0 LINE SMOOTH",
"916 0 OFFCURVE",
"925 8 OFFCURVE",
"925 29 CURVE SMOOTH",
"925 721 LINE SMOOTH",
"925 734 OFFCURVE",
"919 742 OFFCURVE",
"907 742 CURVE SMOOTH",
"618 742 LINE SMOOTH",
"604 742 OFFCURVE",
"596 731 OFFCURVE",
"591 713 CURVE SMOOTH",
"498 406 LINE SMOOTH",
"495 397 OFFCURVE",
"489 395 OFFCURVE",
"485 406 CURVE SMOOTH",
"381 724 LINE SMOOTH",
"376 738 OFFCURVE",
"370 742 OFFCURVE",
"353 742 CURVE SMOOTH",
"73 742 LINE SMOOTH",
"58 742 OFFCURVE",
"52 735 OFFCURVE",
"52 719 CURVE SMOOTH",
"52 28 LINE SMOOTH",
"52 11 OFFCURVE",
"62 0 OFFCURVE",
"78 0 CURVE SMOOTH"
);
}
);
width = 977;
},
{
background = {
paths = (
{
closed = 1;
nodes = (
"148 0 LINE SMOOTH",
"155 0 OFFCURVE",
"158 3 OFFCURVE",
"158 9 CURVE SMOOTH",
"158 622 LINE SMOOTH",
"158 626 OFFCURVE",
"160 625 OFFCURVE",
"161 622 CURVE SMOOTH",
"405 10 LINE SMOOTH",
"408 3 OFFCURVE",
"413 0 OFFCURVE",
"424 0 CURVE SMOOTH",
"451 0 LINE SMOOTH",
"460 0 OFFCURVE",
"464 3 OFFCURVE",
"467 11 CURVE SMOOTH",
"716 627 LINE SMOOTH",
"717 630 OFFCURVE",
"719 632 OFFCURVE",
"719 627 CURVE SMOOTH",
"719 9 LINE SMOOTH",
"719 2 OFFCURVE",
"722 0 OFFCURVE",
"729 0 CURVE SMOOTH",
"756 0 LINE SMOOTH",
"762 0 OFFCURVE",
"765 3 OFFCURVE",
"765 10 CURVE SMOOTH",
"765 732 LINE SMOOTH",
"765 740 OFFCURVE",
"763 742 OFFCURVE",
"756 742 CURVE SMOOTH",
"727 742 LINE SMOOTH",
"721 742 OFFCURVE",
"718 740 OFFCURVE",
"716 735 CURVE SMOOTH",
"445 65 LINE SMOOTH",
"439 51 OFFCURVE",
"434 51 OFFCURVE",
"429 64 CURVE SMOOTH",
"162 734 LINE",
"160 740 OFFCURVE",
"157 742 OFFCURVE",
"149 742 CURVE SMOOTH",
"123 742 LINE SMOOTH",
"116 742 OFFCURVE",
"114 740 OFFCURVE",
"114 732 CURVE SMOOTH",
"114 10 LINE SMOOTH",
"114 3 OFFCURVE",
"116 0 OFFCURVE",
"123 0 CURVE SMOOTH"
);
}
);
};
guideLines = (
{
position = "{43, 566}";
showMeasurement = 1;
}
);
layerId = "91AB5BCA-6A50-42DA-B2F7-8181BF189245";
paths = (
{
closed = 1;
nodes = (
"148 0 LINE SMOOTH",
"155 0 OFFCURVE",
"158 3 OFFCURVE",
"158 9 CURVE SMOOTH",
"158 622 LINE SMOOTH",
"158 626 OFFCURVE",
"160 625 OFFCURVE",
"161 622 CURVE SMOOTH",
"405 10 LINE SMOOTH",
"408 3 OFFCURVE",
"413 0 OFFCURVE",
"424 0 CURVE SMOOTH",
"451 0 LINE SMOOTH",
"460 0 OFFCURVE",
"464 3 OFFCURVE",
"467 11 CURVE SMOOTH",
"716 627 LINE SMOOTH",
"717 630 OFFCURVE",
"719 632 OFFCURVE",
"719 627 CURVE SMOOTH",
"719 9 LINE SMOOTH",
"719 2 OFFCURVE",
"722 0 OFFCURVE",
"729 0 CURVE SMOOTH",
"756 0 LINE SMOOTH",
"762 0 OFFCURVE",
"765 3 OFFCURVE",
"765 10 CURVE SMOOTH",
"765 732 LINE SMOOTH",
"765 740 OFFCURVE",
"763 742 OFFCURVE",
"756 742 CURVE SMOOTH",
"727 742 LINE SMOOTH",
"721 742 OFFCURVE",
"718 740 OFFCURVE",
"716 735 CURVE SMOOTH",
"445 65 LINE SMOOTH",
"439 51 OFFCURVE",
"434 51 OFFCURVE",
"429 64 CURVE SMOOTH",
"162 734 LINE",
"160 740 OFFCURVE",
"157 742 OFFCURVE",
"149 742 CURVE SMOOTH",
"123 742 LINE SMOOTH",
"116 742 OFFCURVE",
"114 740 OFFCURVE",
"114 732 CURVE SMOOTH",
"114 10 LINE SMOOTH",
"114 3 OFFCURVE",
"116 0 OFFCURVE",
"123 0 CURVE SMOOTH"
);
}
);
width = 879;
},
{
background = {
paths = (
{
closed = 1;
nodes = (
"112 0 LINE SMOOTH",
"119 0 OFFCURVE",
"121 2 OFFCURVE",
"122 8 CURVE SMOOTH",
"208 620 LINE SMOOTH",
"209 624 OFFCURVE",
"211 624 OFFCURVE",
"212 620 CURVE SMOOTH",
"370 11 LINE SMOOTH",
"372 2 OFFCURVE",
"374 0 OFFCURVE",
"382 0 CURVE SMOOTH",
"415 0 LINE SMOOTH",
"424 0 OFFCURVE",
"427 2 OFFCURVE",
"431 10 CURVE SMOOTH",
"767 624 LINE SMOOTH",
"768 626 OFFCURVE",
"770 627 OFFCURVE",
"769 622 CURVE SMOOTH",
"683 10 LINE SMOOTH",
"682 3 OFFCURVE",
"686 0 OFFCURVE",
"693 0 CURVE SMOOTH",
"720 0 LINE SMOOTH",
"726 0 OFFCURVE",
"728 2 OFFCURVE",
"729 9 CURVE SMOOTH",
"830 731 LINE SMOOTH",
"831 739 OFFCURVE",
"829 742 OFFCURVE",
"822 742 CURVE SMOOTH",
"793 742 LINE SMOOTH",
"787 742 OFFCURVE",
"785 741 OFFCURVE",
"782 736 CURVE SMOOTH",
"416 66 LINE SMOOTH",
"409 52 OFFCURVE",
"404 50 OFFCURVE",
"401 63 CURVE SMOOTH",
"226 736 LINE SMOOTH",
"225 740 OFFCURVE",
"223 742 OFFCURVE",
"218 742 CURVE SMOOTH",
"189 742 LINE SMOOTH",
"182 742 OFFCURVE",
"181 741 OFFCURVE",
"180 733 CURVE SMOOTH",
"78 11 LINE SMOOTH",
"77 2 OFFCURVE",
"77 0 OFFCURVE",
"84 0 CURVE SMOOTH"
);
}
);
};
guideLines = (
{
position = "{43, 566}";
showMeasurement = 1;
}
);
layerId = "3FD4CC56-10BC-4177-A1EC-581F65825651";
paths = (
{
closed = 1;
nodes = (
"112 0 LINE SMOOTH",
"119 0 OFFCURVE",
"121 2 OFFCURVE",
"122 8 CURVE SMOOTH",
"208 620 LINE SMOOTH",
"209 624 OFFCURVE",
"211 624 OFFCURVE",
"212 620 CURVE SMOOTH",
"370 11 LINE SMOOTH",
"372 2 OFFCURVE",
"374 0 OFFCURVE",
"382 0 CURVE SMOOTH",
"415 0 LINE SMOOTH",
"424 0 OFFCURVE",
"427 2 OFFCURVE",
"431 10 CURVE SMOOTH",
"767 624 LINE SMOOTH",
"768 626 OFFCURVE",
"770 627 OFFCURVE",
"769 622 CURVE SMOOTH",
"683 10 LINE SMOOTH",
"682 3 OFFCURVE",
"686 0 OFFCURVE",
"693 0 CURVE SMOOTH",
"720 0 LINE SMOOTH",
"726 0 OFFCURVE",
"728 2 OFFCURVE",
"729 9 CURVE SMOOTH",
"830 731 LINE SMOOTH",
"831 739 OFFCURVE",
"829 742 OFFCURVE",
"822 742 CURVE SMOOTH",
"793 742 LINE SMOOTH",
"787 742 OFFCURVE",
"785 741 OFFCURVE",
"782 736 CURVE SMOOTH",
"416 66 LINE SMOOTH",
"409 52 OFFCURVE",
"404 50 OFFCURVE",
"401 63 CURVE SMOOTH",
"226 736 LINE SMOOTH",
"225 740 OFFCURVE",
"223 742 OFFCURVE",
"218 742 CURVE SMOOTH",
"189 742 LINE SMOOTH",
"182 742 OFFCURVE",
"181 741 OFFCURVE",
"180 733 CURVE SMOOTH",
"78 11 LINE SMOOTH",
"77 2 OFFCURVE",
"77 0 OFFCURVE",
"84 0 CURVE SMOOTH"
);
}
);
width = 879;
},
{
background = {
paths = (
{
closed = 1;
nodes = (
"178 0 LINE SMOOTH",
"191 0 OFFCURVE",
"196 3 OFFCURVE",
"198 16 CURVE SMOOTH",
"262 467 LINE SMOOTH",
"264 479 OFFCURVE",
"273 480 OFFCURVE",
"276 465 CURVE SMOOTH",
"357 23 LINE SMOOTH",
"361 4 OFFCURVE",
"368 0 OFFCURVE",
"380 0 CURVE SMOOTH",
"485 0 LINE SMOOTH",
"496 0 OFFCURVE",
"502 2 OFFCURVE",
"508 13 CURVE SMOOTH",
"717 468 LINE SMOOTH",
"723 481 OFFCURVE",
"729 481 OFFCURVE",
"727 470 CURVE SMOOTH",
"665 31 LINE SMOOTH",
"661 6 OFFCURVE",
"671 0 OFFCURVE",
"691 0 CURVE SMOOTH",
"860 0 LINE SMOOTH",
"883 0 OFFCURVE",
"888 2 OFFCURVE",
"891 23 CURVE SMOOTH",
"990 726 LINE SMOOTH",
"992 737 OFFCURVE",
"988 742 OFFCURVE",
"977 742 CURVE SMOOTH",
"681 742 LINE SMOOTH",
"667 742 OFFCURVE",
"661 736 OFFCURVE",
"654 718 CURVE SMOOTH",
"513 403 LINE SMOOTH",
"510 396 OFFCURVE",
"504 395 OFFCURVE",
"503 403 CURVE SMOOTH",
"443 719 LINE SMOOTH",
"440 733 OFFCURVE",
"433 742 OFFCURVE",
"416 742 CURVE SMOOTH",
"136 742 LINE SMOOTH",
"121 742 OFFCURVE",
"119 741 OFFCURVE",
"117 725 CURVE SMOOTH",
"20 34 LINE SMOOTH",
"16 5 OFFCURVE",
"19 0 OFFCURVE",
"35 0 CURVE SMOOTH"
);
}
);
};
layerId = "945F4A85-7B75-430B-91A8-74C2C4AC9571";
paths = (
{
closed = 1;
nodes = (
"178 0 LINE SMOOTH",
"191 0 OFFCURVE",
"196 3 OFFCURVE",
"198 16 CURVE SMOOTH",
"262 467 LINE SMOOTH",
"264 479 OFFCURVE",
"273 480 OFFCURVE",
"276 465 CURVE SMOOTH",
"357 23 LINE SMOOTH",
"361 4 OFFCURVE",
"368 0 OFFCURVE",
"380 0 CURVE SMOOTH",
"485 0 LINE SMOOTH",
"496 0 OFFCURVE",
"502 2 OFFCURVE",
"508 13 CURVE SMOOTH",
"717 468 LINE SMOOTH",
"723 481 OFFCURVE",
"729 481 OFFCURVE",
"727 470 CURVE SMOOTH",
"665 31 LINE SMOOTH",
"661 6 OFFCURVE",
"671 0 OFFCURVE",
"691 0 CURVE SMOOTH",
"860 0 LINE SMOOTH",
"883 0 OFFCURVE",
"888 2 OFFCURVE",
"891 23 CURVE SMOOTH",
"990 726 LINE SMOOTH",
"992 737 OFFCURVE",
"988 742 OFFCURVE",
"977 742 CURVE SMOOTH",
"681 742 LINE SMOOTH",
"667 742 OFFCURVE",
"661 736 OFFCURVE",
"654 718 CURVE SMOOTH",
"513 403 LINE SMOOTH",
"510 396 OFFCURVE",
"504 395 OFFCURVE",
"503 403 CURVE SMOOTH",
"443 719 LINE SMOOTH",
"440 733 OFFCURVE",
"433 742 OFFCURVE",
"416 742 CURVE SMOOTH",
"136 742 LINE SMOOTH",
"121 742 OFFCURVE",
"119 741 OFFCURVE",
"117 725 CURVE SMOOTH",
"20 34 LINE SMOOTH",
"16 5 OFFCURVE",
"19 0 OFFCURVE",
"35 0 CURVE SMOOTH"
);
}
);
width = 977;
}
);
unicode = 004D;
},
{
color = 5;
glyphname = N;
lastChange = "2022-07-20 12:08:12 +0000";
layers = (
{
anchors = (
{
name = bottom;
position = "{381, 0}";
},
{
name = top;
position = "{381, 742}";
}
);
background = {
anchors = (
{
name = bottom;
position = "{381, 0}";
},
{
name = top;
position = "{381, 742}";
}
);
paths = (
{
closed = 1;
nodes = (
"213 0 LINE SMOOTH",
"231 0 OFFCURVE",
"238 6 OFFCURVE",
"237 22 CURVE SMOOTH",
"237 386 LINE SMOOTH",
"237 393 OFFCURVE",
"242 395 OFFCURVE",
"247 388 CURVE SMOOTH",
"522 15 LINE SMOOTH",
"532 2 OFFCURVE",
"538 0 OFFCURVE",
"549 0 CURVE SMOOTH",
"686 0 LINE SMOOTH",
"699 0 OFFCURVE",
"709 7 OFFCURVE",
"709 18 CURVE SMOOTH",
"709 725 LINE SMOOTH",
"709 736 OFFCURVE",
"704 742 OFFCURVE",
"694 742 CURVE SMOOTH",
"549 742 LINE SMOOTH",
"534 742 OFFCURVE",
"527 734 OFFCURVE",
"527 721 CURVE SMOOTH",
"527 394 LINE SMOOTH",
"527 378 OFFCURVE",
"520 378 OFFCURVE",
"511 390 CURVE SMOOTH",
"271 724 LINE SMOOTH",
"260 739 OFFCURVE",
"254 742 OFFCURVE",
"237 742 CURVE SMOOTH",
"74 742 LINE SMOOTH",
"59 742 OFFCURVE",
"52 735 OFFCURVE",
"52 719 CURVE SMOOTH",
"52 20 LINE SMOOTH",
"52 5 OFFCURVE",
"62 0 OFFCURVE",
"77 0 CURVE SMOOTH"
);
}
);
};
layerId = "258ED206-D907-4350-8EBA-CBDDA1C16BF7";
paths = (
{
closed = 1;
nodes = (
"213 0 LINE SMOOTH",
"231 0 OFFCURVE",
"238 6 OFFCURVE",
"237 22 CURVE SMOOTH",
"237 386 LINE SMOOTH",
"237 393 OFFCURVE",
"242 395 OFFCURVE",
"247 388 CURVE SMOOTH",
"522 15 LINE SMOOTH",
"532 2 OFFCURVE",
"538 0 OFFCURVE",
"549 0 CURVE SMOOTH",
"686 0 LINE SMOOTH",
"699 0 OFFCURVE",
"709 7 OFFCURVE",
"709 18 CURVE SMOOTH",
"709 725 LINE SMOOTH",
"709 736 OFFCURVE",
"704 742 OFFCURVE",
"694 742 CURVE SMOOTH",
"549 742 LINE SMOOTH",
"534 742 OFFCURVE",
"527 734 OFFCURVE",
"527 721 CURVE SMOOTH",
"527 394 LINE SMOOTH",
"527 378 OFFCURVE",
"520 378 OFFCURVE",
"511 390 CURVE SMOOTH",
"271 724 LINE SMOOTH",
"260 739 OFFCURVE",
"254 742 OFFCURVE",
"237 742 CURVE SMOOTH",
"74 742 LINE SMOOTH",
"59 742 OFFCURVE",
"52 735 OFFCURVE",
"52 719 CURVE SMOOTH",
"52 20 LINE SMOOTH",
"52 5 OFFCURVE",
"62 0 OFFCURVE",
"77 0 CURVE SMOOTH"
);
}
);
width = 761;
},
{
anchors = (
{
name = bottom;
position = "{359, 0}";
},
{
name = top;
position = "{394, 742}";
}
);
background = {
anchors = (
{
name = bottom;
position = "{359, 0}";
},
{
name = top;
position = "{394, 742}";
}
);
paths = (
{
closed = 1;
nodes = (
"148 0 LINE SMOOTH",
"155 0 OFFCURVE",
"158 3 OFFCURVE",
"158 9 CURVE SMOOTH",
"158 637 LINE SMOOTH",
"158 645 OFFCURVE",
"163 647 OFFCURVE",
"170 637 CURVE SMOOTH",
"598 6 LINE SMOOTH",
"603 -1 OFFCURVE",
"609 0 OFFCURVE",
"617 0 CURVE SMOOTH",
"632 0 LINE SMOOTH",
"638 0 OFFCURVE",
"641 3 OFFCURVE",
"641 10 CURVE SMOOTH",
"641 732 LINE SMOOTH",
"641 740 OFFCURVE",
"639 742 OFFCURVE",
"632 742 CURVE SMOOTH",
"605 742 LINE SMOOTH",
"599 742 OFFCURVE",
"597 739 OFFCURVE",
"597 733 CURVE SMOOTH",
"597 107 LINE SMOOTH",
"597 101 OFFCURVE",
"590 95 OFFCURVE",
"583 105 CURVE SMOOTH",
"156 735 LINE SMOOTH",
"152 741 OFFCURVE",
"149 742 OFFCURVE",
"141 742 CURVE SMOOTH",
"123 742 LINE",
"116 742 OFFCURVE",
"114 740 OFFCURVE",
"114 732 CURVE SMOOTH",
"114 10 LINE SMOOTH",
"114 3 OFFCURVE",
"116 0 OFFCURVE",
"123 0 CURVE SMOOTH"
);
}
);
};
guideLines = (
{
position = "{48, 576}";
showMeasurement = 1;
}
);
layerId = "91AB5BCA-6A50-42DA-B2F7-8181BF189245";
paths = (
{
closed = 1;
nodes = (
"148 0 LINE SMOOTH",
"155 0 OFFCURVE",
"158 3 OFFCURVE",
"158 9 CURVE SMOOTH",
"158 637 LINE SMOOTH",
"158 645 OFFCURVE",
"163 647 OFFCURVE",
"170 637 CURVE SMOOTH",
"598 6 LINE SMOOTH",
"603 -1 OFFCURVE",
"609 0 OFFCURVE",
"617 0 CURVE SMOOTH",
"632 0 LINE SMOOTH",
"638 0 OFFCURVE",
"641 3 OFFCURVE",
"641 10 CURVE SMOOTH",
"641 732 LINE SMOOTH",
"641 740 OFFCURVE",
"639 742 OFFCURVE",
"632 742 CURVE SMOOTH",
"605 742 LINE SMOOTH",
"599 742 OFFCURVE",
"597 739 OFFCURVE",
"597 733 CURVE SMOOTH",
"597 107 LINE SMOOTH",
"597 101 OFFCURVE",
"590 95 OFFCURVE",
"583 105 CURVE SMOOTH",
"156 735 LINE SMOOTH",
"152 741 OFFCURVE",
"149 742 OFFCURVE",
"141 742 CURVE SMOOTH",
"123 742 LINE",
"116 742 OFFCURVE",
"114 740 OFFCURVE",
"114 732 CURVE SMOOTH",
"114 10 LINE SMOOTH",
"114 3 OFFCURVE",
"116 0 OFFCURVE",
"123 0 CURVE SMOOTH"
);
}
);
width = 755;
},
{
anchors = (
{
name = bottom;
position = "{322, 0}";
},
{
name = top;
position = "{461, 742}";
}
);
background = {
anchors = (
{
name = bottom;
position = "{322, 0}";
},
{
name = top;
position = "{461, 742}";
}
);
paths = (
{
closed = 1;
nodes = (
"112 0 LINE SMOOTH",
"119 0 OFFCURVE",
"121 2 OFFCURVE",
"122 8 CURVE SMOOTH",
"210 636 LINE SMOOTH",
"211 646 OFFCURVE",
"218 648 OFFCURVE",
"223 638 CURVE SMOOTH",
"563 7 LINE SMOOTH",
"567 0 OFFCURVE",
"573 0 OFFCURVE",
"581 0 CURVE SMOOTH",
"596 0 LINE SMOOTH",
"602 0 OFFCURVE",
"604 2 OFFCURVE",
"605 9 CURVE SMOOTH",
"706 731 LINE SMOOTH",
"707 739 OFFCURVE",
"705 742 OFFCURVE",
"698 742 CURVE SMOOTH",
"671 742 LINE SMOOTH",
"665 742 OFFCURVE",
"664 740 OFFCURVE",
"663 734 CURVE SMOOTH",
"575 108 LINE SMOOTH",
"573 94 OFFCURVE",
"565 93 OFFCURVE",
"559 104 CURVE SMOOTH",
"221 734 LINE SMOOTH",
"218 740 OFFCURVE",
"215 742 OFFCURVE",
"207 742 CURVE SMOOTH",
"189 742 LINE SMOOTH",
"182 742 OFFCURVE",
"181 741 OFFCURVE",
"180 733 CURVE SMOOTH",
"78 11 LINE SMOOTH",
"77 4 OFFCURVE",
"80 0 OFFCURVE",
"87 0 CURVE SMOOTH"
);
}
);
};
guideLines = (
{
position = "{48, 576}";
showMeasurement = 1;
}
);
layerId = "3FD4CC56-10BC-4177-A1EC-581F65825651";
paths = (
{
closed = 1;
nodes = (
"112 0 LINE SMOOTH",
"119 0 OFFCURVE",
"121 2 OFFCURVE",
"122 8 CURVE SMOOTH",
"210 636 LINE SMOOTH",
"211 646 OFFCURVE",
"218 648 OFFCURVE",
"223 638 CURVE SMOOTH",
"563 7 LINE SMOOTH",
"567 0 OFFCURVE",
"573 0 OFFCURVE",
"581 0 CURVE SMOOTH",
"596 0 LINE SMOOTH",
"602 0 OFFCURVE",
"604 2 OFFCURVE",
"605 9 CURVE SMOOTH",
"706 731 LINE SMOOTH",
"707 739 OFFCURVE",
"705 742 OFFCURVE",
"698 742 CURVE SMOOTH",
"671 742 LINE SMOOTH",
"665 742 OFFCURVE",
"664 740 OFFCURVE",
"663 734 CURVE SMOOTH",
"575 108 LINE SMOOTH",
"573 94 OFFCURVE",
"565 93 OFFCURVE",
"559 104 CURVE SMOOTH",
"221 734 LINE SMOOTH",
"218 740 OFFCURVE",
"215 742 OFFCURVE",
"207 742 CURVE SMOOTH",
"189 742 LINE SMOOTH",
"182 742 OFFCURVE",
"181 741 OFFCURVE",
"180 733 CURVE SMOOTH",
"78 11 LINE SMOOTH",
"77 4 OFFCURVE",
"80 0 OFFCURVE",
"87 0 CURVE SMOOTH"
);
}
);
width = 755;
},
{
anchors = (
{
name = bottom;
position = "{344, 0}";
},
{
name = top;
position = "{448, 742}";
}
);
background = {
anchors = (
{
name = bottom;
position = "{344, 0}";
},
{
name = top;
position = "{448, 742}";
}
);
paths = (
{
closed = 1;
nodes = (
"178 0 LINE SMOOTH",
"196 0 OFFCURVE",
"200 3 OFFCURVE",
"202 19 CURVE SMOOTH",
"254 385 LINE SMOOTH",
"256 400 OFFCURVE",
"263 400 OFFCURVE",
"267 393 CURVE SMOOTH",
"492 20 LINE SMOOTH",
"500 7 OFFCURVE",
"506 0 OFFCURVE",
"516 0 CURVE SMOOTH",
"653 0 LINE SMOOTH",
"666 0 OFFCURVE",
"672 2 OFFCURVE",
"673 12 CURVE SMOOTH",
"774 726 LINE SMOOTH",
"775 736 OFFCURVE",
"772 742 OFFCURVE",
"762 742 CURVE SMOOTH",
"612 742 LINE SMOOTH",
"597 742 OFFCURVE",
"594 740 OFFCURVE",
"592 727 CURVE SMOOTH",
"545 392 LINE SMOOTH",
"543 377 OFFCURVE",
"533 375 OFFCURVE",
"526 387 CURVE SMOOTH",
"331 719 LINE SMOOTH",
"323 733 OFFCURVE",
"316 742 OFFCURVE",
"300 742 CURVE SMOOTH",
"137 742 LINE SMOOTH",
"122 742 OFFCURVE",
"119 740 OFFCURVE",
"117 725 CURVE SMOOTH",
"18 26 LINE SMOOTH",
"16 11 OFFCURVE",
"19 0 OFFCURVE",
"34 0 CURVE SMOOTH"
);
}
);
};
layerId = "945F4A85-7B75-430B-91A8-74C2C4AC9571";
paths = (
{
closed = 1;
nodes = (
"178 0 LINE SMOOTH",
"196 0 OFFCURVE",
"200 3 OFFCURVE",
"202 19 CURVE SMOOTH",
"254 385 LINE SMOOTH",
"256 400 OFFCURVE",
"263 400 OFFCURVE",
"267 393 CURVE SMOOTH",
"492 20 LINE SMOOTH",
"500 7 OFFCURVE",
"506 0 OFFCURVE",
"516 0 CURVE SMOOTH",
"653 0 LINE SMOOTH",
"666 0 OFFCURVE",
"672 2 OFFCURVE",
"673 12 CURVE SMOOTH",
"774 726 LINE SMOOTH",
"775 736 OFFCURVE",
"772 742 OFFCURVE",
"762 742 CURVE SMOOTH",
"612 742 LINE SMOOTH",
"597 742 OFFCURVE",
"594 740 OFFCURVE",
"592 727 CURVE SMOOTH",
"545 392 LINE SMOOTH",
"543 377 OFFCURVE",
"533 375 OFFCURVE",
"526 387 CURVE SMOOTH",
"331 719 LINE SMOOTH",
"323 733 OFFCURVE",
"316 742 OFFCURVE",
"300 742 CURVE SMOOTH",
"137 742 LINE SMOOTH",
"122 742 OFFCURVE",
"119 740 OFFCURVE",
"117 725 CURVE SMOOTH",
"18 26 LINE SMOOTH",
"16 11 OFFCURVE",
"19 0 OFFCURVE",
"34 0 CURVE SMOOTH"
);
}
);
width = 761;
}
);
unicode = 004E;
},
{
color = 4;
glyphname = Eng;
lastChange = "2022-07-20 12:09:27 +0000";
layers = (
{
background = {
paths = (
{
closed = 1;
nodes = (
"628 -175 OFFCURVE",
"709 -114 OFFCURVE",
"709 47 CURVE SMOOTH",
"709 725 LINE SMOOTH",
"709 736 OFFCURVE",
"704 742 OFFCURVE",
"694 742 CURVE SMOOTH",
"549 742 LINE SMOOTH",
"534 742 OFFCURVE",
"527 734 OFFCURVE",
"527 721 CURVE SMOOTH",
"527 434 LINE SMOOTH",
"527 418 OFFCURVE",
"520 418 OFFCURVE",
"511 430 CURVE",
"271 724 LINE SMOOTH",
"259 739 OFFCURVE",
"254 742 OFFCURVE",
"237 742 CURVE SMOOTH",
"74 742 LINE SMOOTH",
"59 742 OFFCURVE",
"52 735 OFFCURVE",
"52 719 CURVE SMOOTH",
"52 20 LINE SMOOTH",
"52 5 OFFCURVE",
"62 0 OFFCURVE",
"77 0 CURVE SMOOTH",
"213 0 LINE SMOOTH",
"231 0 OFFCURVE",
"238 6 OFFCURVE",
"237 22 CURVE",
"237 386 LINE",
"237 393 OFFCURVE",
"241 395 OFFCURVE",
"247 388 CURVE SMOOTH",
"509 71 LINE",
"509 62 LINE SMOOTH",
"505 7 OFFCURVE",
"486 -13 OFFCURVE",
"428 -13 CURVE SMOOTH",
"406 -13 OFFCURVE",
"363 -8 OFFCURVE",
"347 -6 CURVE SMOOTH",
"331 -4 OFFCURVE",
"324 -14 OFFCURVE",
"323 -29 CURVE SMOOTH",
"315 -120 LINE SMOOTH",
"313 -148 OFFCURVE",
"323 -159 OFFCURVE",
"346 -163 CURVE SMOOTH",
"391 -171 OFFCURVE",
"435 -175 OFFCURVE",
"476 -175 CURVE SMOOTH"
);
}
);
};
guideLines = (
{
angle = 90;
position = "{527, 578}";
}
);
layerId = "258ED206-D907-4350-8EBA-CBDDA1C16BF7";
paths = (
{
closed = 1;
nodes = (
"628 -175 OFFCURVE",
"709 -114 OFFCURVE",
"709 47 CURVE SMOOTH",
"709 725 LINE SMOOTH",
"709 736 OFFCURVE",
"704 742 OFFCURVE",
"694 742 CURVE SMOOTH",
"549 742 LINE SMOOTH",
"534 742 OFFCURVE",
"527 734 OFFCURVE",
"527 721 CURVE SMOOTH",
"527 434 LINE SMOOTH",
"527 418 OFFCURVE",
"520 418 OFFCURVE",
"511 430 CURVE",
"271 724 LINE SMOOTH",
"259 739 OFFCURVE",
"254 742 OFFCURVE",
"237 742 CURVE SMOOTH",
"74 742 LINE SMOOTH",
"59 742 OFFCURVE",
"52 735 OFFCURVE",
"52 719 CURVE SMOOTH",
"52 20 LINE SMOOTH",
"52 5 OFFCURVE",
"62 0 OFFCURVE",
"77 0 CURVE SMOOTH",
"213 0 LINE SMOOTH",
"231 0 OFFCURVE",
"238 6 OFFCURVE",
"237 22 CURVE",
"237 386 LINE",
"237 393 OFFCURVE",
"241 395 OFFCURVE",
"247 388 CURVE SMOOTH",
"509 71 LINE",
"509 62 LINE SMOOTH",
"505 7 OFFCURVE",
"486 -13 OFFCURVE",
"428 -13 CURVE SMOOTH",
"406 -13 OFFCURVE",
"363 -8 OFFCURVE",
"347 -6 CURVE SMOOTH",
"331 -4 OFFCURVE",
"324 -14 OFFCURVE",
"323 -29 CURVE SMOOTH",
"315 -120 LINE SMOOTH",
"313 -148 OFFCURVE",
"323 -159 OFFCURVE",
"346 -163 CURVE SMOOTH",
"391 -171 OFFCURVE",
"435 -175 OFFCURVE",
"476 -175 CURVE SMOOTH"
);
}
);
width = 761;
},
{
background = {
paths = (
{
closed = 1;
nodes = (
"608 -175 OFFCURVE",
"641 -124 OFFCURVE",
"641 -46 CURVE SMOOTH",
"641 732 LINE SMOOTH",
"641 740 OFFCURVE",
"639 742 OFFCURVE",
"632 742 CURVE SMOOTH",
"606 742 LINE SMOOTH",
"600 742 OFFCURVE",
"598 739 OFFCURVE",
"598 733 CURVE SMOOTH",
"598 107 LINE SMOOTH",
"598 101 OFFCURVE",
"591 94 OFFCURVE",
"584 104 CURVE SMOOTH",
"158 735 LINE SMOOTH",
"154 741 OFFCURVE",
"151 742 OFFCURVE",
"144 742 CURVE SMOOTH",
"123 742 LINE SMOOTH",
"116 742 OFFCURVE",
"114 740 OFFCURVE",
"114 732 CURVE SMOOTH",
"114 10 LINE SMOOTH",
"114 3 OFFCURVE",
"116 0 OFFCURVE",
"123 0 CURVE SMOOTH",
"148 0 LINE SMOOTH",
"155 0 OFFCURVE",
"158 3 OFFCURVE",
"158 9 CURVE SMOOTH",
"158 640 LINE SMOOTH",
"158 648 OFFCURVE",
"160 650 OFFCURVE",
"167 640 CURVE SMOOTH",
"595 12 LINE",
"595 -41 LINE SMOOTH",
"595 -112 OFFCURVE",
"564 -135 OFFCURVE",
"510 -135 CURVE SMOOTH",
"480 -135 OFFCURVE",
"456 -128 OFFCURVE",
"440 -122 CURVE SMOOTH",
"435 -120 OFFCURVE",
"433 -121 OFFCURVE",
"432 -126 CURVE",
"429 -151 LINE",
"429 -155 OFFCURVE",
"430 -158 OFFCURVE",
"433 -160 CURVE SMOOTH",
"440 -165 OFFCURVE",
"473 -175 OFFCURVE",
"514 -175 CURVE SMOOTH"
);
}
);
};
layerId = "91AB5BCA-6A50-42DA-B2F7-8181BF189245";
paths = (
{
closed = 1;
nodes = (
"608 -175 OFFCURVE",
"641 -124 OFFCURVE",
"641 -46 CURVE SMOOTH",
"641 732 LINE SMOOTH",
"641 740 OFFCURVE",
"639 742 OFFCURVE",
"632 742 CURVE SMOOTH",
"606 742 LINE SMOOTH",
"600 742 OFFCURVE",
"598 739 OFFCURVE",
"598 733 CURVE SMOOTH",
"598 107 LINE SMOOTH",
"598 101 OFFCURVE",
"591 94 OFFCURVE",
"584 104 CURVE SMOOTH",
"158 735 LINE SMOOTH",
"154 741 OFFCURVE",
"151 742 OFFCURVE",
"144 742 CURVE SMOOTH",
"123 742 LINE SMOOTH",
"116 742 OFFCURVE",
"114 740 OFFCURVE",
"114 732 CURVE SMOOTH",
"114 10 LINE SMOOTH",
"114 3 OFFCURVE",
"116 0 OFFCURVE",
"123 0 CURVE SMOOTH",
"148 0 LINE SMOOTH",
"155 0 OFFCURVE",
"158 3 OFFCURVE",
"158 9 CURVE SMOOTH",
"158 640 LINE SMOOTH",
"158 648 OFFCURVE",
"160 650 OFFCURVE",
"167 640 CURVE SMOOTH",
"595 12 LINE",
"595 -41 LINE SMOOTH",
"595 -112 OFFCURVE",
"564 -135 OFFCURVE",
"510 -135 CURVE SMOOTH",
"480 -135 OFFCURVE",
"456 -128 OFFCURVE",
"440 -122 CURVE SMOOTH",
"435 -120 OFFCURVE",
"433 -121 OFFCURVE",
"432 -126 CURVE",
"429 -151 LINE",
"429 -155 OFFCURVE",
"430 -158 OFFCURVE",
"433 -160 CURVE SMOOTH",
"440 -165 OFFCURVE",
"473 -175 OFFCURVE",
"514 -175 CURVE SMOOTH"
);
}
);
width = 755;
},
{
background = {
paths = (
{
closed = 1;
nodes = (
"547 -175 OFFCURVE",
"586 -125 OFFCURVE",
"597 -47 CURVE SMOOTH",
"706 731 LINE SMOOTH",
"708 739 OFFCURVE",
"705 742 OFFCURVE",
"698 742 CURVE SMOOTH",
"672 742 LINE SMOOTH",
"666 742 OFFCURVE",
"665 740 OFFCURVE",
"664 734 CURVE SMOOTH",
"576 108 LINE SMOOTH",
"575 102 OFFCURVE",
"566 93 OFFCURVE",
"560 103 CURVE SMOOTH",
"223 734 LINE SMOOTH",
"220 740 OFFCURVE",
"217 742 OFFCURVE",
"210 742 CURVE SMOOTH",
"189 742 LINE SMOOTH",
"182 742 OFFCURVE",
"181 741 OFFCURVE",
"180 733 CURVE SMOOTH",
"78 11 LINE SMOOTH",
"77 4 OFFCURVE",
"80 0 OFFCURVE",
"87 0 CURVE SMOOTH",
"112 0 LINE SMOOTH",
"119 0 OFFCURVE",
"121 2 OFFCURVE",
"122 8 CURVE SMOOTH",
"211 639 LINE SMOOTH",
"212 647 OFFCURVE",
"215 651 OFFCURVE",
"221 641 CURVE SMOOTH",
"559 12 LINE",
"552 -40 LINE SMOOTH",
"542 -111 OFFCURVE",
"507 -135 OFFCURVE",
"452 -135 CURVE SMOOTH",
"423 -135 OFFCURVE",
"400 -128 OFFCURVE",
"383 -123 CURVE SMOOTH",
"380 -120 OFFCURVE",
"379 -120 OFFCURVE",
"377 -125 CURVE",
"371 -150 LINE",
"370 -154 OFFCURVE",
"372 -157 OFFCURVE",
"375 -159 CURVE SMOOTH",
"381 -164 OFFCURVE",
"412 -175 OFFCURVE",
"454 -175 CURVE SMOOTH"
);
}
);
};
layerId = "3FD4CC56-10BC-4177-A1EC-581F65825651";
paths = (
{
closed = 1;
nodes = (
"547 -175 OFFCURVE",
"586 -125 OFFCURVE",
"597 -47 CURVE SMOOTH",
"706 731 LINE SMOOTH",
"708 739 OFFCURVE",
"705 742 OFFCURVE",
"698 742 CURVE SMOOTH",
"672 742 LINE SMOOTH",
"666 742 OFFCURVE",
"665 740 OFFCURVE",
"664 734 CURVE SMOOTH",
"576 108 LINE SMOOTH",
"575 102 OFFCURVE",
"566 93 OFFCURVE",
"560 103 CURVE SMOOTH",
"223 734 LINE SMOOTH",
"220 740 OFFCURVE",
"217 742 OFFCURVE",
"210 742 CURVE SMOOTH",
"189 742 LINE SMOOTH",
"182 742 OFFCURVE",
"181 741 OFFCURVE",
"180 733 CURVE SMOOTH",
"78 11 LINE SMOOTH",
"77 4 OFFCURVE",
"80 0 OFFCURVE",
"87 0 CURVE SMOOTH",
"112 0 LINE SMOOTH",
"119 0 OFFCURVE",
"121 2 OFFCURVE",
"122 8 CURVE SMOOTH",
"211 639 LINE SMOOTH",
"212 647 OFFCURVE",
"215 651 OFFCURVE",
"221 641 CURVE SMOOTH",
"559 12 LINE",
"552 -40 LINE SMOOTH",
"542 -111 OFFCURVE",
"507 -135 OFFCURVE",
"452 -135 CURVE SMOOTH",
"423 -135 OFFCURVE",
"400 -128 OFFCURVE",
"383 -123 CURVE SMOOTH",
"380 -120 OFFCURVE",
"379 -120 OFFCURVE",
"377 -125 CURVE",
"371 -150 LINE",
"370 -154 OFFCURVE",
"372 -157 OFFCURVE",
"375 -159 CURVE SMOOTH",
"381 -164 OFFCURVE",
"412 -175 OFFCURVE",
"454 -175 CURVE SMOOTH"
);
}
);
width = 755;
},
{
background = {
paths = (
{
closed = 1;
nodes = (
"570 -175 OFFCURVE",
"655 -120 OFFCURVE",
"678 41 CURVE SMOOTH",
"773 719 LINE SMOOTH",
"775 733 OFFCURVE",
"770 742 OFFCURVE",
"757 742 CURVE SMOOTH",
"612 742 LINE SMOOTH",
"597 742 OFFCURVE",
"594 740 OFFCURVE",
"592 727 CURVE SMOOTH",
"552 440 LINE SMOOTH",
"550 423 OFFCURVE",
"539 415 OFFCURVE",
"532 426 CURVE SMOOTH",
"331 719 LINE SMOOTH",
"323 734 OFFCURVE",
"314 742 OFFCURVE",
"297 742 CURVE SMOOTH",
"137 742 LINE SMOOTH",
"122 742 OFFCURVE",
"119 737 OFFCURVE",
"117 724 CURVE SMOOTH",
"18 26 LINE SMOOTH",
"16 11 OFFCURVE",
"29 0 OFFCURVE",
"44 0 CURVE SMOOTH",
"180 0 LINE SMOOTH",
"198 0 OFFCURVE",
"201 0 OFFCURVE",
"202 16 CURVE",
"253 380 LINE SMOOTH",
"255 395 OFFCURVE",
"263 399 OFFCURVE",
"268 392 CURVE SMOOTH",
"480 73 LINE",
"478 63 LINE SMOOTH",
"467 10 OFFCURVE",
"454 -13 OFFCURVE",
"401 -13 CURVE SMOOTH",
"383 -13 OFFCURVE",
"322 -6 OFFCURVE",
"302 -2 CURVE SMOOTH",
"291 0 OFFCURVE",
"287 -2 OFFCURVE",
"284 -17 CURVE SMOOTH",
"261 -114 LINE SMOOTH",
"256 -142 OFFCURVE",
"268 -158 OFFCURVE",
"294 -161 CURVE SMOOTH",
"334 -170 OFFCURVE",
"377 -175 OFFCURVE",
"422 -175 CURVE SMOOTH"
);
}
);
};
guideLines = (
{
angle = 82.0656;
position = "{572, 584}";
}
);
layerId = "945F4A85-7B75-430B-91A8-74C2C4AC9571";
paths = (
{
closed = 1;
nodes = (
"570 -175 OFFCURVE",
"655 -120 OFFCURVE",
"678 41 CURVE SMOOTH",
"773 719 LINE SMOOTH",
"775 733 OFFCURVE",
"770 742 OFFCURVE",
"757 742 CURVE SMOOTH",
"612 742 LINE SMOOTH",
"597 742 OFFCURVE",
"594 740 OFFCURVE",
"592 727 CURVE SMOOTH",
"552 440 LINE SMOOTH",
"550 423 OFFCURVE",
"539 415 OFFCURVE",
"532 426 CURVE SMOOTH",
"331 719 LINE SMOOTH",
"323 734 OFFCURVE",
"314 742 OFFCURVE",
"297 742 CURVE SMOOTH",
"137 742 LINE SMOOTH",
"122 742 OFFCURVE",
"119 737 OFFCURVE",
"117 724 CURVE SMOOTH",
"18 26 LINE SMOOTH",
"16 11 OFFCURVE",
"29 0 OFFCURVE",
"44 0 CURVE SMOOTH",
"180 0 LINE SMOOTH",
"198 0 OFFCURVE",
"201 0 OFFCURVE",
"202 16 CURVE",
"253 380 LINE SMOOTH",
"255 395 OFFCURVE",
"263 399 OFFCURVE",
"268 392 CURVE SMOOTH",
"480 73 LINE",
"478 63 LINE SMOOTH",
"467 10 OFFCURVE",
"454 -13 OFFCURVE",
"401 -13 CURVE SMOOTH",
"383 -13 OFFCURVE",
"322 -6 OFFCURVE",
"302 -2 CURVE SMOOTH",
"291 0 OFFCURVE",
"287 -2 OFFCURVE",
"284 -17 CURVE SMOOTH",
"261 -114 LINE SMOOTH",
"256 -142 OFFCURVE",
"268 -158 OFFCURVE",
"294 -161 CURVE SMOOTH",
"334 -170 OFFCURVE",
"377 -175 OFFCURVE",
"422 -175 CURVE SMOOTH"
);
}
);
width = 761;
}
);
leftMetricsKey = N;
rightMetricsKey = N;
unicode = 014A;
},
{
color = 5;
glyphname = O;
lastChange = "2022-07-20 14:05:45 +0000";
layers = (
{
anchors = (
{
name = bottom;
position = "{391, 0}";
},
{
name = center;
position = "{389, 371}";
},
{
name = ogonek;
position = "{482, 10}";
},
{
name = top;
position = "{389, 742}";
},
{
name = topleft;
position = "{19, 742}";
},
{
name = topright;
position = "{581, 742}";
}
);
background = {
paths = (
{
closed = 1;
nodes = (
"608 -10 OFFCURVE",
"748 139 OFFCURVE",
"748 369 CURVE SMOOTH",
"748 601 OFFCURVE",
"605 752 OFFCURVE",
"390 752 CURVE SMOOTH",
"173 752 OFFCURVE",
"30 601 OFFCURVE",
"30 369 CURVE SMOOTH",
"30 138 OFFCURVE",
"169 -10 OFFCURVE",
"390 -10 CURVE SMOOTH"
);
},
{
closed = 1;
nodes = (
"301 146 OFFCURVE",
"268 206 OFFCURVE",
"268 366 CURVE SMOOTH",
"268 531 OFFCURVE",
"303 598 OFFCURVE",
"390 598 CURVE SMOOTH",
"475 598 OFFCURVE",
"510 531 OFFCURVE",
"510 366 CURVE SMOOTH",
"510 206 OFFCURVE",
"477 146 OFFCURVE",
"390 146 CURVE SMOOTH"
);
}
);
};
guideLines = (
{
angle = 90;
position = "{-607, 431}";
}
);
layerId = "258ED206-D907-4350-8EBA-CBDDA1C16BF7";
paths = (
{
closed = 1;
nodes = (
"588 -10 OFFCURVE",
"749 128 OFFCURVE",
"749 370 CURVE SMOOTH",
"749 620 OFFCURVE",
"578 752 OFFCURVE",
"389 752 CURVE SMOOTH",
"200 752 OFFCURVE",
"30 621 OFFCURVE",
"30 370 CURVE SMOOTH",
"30 129 OFFCURVE",
"190 -10 OFFCURVE",
"389 -10 CURVE SMOOTH"
);
},
{
closed = 1;
nodes = (
"296 145 OFFCURVE",
"255 245 OFFCURVE",
"255 370 CURVE SMOOTH",
"255 497 OFFCURVE",
"296 597 OFFCURVE",
"389 597 CURVE SMOOTH",
"481 597 OFFCURVE",
"523 496 OFFCURVE",
"523 371 CURVE SMOOTH",
"523 244 OFFCURVE",
"481 145 OFFCURVE",
"389 145 CURVE SMOOTH"
);
}
);
width = 779;
},
{
anchors = (
{
name = bottom;
position = "{381, 0}";
},
{
name = center;
position = "{381, 370}";
},
{
name = ogonek;
position = "{451, 9}";
},
{
name = top;
position = "{381, 742}";
},
{
name = topleft;
position = "{20, 742}";
},
{
name = topright;
position = "{517, 742}";
}
);
background = {
anchors = (
{
name = bottom;
position = "{381, 0}";
},
{
name = center;
position = "{379, 371}";
},
{
name = ogonek;
position = "{451, 9}";
},
{
name = top;
position = "{381, 742}";
},
{
name = topleft;
position = "{20, 742}";
},
{
name = topright;
position = "{517, 742}";
}
);
paths = (
{
closed = 1;
nodes = (
"567 -10 OFFCURVE",
"680 122 OFFCURVE",
"680 369 CURVE SMOOTH",
"680 618 OFFCURVE",
"567 752 OFFCURVE",
"380 752 CURVE SMOOTH",
"192 752 OFFCURVE",
"78 617 OFFCURVE",
"78 367 CURVE SMOOTH",
"78 121 OFFCURVE",
"190 -10 OFFCURVE",
"379 -10 CURVE SMOOTH"
);
},
{
closed = 1;
nodes = (
"215 32 OFFCURVE",
"126 143 OFFCURVE",
"126 369 CURVE SMOOTH",
"126 597 OFFCURVE",
"215 710 OFFCURVE",
"380 710 CURVE SMOOTH",
"544 710 OFFCURVE",
"632 598 OFFCURVE",
"632 369 CURVE SMOOTH",
"632 142 OFFCURVE",
"546 32 OFFCURVE",
"381 32 CURVE SMOOTH"
);
}
);
};
guideLines = (
{
angle = 90;
position = "{-576, 431}";
},
{
angle = 90;
position = "{381, 636}";
}
);
layerId = "91AB5BCA-6A50-42DA-B2F7-8181BF189245";
paths = (
{
closed = 1;
nodes = (
"558 -9 OFFCURVE",
"689 132 OFFCURVE",
"689 372 CURVE SMOOTH",
"689 609 OFFCURVE",
"557 752 OFFCURVE",
"379 752 CURVE SMOOTH",
"215 752 OFFCURVE",
"69 625 OFFCURVE",
"69 372 CURVE SMOOTH",
"69 113 OFFCURVE",
"216 -9 OFFCURVE",
"379 -9 CURVE SMOOTH"
);
},
{
closed = 1;
nodes = (
"241 31 OFFCURVE",
"119 134 OFFCURVE",
"119 372 CURVE SMOOTH",
"119 612 OFFCURVE",
"241 712 OFFCURVE",
"379 712 CURVE SMOOTH",
"536 712 OFFCURVE",
"639 586 OFFCURVE",
"639 372 CURVE SMOOTH",
"639 161 OFFCURVE",
"537 31 OFFCURVE",
"379 31 CURVE SMOOTH"
);
}
);
width = 758;
},
{
anchors = (
{
name = bottom;
position = "{344, 0}";
},
{
name = center;
position = "{379, 371}";
},
{
name = ogonek;
position = "{415, 9}";
},
{
name = top;
position = "{446, 742}";
},
{
name = topleft;
position = "{20, 742}";
},
{
name = topright;
position = "{399, 742}";
}
);
background = {
paths = (
{
closed = 1;
nodes = (
"529 -10 OFFCURVE",
"660 121 OFFCURVE",
"694 367 CURVE SMOOTH",
"698 396 OFFCURVE",
"700 424 OFFCURVE",
"701 451 CURVE SMOOTH",
"701 455 OFFCURVE",
"701 459 OFFCURVE",
"701 463 CURVE SMOOTH",
"701 652 OFFCURVE",
"608 752 OFFCURVE",
"446 752 CURVE SMOOTH",
"136 752 OFFCURVE",
"86 400 OFFCURVE",
"86 282 CURVE SMOOTH",
"86 91 OFFCURVE",
"174 -10 OFFCURVE",
"342 -10 CURVE SMOOTH"
);
},
{
closed = 1;
nodes = (
"196 32 OFFCURVE",
"132 123 OFFCURVE",
"133 279 CURVE SMOOTH",
"135 535 OFFCURVE",
"250 710 OFFCURVE",
"445 710 CURVE SMOOTH",
"582 710 OFFCURVE",
"654 631 OFFCURVE",
"654 470 CURVE SMOOTH",
"654 467 OFFCURVE",
"654 464 OFFCURVE",
"654 461 CURVE SMOOTH",
"654 433 OFFCURVE",
"652 403 OFFCURVE",
"647 371 CURVE SMOOTH",
"615 143 OFFCURVE",
"512 32 OFFCURVE",
"346 32 CURVE SMOOTH"
);
}
);
};
guideLines = (
{
angle = 90;
position = "{-576, 431}";
},
{
angle = 90;
position = "{381, 640}";
}
);
layerId = "3FD4CC56-10BC-4177-A1EC-581F65825651";
paths = (
{
closed = 1;
nodes = (
"631 -10 OFFCURVE",
"708 291 OFFCURVE",
"708 444 CURVE SMOOTH",
"708 647 OFFCURVE",
"591 752 OFFCURVE",
"435 752 CURVE SMOOTH",
"202 752 OFFCURVE",
"81 529 OFFCURVE",
"81 299 CURVE SMOOTH",
"81 94 OFFCURVE",
"213 -10 OFFCURVE",
"354 -10 CURVE SMOOTH"
);
},
{
closed = 1;
nodes = (
"234 30 OFFCURVE",
"132 118 OFFCURVE",
"132 295 CURVE SMOOTH",
"132 511 OFFCURVE",
"237 713 OFFCURVE",
"429 713 CURVE SMOOTH",
"552 713 OFFCURVE",
"657 642 OFFCURVE",
"657 448 CURVE SMOOTH",
"657 326 OFFCURVE",
"605 30 OFFCURVE",
"359 30 CURVE SMOOTH"
);
}
);
width = 758;
},
{
anchors = (
{
name = bottom;
position = "{355, 0}";
},
{
name = center;
position = "{400, 371}";
},
{
name = ogonek;
position = "{447, 10}";
},
{
name = top;
position = "{457, 742}";
},
{
name = topleft;
position = "{95, 742}";
},
{
name = topright;
position = "{495, 740}";
}
);
background = {
paths = (
{
closed = 1;
nodes = (
"48 98 OFFCURVE",
"193 -10 OFFCURVE",
"369 -10 CURVE SMOOTH",
"560 -10 OFFCURVE",
"709 111 OFFCURVE",
"751 330 CURVE SMOOTH",
"759 373 OFFCURVE",
"761 402 OFFCURVE",
"761 440 CURVE SMOOTH",
"761 631 OFFCURVE",
"627 752 OFFCURVE",
"444 752 CURVE SMOOTH",
"259 752 OFFCURVE",
"98 626 OFFCURVE",
"59 407 CURVE SMOOTH",
"51 362 OFFCURVE",
"48 334 OFFCURVE",
"48 298 CURVE SMOOTH"
);
},
{
closed = 1;
nodes = (
"554 422 OFFCURVE",
"551 399 OFFCURVE",
"543 346 CURVE SMOOTH",
"524 236 OFFCURVE",
"473 148 OFFCURVE",
"374 148 CURVE SMOOTH",
"296 148 OFFCURVE",
"255 205 OFFCURVE",
"255 299 CURVE SMOOTH",
"255 322 OFFCURVE",
"258 344 OFFCURVE",
"267 397 CURVE SMOOTH",
"287 512 OFFCURVE",
"341 595 OFFCURVE",
"433 595 CURVE SMOOTH",
"512 595 OFFCURVE",
"554 541 OFFCURVE",
"554 445 CURVE SMOOTH"
);
}
);
};
layerId = "945F4A85-7B75-430B-91A8-74C2C4AC9571";
paths = (
{
closed = 1;
nodes = (
"610 -10 OFFCURVE",
"761 174 OFFCURVE",
"761 440 CURVE SMOOTH",
"761 631 OFFCURVE",
"627 752 OFFCURVE",
"444 752 CURVE SMOOTH",
"216 752 OFFCURVE",
"48 559 OFFCURVE",
"48 298 CURVE SMOOTH",
"48 98 OFFCURVE",
"193 -10 OFFCURVE",
"369 -10 CURVE SMOOTH"
);
},
{
closed = 1;
nodes = (
"297 151 OFFCURVE",
"256 207 OFFCURVE",
"256 300 CURVE SMOOTH",
"256 469 OFFCURVE",
"322 593 OFFCURVE",
"432 593 CURVE SMOOTH",
"509 593 OFFCURVE",
"551 541 OFFCURVE",
"551 445 CURVE SMOOTH",
"551 271 OFFCURVE",
"483 151 OFFCURVE",
"374 151 CURVE SMOOTH"
);
}
);
width = 780;
}
);
leftKerningGroup = O;
rightKerningGroup = O;
unicode = 004F;
},
{
color = 5;
glyphname = Oslash;
lastChange = "2022-07-20 12:09:33 +0000";
layers = (
{
anchors = (
{
name = top;
position = "{393, 742}";
}
);
background = {
anchors = (
{
name = top;
position = "{393, 742}";
}
);
paths = (
{
closed = 1;
nodes = (
"612 -10 OFFCURVE",
"752 139 OFFCURVE",
"752 369 CURVE SMOOTH",
"752 452.736 OFFCURVE",
"733.371 525.92 OFFCURVE",
"699.451 585.261 CURVE",
"775 659 LINE",
"785 668 OFFCURVE",
"784 678 OFFCURVE",
"776 686 CURVE SMOOTH",
"722 742 LINE SMOOTH",
"714 750 OFFCURVE",
"702 748 OFFCURVE",
"691 737 CURVE SMOOTH",
"625.978 673.628 LINE",
"565.773 724.014 OFFCURVE",
"486.559 752 OFFCURVE",
"394 752 CURVE SMOOTH",
"177 752 OFFCURVE",
"34 601 OFFCURVE",
"34 369 CURVE SMOOTH",
"34 283.385 OFFCURVE",
"53.094 209.172 OFFCURVE",
"88.379 149.669 CURVE",
"21 84 LINE SMOOTH",
"9 72 OFFCURVE",
"10 62 OFFCURVE",
"25 47 CURVE SMOOTH",
"64 7 LINE SMOOTH",
"80 -9 OFFCURVE",
"92 -8 OFFCURVE",
"107 7 CURVE SMOOTH",
"164.116 62.748 LINE",
"223.663 15.829 OFFCURVE",
"301.676 -10 OFFCURVE",
"394 -10 CURVE SMOOTH"
);
},
{
closed = 1;
nodes = (
"349.772 146 OFFCURVE",
"319.374 160.817 OFFCURVE",
"299.982 195.36 CURVE",
"513.326 403.593 LINE",
"514 391 OFFCURVE",
"514 379 OFFCURVE",
"514 366 CURVE SMOOTH",
"514 206 OFFCURVE",
"481 146 OFFCURVE",
"394 146 CURVE SMOOTH"
);
},
{
closed = 1;
nodes = (
"272 342 OFFCURVE",
"272 354 OFFCURVE",
"272 366 CURVE",
"272 531 OFFCURVE",
"307 598 OFFCURVE",
"394 598 CURVE SMOOTH",
"438.199 598 OFFCURVE",
"468.878 579.884 OFFCURVE",
"488.147 539.294 CURVE",
"272.654 329.269 LINE"
);
}
);
};
layerId = "258ED206-D907-4350-8EBA-CBDDA1C16BF7";
paths = (
{
closed = 1;
nodes = (
"612 -10 OFFCURVE",
"752 139 OFFCURVE",
"752 369 CURVE SMOOTH",
"752 452.736 OFFCURVE",
"733.371 525.92 OFFCURVE",
"699.451 585.261 CURVE",
"775 659 LINE",
"785 668 OFFCURVE",
"784 678 OFFCURVE",
"776 686 CURVE SMOOTH",
"722 742 LINE SMOOTH",
"714 750 OFFCURVE",
"702 748 OFFCURVE",
"691 737 CURVE SMOOTH",
"625.978 673.628 LINE",
"565.773 724.014 OFFCURVE",
"486.559 752 OFFCURVE",
"394 752 CURVE SMOOTH",
"177 752 OFFCURVE",
"34 601 OFFCURVE",
"34 369 CURVE SMOOTH",
"34 283.385 OFFCURVE",
"53.094 209.172 OFFCURVE",
"88.379 149.669 CURVE",
"21 84 LINE SMOOTH",
"9 72 OFFCURVE",
"10 62 OFFCURVE",
"25 47 CURVE SMOOTH",
"64 7 LINE SMOOTH",
"80 -9 OFFCURVE",
"92 -8 OFFCURVE",
"107 7 CURVE SMOOTH",
"164.116 62.748 LINE",
"223.663 15.829 OFFCURVE",
"301.676 -10 OFFCURVE",
"394 -10 CURVE SMOOTH"
);
},
{
closed = 1;
nodes = (
"349.772 146 OFFCURVE",
"319.374 160.817 OFFCURVE",
"299.982 195.36 CURVE",
"513.326 403.593 LINE",
"514 391 OFFCURVE",
"514 379 OFFCURVE",
"514 366 CURVE SMOOTH",
"514 206 OFFCURVE",
"481 146 OFFCURVE",
"394 146 CURVE SMOOTH"
);
},
{
closed = 1;
nodes = (
"272 342 OFFCURVE",
"272 354 OFFCURVE",
"272 366 CURVE",
"272 531 OFFCURVE",
"307 598 OFFCURVE",
"394 598 CURVE SMOOTH",
"438.199 598 OFFCURVE",
"468.878 579.884 OFFCURVE",
"488.147 539.294 CURVE",
"272.654 329.269 LINE"
);
}
);
width = 786;
},
{
anchors = (
{
name = top;
position = "{355, 742}";
}
);
background = {
anchors = (
{
name = top;
position = "{355, 742}";
}
);
paths = (
{
closed = 1;
nodes = (
"542 -10 OFFCURVE",
"655 122 OFFCURVE",
"655 369 CURVE SMOOTH",
"655 472 OFFCURVE",
"636 555 OFFCURVE",
"600 617 CURVE",
"685 716 LINE",
"688 720 OFFCURVE",
"687 724 OFFCURVE",
"684 727 CURVE",
"659 749 LINE",
"654 753 OFFCURVE",
"650 751 OFFCURVE",
"646 746 CURVE",
"571 659 LINE",
"519 720 OFFCURVE",
"446 752 OFFCURVE",
"355 752 CURVE SMOOTH",
"167 752 OFFCURVE",
"53 617 OFFCURVE",
"53 367 CURVE SMOOTH",
"53 266 OFFCURVE",
"72 184 OFFCURVE",
"108 123 CURVE",
"24 26 LINE",
"20 21 OFFCURVE",
"21 18 OFFCURVE",
"28 11 CURVE SMOOTH",
"45 -5 LINE",
"53 -11 OFFCURVE",
"58 -11 OFFCURVE",
"64 -3 CURVE",
"137 81 LINE",
"188 21 OFFCURVE",
"262 -10 OFFCURVE",
"354 -10 CURVE SMOOTH"
);
},
{
closed = 1;
nodes = (
"273 33 OFFCURVE",
"210 61 OFFCURVE",
"167 117 CURVE",
"567 580 LINE",
"592 526 OFFCURVE",
"604 456 OFFCURVE",
"604 369 CURVE SMOOTH",
"604 142 OFFCURVE",
"521 33 OFFCURVE",
"356 33 CURVE SMOOTH"
);
},
{
closed = 1;
nodes = (
"116 214 OFFCURVE",
"104 283 OFFCURVE",
"104 369 CURVE SMOOTH",
"104 597 OFFCURVE",
"190 709 OFFCURVE",
"355 709 CURVE SMOOTH",
"437 709 OFFCURVE",
"499 681 OFFCURVE",
"541 625 CURVE",
"141 161 LINE"
);
}
);
};
layerId = "91AB5BCA-6A50-42DA-B2F7-8181BF189245";
paths = (
{
closed = 1;
nodes = (
"542 -10 OFFCURVE",
"655 122 OFFCURVE",
"655 369 CURVE SMOOTH",
"655 472 OFFCURVE",
"636 555 OFFCURVE",
"600 617 CURVE",
"685 716 LINE",
"688 720 OFFCURVE",
"687 724 OFFCURVE",
"684 727 CURVE",
"659 749 LINE",
"654 753 OFFCURVE",
"650 751 OFFCURVE",
"646 746 CURVE",
"571 659 LINE",
"519 720 OFFCURVE",
"446 752 OFFCURVE",
"355 752 CURVE SMOOTH",
"167 752 OFFCURVE",
"53 617 OFFCURVE",
"53 367 CURVE SMOOTH",
"53 266 OFFCURVE",
"72 184 OFFCURVE",
"108 123 CURVE",
"24 26 LINE",
"20 21 OFFCURVE",
"21 18 OFFCURVE",
"28 11 CURVE SMOOTH",
"45 -5 LINE",
"53 -11 OFFCURVE",
"58 -11 OFFCURVE",
"64 -3 CURVE",
"137 81 LINE",
"188 21 OFFCURVE",
"262 -10 OFFCURVE",
"354 -10 CURVE SMOOTH"
);
},
{
closed = 1;
nodes = (
"273 33 OFFCURVE",
"210 61 OFFCURVE",
"167 117 CURVE",
"567 580 LINE",
"592 526 OFFCURVE",
"604 456 OFFCURVE",
"604 369 CURVE SMOOTH",
"604 142 OFFCURVE",
"521 33 OFFCURVE",
"356 33 CURVE SMOOTH"
);
},
{
closed = 1;
nodes = (
"116 214 OFFCURVE",
"104 283 OFFCURVE",
"104 369 CURVE SMOOTH",
"104 597 OFFCURVE",
"190 709 OFFCURVE",
"355 709 CURVE SMOOTH",
"437 709 OFFCURVE",
"499 681 OFFCURVE",
"541 625 CURVE",
"141 161 LINE"
);
}
);
width = 708;
},
{
anchors = (
{
name = top;
position = "{422, 742}";
}
);
background = {
anchors = (
{
name = top;
position = "{422, 742}";
}
);
paths = (
{
closed = 1;
nodes = (
"504 -10 OFFCURVE",
"635 121 OFFCURVE",
"669 367 CURVE SMOOTH",
"684 471 OFFCURVE",
"676 554 OFFCURVE",
"648 616 CURVE",
"749 715 LINE",
"753 719 OFFCURVE",
"750 723 OFFCURVE",
"748 726 CURVE",
"726 748 LINE",
"721 752 OFFCURVE",
"717 752 OFFCURVE",
"713 747 CURVE",
"625 658 LINE",
"582 719 OFFCURVE",
"513 752 OFFCURVE",
"421 752 CURVE SMOOTH",
"234 752 OFFCURVE",
"103 618 OFFCURVE",
"68 369 CURVE SMOOTH",
"53 267 OFFCURVE",
"62 185 OFFCURVE",
"89 124 CURVE",
"-10 27 LINE",
"-15 22 OFFCURVE",
"-13 19 OFFCURVE",
"-7 12 CURVE SMOOTH",
"8 -4 LINE",
"15 -10 OFFCURVE",
"20 -12 OFFCURVE",
"27 -4 CURVE",
"112 82 LINE",
"155 22 OFFCURVE",
"224 -10 OFFCURVE",
"317 -10 CURVE SMOOTH"
);
},
{
closed = 1;
nodes = (
"239 33 OFFCURVE",
"180 60 OFFCURVE",
"145 116 CURVE",
"612 581 LINE",
"629 527 OFFCURVE",
"631 457 OFFCURVE",
"619 371 CURVE SMOOTH",
"587 143 OFFCURVE",
"487 33 OFFCURVE",
"321 33 CURVE SMOOTH"
);
},
{
closed = 1;
nodes = (
"109 213 OFFCURVE",
"106 282 OFFCURVE",
"118 367 CURVE SMOOTH",
"151 596 OFFCURVE",
"253 709 OFFCURVE",
"419 709 CURVE SMOOTH",
"500 709 OFFCURVE",
"559 682 OFFCURVE",
"593 626 CURVE",
"125 160 LINE"
);
}
);
};
layerId = "3FD4CC56-10BC-4177-A1EC-581F65825651";
paths = (
{
closed = 1;
nodes = (
"504 -10 OFFCURVE",
"635 121 OFFCURVE",
"669 367 CURVE SMOOTH",
"684 471 OFFCURVE",
"676 554 OFFCURVE",
"648 616 CURVE",
"749 715 LINE",
"753 719 OFFCURVE",
"750 723 OFFCURVE",
"748 726 CURVE",
"726 748 LINE",
"721 752 OFFCURVE",
"717 752 OFFCURVE",
"713 747 CURVE",
"625 658 LINE",
"582 719 OFFCURVE",
"513 752 OFFCURVE",
"421 752 CURVE SMOOTH",
"234 752 OFFCURVE",
"103 618 OFFCURVE",
"68 369 CURVE SMOOTH",
"53 267 OFFCURVE",
"62 185 OFFCURVE",
"89 124 CURVE",
"-10 27 LINE",
"-15 22 OFFCURVE",
"-13 19 OFFCURVE",
"-7 12 CURVE SMOOTH",
"8 -4 LINE",
"15 -10 OFFCURVE",
"20 -12 OFFCURVE",
"27 -4 CURVE",
"112 82 LINE",
"155 22 OFFCURVE",
"224 -10 OFFCURVE",
"317 -10 CURVE SMOOTH"
);
},
{
closed = 1;
nodes = (
"239 33 OFFCURVE",
"180 60 OFFCURVE",
"145 116 CURVE",
"612 581 LINE",
"629 527 OFFCURVE",
"631 457 OFFCURVE",
"619 371 CURVE SMOOTH",
"587 143 OFFCURVE",
"487 33 OFFCURVE",
"321 33 CURVE SMOOTH"
);
},
{
closed = 1;
nodes = (
"109 213 OFFCURVE",
"106 282 OFFCURVE",
"118 367 CURVE SMOOTH",
"151 596 OFFCURVE",
"253 709 OFFCURVE",
"419 709 CURVE SMOOTH",
"500 709 OFFCURVE",
"559 682 OFFCURVE",
"593 626 CURVE",
"125 160 LINE"
);
}
);
width = 708;
},
{
anchors = (
{
name = top;
position = "{460, 742}";
}
);
background = {
anchors = (
{
name = top;
position = "{460, 742}";
}
);
paths = (
{
closed = 1;
nodes = (
"577 -10 OFFCURVE",
"733 133 OFFCURVE",
"765 358 CURVE SMOOTH",
"778 447 OFFCURVE",
"767 521 OFFCURVE",
"742 580 CURVE",
"834 655 LINE",
"844 664 OFFCURVE",
"838 674 OFFCURVE",
"832 682 CURVE SMOOTH",
"784 738 LINE SMOOTH",
"779 746 OFFCURVE",
"767 752 OFFCURVE",
"755 741 CURVE SMOOTH",
"679 670 LINE",
"627 720 OFFCURVE",
"551 752 OFFCURVE",
"454 752 CURVE SMOOTH",
"241 752 OFFCURVE",
"82 607 OFFCURVE",
"50 380 CURVE SMOOTH",
"37 289 OFFCURVE",
"48 214 OFFCURVE",
"74 154 CURVE",
"-8 88 LINE SMOOTH",
"-21 76 OFFCURVE",
"-15 66 OFFCURVE",
"-2 51 CURVE SMOOTH",
"32 11 LINE SMOOTH",
"45 -5 OFFCURVE",
"56 -12 OFFCURVE",
"73 3 CURVE SMOOTH",
"141 66 LINE",
"192 19 OFFCURVE",
"267 -10 OFFCURVE",
"363 -10 CURVE SMOOTH"
);
},
{
closed = 1;
nodes = (
"329 146 OFFCURVE",
"302 156 OFFCURVE",
"287 190 CURVE",
"534 409 LINE",
"533 397 OFFCURVE",
"531 385 OFFCURVE",
"530 377 CURVE SMOOTH",
"507 212 OFFCURVE",
"460 146 OFFCURVE",
"369 146 CURVE SMOOTH"
);
},
{
closed = 1;
nodes = (
"282 336 OFFCURVE",
"284 348 OFFCURVE",
"285 355 CURVE",
"309 525 OFFCURVE",
"358 598 OFFCURVE",
"449 598 CURVE SMOOTH",
"489 598 OFFCURVE",
"516 585 OFFCURVE",
"529 544 CURVE",
"280 324 LINE"
);
}
);
};
layerId = "945F4A85-7B75-430B-91A8-74C2C4AC9571";
paths = (
{
closed = 1;
nodes = (
"577 -10 OFFCURVE",
"733 133 OFFCURVE",
"765 358 CURVE SMOOTH",
"778 447 OFFCURVE",
"767 521 OFFCURVE",
"742 580 CURVE",
"834 655 LINE",
"844 664 OFFCURVE",
"838 674 OFFCURVE",
"832 682 CURVE SMOOTH",
"784 738 LINE SMOOTH",
"779 746 OFFCURVE",
"767 752 OFFCURVE",
"755 741 CURVE SMOOTH",
"679 670 LINE",
"627 720 OFFCURVE",
"551 752 OFFCURVE",
"454 752 CURVE SMOOTH",
"241 752 OFFCURVE",
"82 607 OFFCURVE",
"50 380 CURVE SMOOTH",
"37 289 OFFCURVE",
"48 214 OFFCURVE",
"74 154 CURVE",
"-8 88 LINE SMOOTH",
"-21 76 OFFCURVE",
"-15 66 OFFCURVE",
"-2 51 CURVE SMOOTH",
"32 11 LINE SMOOTH",
"45 -5 OFFCURVE",
"56 -12 OFFCURVE",
"73 3 CURVE SMOOTH",
"141 66 LINE",
"192 19 OFFCURVE",
"267 -10 OFFCURVE",
"363 -10 CURVE SMOOTH"
);
},
{
closed = 1;
nodes = (
"329 146 OFFCURVE",
"302 156 OFFCURVE",
"287 190 CURVE",
"534 409 LINE",
"533 397 OFFCURVE",
"531 385 OFFCURVE",
"530 377 CURVE SMOOTH",
"507 212 OFFCURVE",
"460 146 OFFCURVE",
"369 146 CURVE SMOOTH"
);
},
{
closed = 1;
nodes = (
"282 336 OFFCURVE",
"284 348 OFFCURVE",
"285 355 CURVE",
"309 525 OFFCURVE",
"358 598 OFFCURVE",
"449 598 CURVE SMOOTH",
"489 598 OFFCURVE",
"516 585 OFFCURVE",
"529 544 CURVE",
"280 324 LINE"
);
}
);
width = 786;
}
);
unicode = 00D8;
},
